Titillium Sans Pro-Thin Italic.ufo
<glyph name="exclam" format="2">
	<advance width="201"/>
	<unicode hex="0021"/>
	<note>
		exclam
	</note>
	<outline>
		<contour>
			<point x="212" y="700" type="line"/>
			<point x="178" y="700" type="line"/>
			<point x="75" y="214" type="line"/>
			<point x="109" y="214" type="line"/>
		</contour>
		<contour>
			<point x="87" y="80" type="line"/>
			<point x="47" y="80" type="line"/>
			<point x="30" y="0" type="line"/>
			<point x="70" y="0" type="line"/>
		</contour>
	</outline>
</glyph>
<glyph name="quotedbl" format="2">
	<advance width="305"/>
	<unicode hex="0022"/>
	<note>
		quotedbl
	</note>
	<outline>
		<contour>
			<point x="209" y="730" type="line"/>
			<point x="167" y="730" type="line"/>
			<point x="128" y="520" type="line"/>
			<point x="160" y="520" type="line"/>
		</contour>
		<contour>
			<point x="339" y="730" type="line"/>
			<point x="297" y="730" type="line"/>
			<point x="258" y="520" type="line"/>
			<point x="290" y="520" type="line"/>
		</contour>
	</outline>
</glyph>
<glyph name="numbersign" format="2">
  <advance width="609"/>
  <unicode hex="0023"/>
  <note>
numbersign
</note>
  <outline>
    <contour>
      <point x="382" y="0" type="line"/>
      <point x="422" y="190" type="line"/>
      <point x="542" y="190" type="line"/>
      <point x="549" y="222" type="line"/>
      <point x="429" y="222" type="line"/>
      <point x="475" y="438" type="line"/>
      <point x="595" y="438" type="line"/>
      <point x="602" y="470" type="line"/>
      <point x="482" y="470" type="line"/>
      <point x="522" y="660" type="line"/>
      <point x="486" y="660" type="line"/>
      <point x="446" y="470" type="line"/>
      <point x="258" y="470" type="line"/>
      <point x="298" y="660" type="line"/>
      <point x="262" y="660" type="line"/>
      <point x="222" y="470" type="line"/>
      <point x="102" y="470" type="line"/>
      <point x="95" y="438" type="line"/>
      <point x="215" y="438" type="line"/>
      <point x="169" y="222" type="line"/>
      <point x="49" y="222" type="line"/>
      <point x="42" y="190" type="line"/>
      <point x="162" y="190" type="line"/>
      <point x="122" y="0" type="line"/>
      <point x="158" y="0" type="line"/>
      <point x="198" y="190" type="line"/>
      <point x="386" y="190" type="line"/>
      <point x="346" y="0" type="line"/>
    </contour>
    <contour>
      <point x="251" y="438" type="line"/>
      <point x="439" y="438" type="line"/>
      <point x="393" y="222" type="line"/>
      <point x="205" y="222" type="line"/>
    </contour>
  </outline>
</glyph>
<glyph name="dollar" format="2">
	<advance width="480"/>
	<unicode hex="0024"/>
	<note>
		dollar
	</note>
	<outline>
		<contour>
			<point x="480" y="610" type="curve"/>
			<point x="491" y="641" type="line"/>
			<point x="491" y="641"/>
			<point x="434" y="649"/>
			<point x="377" y="653" type="curve"/>
			<point x="425" y="790" type="line"/>
			<point x="390" y="790" type="line"/>
			<point x="344" y="655" type="line"/>
			<point x="314" y="656" type="line" smooth="yes"/>
			<point x="171" y="661"/>
			<point x="100" y="567"/>
			<point x="100" y="448" type="curve" smooth="yes"/>
			<point x="100" y="366"/>
			<point x="156" y="341"/>
			<point x="241" y="326" type="curve"/>
			<point x="152" y="39" type="line"/>
			<point x="90" y="43"/>
			<point x="18" y="52"/>
			<point x="18" y="52" type="curve"/>
			<point x="7" y="21" type="line"/>
			<point x="7" y="21"/>
			<point x="77" y="12"/>
			<point x="141" y="8" type="curve"/>
			<point x="99" y="-116" type="line"/>
			<point x="134" y="-116" type="line"/>
			<point x="175" y="7" type="line"/>
			<point x="196" y="6" type="line" smooth="yes"/>
			<point x="378" y="-3"/>
			<point x="425" y="160"/>
			<point x="425" y="237" type="curve" smooth="yes"/>
			<point x="425" y="308"/>
			<point x="374" y="338"/>
			<point x="284" y="354" type="curve"/>
			<point x="366" y="621" type="line"/>
			<point x="419" y="617"/>
			<point x="480" y="610"/>
		</contour>
		<contour>
			<point x="308" y="625" type="curve" smooth="yes"/>
			<point x="333" y="624" type="line"/>
			<point x="251" y="359" type="line"/>
			<point x="178" y="372"/>
			<point x="134" y="388"/>
			<point x="134" y="451" type="curve" smooth="yes"/>
			<point x="134" y="528"/>
			<point x="175" y="630"/>
		</contour>
		<contour>
			<point x="204" y="37" type="curve" smooth="yes"/>
			<point x="186" y="37" type="line"/>
			<point x="273" y="321" type="line"/>
			<point x="351" y="307"/>
			<point x="390" y="288"/>
			<point x="390" y="231" type="curve" smooth="yes"/>
			<point x="390" y="161"/>
			<point x="350" y="37"/>
		</contour>
	</outline>
</glyph>
<glyph name="ampersand" format="2">
  <advance width="624"/>
  <unicode hex="0026"/>
  <note>
ampersand
</note>
  <outline>
    <contour>
      <point x="393" y="710" type="curve" smooth="yes"/>
      <point x="280" y="710"/>
      <point x="217" y="634"/>
      <point x="217" y="524" type="curve" smooth="yes"/>
      <point x="217" y="475"/>
      <point x="227" y="448"/>
      <point x="243" y="413" type="curve"/>
      <point x="90" y="357"/>
      <point x="32" y="301"/>
      <point x="32" y="179" type="curve" smooth="yes"/>
      <point x="32" y="50"/>
      <point x="95" y="-10"/>
      <point x="216" y="-10" type="curve" smooth="yes"/>
      <point x="314" y="-10"/>
      <point x="384" y="35"/>
      <point x="447" y="125" type="curve"/>
      <point x="546" y="-3" type="line"/>
      <point x="573" y="19" type="line"/>
      <point x="468" y="156" type="line"/>
      <point x="495" y="200"/>
      <point x="526" y="260"/>
      <point x="548" y="329" type="curve"/>
      <point x="510" y="329" type="line"/>
      <point x="491" y="272"/>
      <point x="466" y="223"/>
      <point x="444" y="185" type="curve"/>
      <point x="310" y="371" type="line"/>
      <point x="433" y="406"/>
      <point x="519" y="466"/>
      <point x="519" y="582" type="curve" smooth="yes"/>
      <point x="519" y="672"/>
      <point x="468" y="710"/>
    </contour>
    <contour>
      <point x="255" y="524" type="curve" smooth="yes"/>
      <point x="255" y="609"/>
      <point x="299" y="678"/>
      <point x="390" y="678" type="curve" smooth="yes"/>
      <point x="446" y="678"/>
      <point x="481" y="652"/>
      <point x="481" y="579" type="curve" smooth="yes"/>
      <point x="481" y="485"/>
      <point x="419" y="437"/>
      <point x="293" y="399" type="curve"/>
      <point x="268" y="435"/>
      <point x="255" y="477"/>
    </contour>
    <contour>
      <point x="213" y="24" type="curve" smooth="yes"/>
      <point x="116" y="24"/>
      <point x="70" y="74"/>
      <point x="70" y="179" type="curve" smooth="yes"/>
      <point x="70" y="280"/>
      <point x="118" y="333"/>
      <point x="260" y="383" type="curve"/>
      <point x="424" y="154" type="line"/>
      <point x="372" y="69"/>
      <point x="298" y="24"/>
    </contour>
  </outline>
</glyph>
<glyph name="quotesingle" format="2">
	<advance width="175"/>
	<unicode hex="0027"/>
	<note>
		quotesingle
	</note>
	<outline>
		<contour>
			<point x="209" y="730" type="line"/>
			<point x="167" y="730" type="line"/>
			<point x="128" y="520" type="line"/>
			<point x="160" y="520" type="line"/>
		</contour>
	</outline>
</glyph>
<glyph name="parenleft" format="2">
	<advance width="227"/>
	<unicode hex="0028"/>
	<note>
		parenleft
	</note>
	<outline>
		<contour>
			<point x="294" y="750" type="curve"/>
			<point x="259" y="750" type="line"/>
			<point x="117" y="503"/>
			<point x="49" y="333"/>
			<point x="49" y="118" type="curve" smooth="yes"/>
			<point x="49" y="-16"/>
			<point x="73" y="-125"/>
			<point x="73" y="-125" type="curve"/>
			<point x="108" y="-125" type="line"/>
			<point x="108" y="-125"/>
			<point x="87" y="-12"/>
			<point x="87" y="130" type="curve" smooth="yes"/>
			<point x="87" y="344"/>
			<point x="167" y="513"/>
		</contour>
	</outline>
</glyph>
<glyph name="parenright" format="2">
  <advance width="227"/>
  <unicode hex="0029"/>
  <note>
parenright
</note>
  <outline>
    <contour>
      <point x="-40" y="-125" type="curve"/>
      <point x="-5" y="-125" type="line"/>
      <point x="137" y="122"/>
      <point x="205" y="292"/>
      <point x="205" y="507" type="curve" smooth="yes"/>
      <point x="205" y="641"/>
      <point x="181" y="750"/>
      <point x="181" y="750" type="curve"/>
      <point x="146" y="750" type="line"/>
      <point x="146" y="750"/>
      <point x="167" y="637"/>
      <point x="167" y="495" type="curve" smooth="yes"/>
      <point x="167" y="281"/>
      <point x="87" y="112"/>
    </contour>
  </outline>
</glyph>
<glyph name="asterisk" format="2">
	<advance width="421"/>
	<unicode hex="002A"/>
	<note>
		asterisk
	</note>
	<outline>
		<contour>
			<point x="338" y="407" type="line"/>
			<point x="296" y="536" type="line"/>
			<point x="433" y="536" type="line"/>
			<point x="433" y="570" type="line"/>
			<point x="298" y="570" type="line"/>
			<point x="340" y="700" type="line"/>
			<point x="308" y="710" type="line"/>
			<point x="266" y="581" type="line"/>
			<point x="156" y="662" type="line"/>
			<point x="136" y="635" type="line"/>
			<point x="245" y="555" type="line"/>
			<point x="135" y="475" type="line"/>
			<point x="154" y="448" type="line"/>
			<point x="264" y="527" type="line"/>
			<point x="306" y="397" type="line"/>
		</contour>
	</outline>
</glyph>
<glyph name="plus" format="2">
	<advance width="560"/>
	<unicode hex="002B"/>
	<note>
		plus
	</note>
	<outline>
		<contour>
			<point x="274" y="309" type="line"/>
			<point x="72" y="309" type="line"/>
			<point x="64" y="273" type="line"/>
			<point x="266" y="273" type="line"/>
			<point x="223" y="72" type="line"/>
			<point x="259" y="72" type="line"/>
			<point x="302" y="273" type="line"/>
			<point x="504" y="273" type="line"/>
			<point x="512" y="309" type="line"/>
			<point x="310" y="309" type="line"/>
			<point x="353" y="510" type="line"/>
			<point x="317" y="510" type="line"/>
		</contour>
	</outline>
</glyph>
<glyph name="comma" format="2">
  <advance width="182"/>
  <unicode hex="002C"/>
  <note>
comma
</note>
  <outline>
    <contour>
      <point x="90" y="80" type="line"/>
      <point x="50" y="80" type="line"/>
      <point x="-36" y="-123" type="line"/>
      <point x="-5" y="-123" type="line"/>
    </contour>
  </outline>
</glyph>
<glyph name="hyphen" format="2">
	<advance width="409"/>
	<unicode hex="002D"/>
	<note>
		hyphen
	</note>
	<outline>
		<contour>
			<point x="367" y="308" type="line"/>
			<point x="67" y="308" type="line"/>
			<point x="59" y="274" type="line"/>
			<point x="359" y="274" type="line"/>
		</contour>
	</outline>
</glyph>
<glyph name="period" format="2">
  <advance width="187"/>
  <unicode hex="002E"/>
  <note>
period
</note>
  <outline>
    <contour>
      <point x="79" y="80" type="line"/>
      <point x="39" y="80" type="line"/>
      <point x="21" y="0" type="line"/>
      <point x="61" y="0" type="line"/>
    </contour>
  </outline>
</glyph>
<glyph name="slash" format="2">
  <advance width="372"/>
  <unicode hex="002F"/>
  <note>
slash
</note>
  <outline>
    <contour>
      <point x="442" y="692" type="line"/>
      <point x="415" y="710" type="line"/>
      <point x="-28" y="8" type="line"/>
      <point x="-1" y="-10" type="line"/>
    </contour>
  </outline>
</glyph>
<glyph name="zero" format="2">
	<advance width="596"/>
	<unicode hex="0030"/>
	<note>
		zero
	</note>
	<outline>
		<contour>
			<point x="385" y="670" type="curve" smooth="yes"/>
			<point x="147" y="670"/>
			<point x="65" y="366"/>
			<point x="65" y="189" type="curve" smooth="yes"/>
			<point x="65" y="33"/>
			<point x="135" y="-10"/>
			<point x="247" y="-10" type="curve" smooth="yes"/>
			<point x="480" y="-10"/>
			<point x="565" y="287"/>
			<point x="565" y="461" type="curve" smooth="yes"/>
			<point x="565" y="620"/>
			<point x="495" y="670"/>
		</contour>
		<contour>
			<point x="381" y="636" type="curve" smooth="yes"/>
			<point x="475" y="636"/>
			<point x="528" y="601"/>
			<point x="528" y="465" type="curve" smooth="yes"/>
			<point x="528" y="315"/>
			<point x="455" y="24"/>
			<point x="251" y="24" type="curve" smooth="yes"/>
			<point x="161" y="24"/>
			<point x="102" y="49"/>
			<point x="102" y="185" type="curve" smooth="yes"/>
			<point x="102" y="330"/>
			<point x="165" y="636"/>
		</contour>
	</outline>
</glyph>
<glyph name="one" format="2">
  <advance width="352"/>
  <unicode hex="0031"/>
  <note>
one
</note>
  <outline>
    <contour>
      <point x="345" y="660" type="line"/>
      <point x="310" y="660" type="line"/>
      <point x="77" y="524" type="line"/>
      <point x="90" y="493" type="line"/>
      <point x="301" y="617" type="line"/>
      <point x="170" y="0" type="line"/>
      <point x="205" y="0" type="line"/>
    </contour>
  </outline>
</glyph>
<glyph name="two" format="2">
  <advance width="512"/>
  <unicode hex="0032"/>
  <note>
two
</note>
  <outline>
    <contour>
      <point x="-5" y="31" type="line"/>
      <point x="-11" y="0" type="line"/>
      <point x="417" y="0" type="line"/>
      <point x="424" y="32" type="line"/>
      <point x="44" y="32" type="line"/>
      <point x="283" y="233" type="line" smooth="yes"/>
      <point x="424" y="352"/>
      <point x="501" y="411"/>
      <point x="501" y="532" type="curve" smooth="yes"/>
      <point x="501" y="618"/>
      <point x="437" y="670"/>
      <point x="313" y="670" type="curve" smooth="yes"/>
      <point x="244" y="670"/>
      <point x="141" y="643"/>
      <point x="141" y="643" type="curve"/>
      <point x="139" y="609" type="line"/>
      <point x="139" y="609"/>
      <point x="235" y="636"/>
      <point x="310" y="636" type="curve" smooth="yes"/>
      <point x="421" y="636"/>
      <point x="465" y="600"/>
      <point x="465" y="530" type="curve" smooth="yes"/>
      <point x="465" y="421"/>
      <point x="382" y="361"/>
      <point x="260" y="257" type="curve" smooth="yes"/>
    </contour>
  </outline>
</glyph>
<glyph name="three" format="2">
	<advance width="533"/>
	<unicode hex="0033"/>
	<note>
		three
	</note>
	<outline>
		<contour>
			<point x="144" y="648" type="curve"/>
			<point x="143" y="614" type="line"/>
			<point x="143" y="614"/>
			<point x="249" y="636"/>
			<point x="335" y="636" type="curve" smooth="yes"/>
			<point x="452" y="636"/>
			<point x="474" y="588"/>
			<point x="474" y="533" type="curve" smooth="yes"/>
			<point x="474" y="422"/>
			<point x="382" y="365"/>
			<point x="290" y="365" type="curve" smooth="yes"/>
			<point x="162" y="365" type="line"/>
			<point x="156" y="333" type="line"/>
			<point x="310" y="333" type="line"/>
			<point x="363" y="329"/>
			<point x="417" y="294"/>
			<point x="417" y="203" type="curve" smooth="yes"/>
			<point x="417" y="106"/>
			<point x="357" y="25"/>
			<point x="198" y="24" type="curve" smooth="yes"/>
			<point x="99" y="23"/>
			<point x="13" y="53"/>
			<point x="13" y="53" type="curve"/>
			<point x="1" y="19" type="line"/>
			<point x="1" y="19"/>
			<point x="83" y="-10"/>
			<point x="192" y="-10" type="curve" smooth="yes"/>
			<point x="375" y="-10"/>
			<point x="457" y="77"/>
			<point x="457" y="206" type="curve" smooth="yes"/>
			<point x="457" y="290"/>
			<point x="421" y="327"/>
			<point x="369" y="349" type="curve"/>
			<point x="452" y="371"/>
			<point x="510" y="438"/>
			<point x="510" y="533" type="curve" smooth="yes"/>
			<point x="510" y="603"/>
			<point x="479" y="670"/>
			<point x="341" y="670" type="curve" smooth="yes"/>
			<point x="254" y="670"/>
			<point x="144" y="648"/>
		</contour>
	</outline>
</glyph>
<glyph name="four" format="2">
	<advance width="520"/>
	<unicode hex="0034"/>
	<note>
		four
	</note>
	<outline>
		<contour>
			<point x="10" y="142" type="line"/>
			<point x="332" y="142" type="line"/>
			<point x="302" y="0" type="line"/>
			<point x="337" y="0" type="line"/>
			<point x="367" y="142" type="line"/>
			<point x="469" y="142" type="line"/>
			<point x="476" y="174" type="line"/>
			<point x="374" y="174" type="line"/>
			<point x="421" y="395" type="line"/>
			<point x="386" y="395" type="line"/>
			<point x="339" y="174" type="line"/>
			<point x="56" y="174" type="line"/>
			<point x="395" y="660" type="line"/>
			<point x="353" y="660" type="line"/>
			<point x="16" y="172" type="line"/>
		</contour>
	</outline>
</glyph>
<glyph name="five" format="2">
  <advance width="548"/>
  <unicode hex="0035"/>
  <note>
five
</note>
  <outline>
    <contour>
      <point x="545" y="626" type="line"/>
      <point x="552" y="660" type="line"/>
      <point x="189" y="660" type="line"/>
      <point x="89" y="327" type="line"/>
      <point x="123" y="323" type="line"/>
      <point x="123" y="323"/>
      <point x="211" y="378"/>
      <point x="314" y="378" type="curve" smooth="yes"/>
      <point x="385" y="378"/>
      <point x="446" y="346"/>
      <point x="446" y="242" type="curve" smooth="yes"/>
      <point x="446" y="134"/>
      <point x="377" y="24"/>
      <point x="219" y="24" type="curve" smooth="yes"/>
      <point x="136" y="24"/>
      <point x="22" y="51"/>
      <point x="22" y="51" type="curve"/>
      <point x="10" y="19" type="line"/>
      <point x="10" y="19"/>
      <point x="120" y="-10"/>
      <point x="213" y="-10" type="curve" smooth="yes"/>
      <point x="404" y="-10"/>
      <point x="485" y="118"/>
      <point x="485" y="247" type="curve" smooth="yes"/>
      <point x="485" y="365"/>
      <point x="417" y="412"/>
      <point x="322" y="412" type="curve" smooth="yes"/>
      <point x="216" y="412"/>
      <point x="132" y="361"/>
      <point x="132" y="361" type="curve"/>
      <point x="212" y="626" type="line"/>
    </contour>
  </outline>
</glyph>
<glyph name="six" format="2">
  <advance width="573"/>
  <unicode hex="0036"/>
  <note>
six
</note>
  <outline>
    <contour>
      <point x="562" y="620" type="curve"/>
      <point x="573" y="654" type="line"/>
      <point x="573" y="654"/>
      <point x="478" y="670"/>
      <point x="414" y="670" type="curve" smooth="yes"/>
      <point x="148" y="670"/>
      <point x="70" y="400"/>
      <point x="70" y="231" type="curve" smooth="yes"/>
      <point x="70" y="65"/>
      <point x="150" y="-10"/>
      <point x="273" y="-10" type="curve" smooth="yes"/>
      <point x="444" y="-10"/>
      <point x="512" y="133"/>
      <point x="512" y="249" type="curve" smooth="yes"/>
      <point x="512" y="360"/>
      <point x="442" y="406"/>
      <point x="332" y="406" type="curve" smooth="yes"/>
      <point x="221" y="406"/>
      <point x="120" y="358"/>
      <point x="120" y="358" type="curve"/>
      <point x="159" y="529"/>
      <point x="248" y="636"/>
      <point x="410" y="636" type="curve" smooth="yes"/>
      <point x="472" y="636"/>
      <point x="562" y="620"/>
    </contour>
    <contour>
      <point x="332" y="372" type="curve" smooth="yes"/>
      <point x="421" y="372"/>
      <point x="476" y="337"/>
      <point x="476" y="243" type="curve" smooth="yes"/>
      <point x="476" y="143"/>
      <point x="417" y="24"/>
      <point x="277" y="24" type="curve" smooth="yes"/>
      <point x="169" y="24"/>
      <point x="106" y="78"/>
      <point x="106" y="238" type="curve" smooth="yes"/>
      <point x="106" y="294"/>
      <point x="113" y="324"/>
      <point x="113" y="324" type="curve"/>
      <point x="113" y="324"/>
      <point x="227" y="372"/>
    </contour>
  </outline>
</glyph>
<glyph name="seven" format="2">
  <advance width="457"/>
  <unicode hex="0037"/>
  <note>
seven
</note>
  <outline>
    <contour>
      <point x="503" y="660" type="line"/>
      <point x="113" y="660" type="line"/>
      <point x="106" y="626" type="line"/>
      <point x="460" y="626" type="line"/>
      <point x="454" y="601" type="line"/>
      <point x="65" y="10" type="line"/>
      <point x="93" y="-9" type="line"/>
      <point x="490" y="597" type="line"/>
    </contour>
  </outline>
</glyph>
<glyph name="eight" format="2">
  <advance width="612"/>
  <unicode hex="0038"/>
  <note>
eight
</note>
  <outline>
    <contour>
      <point x="46" y="152" type="curve" smooth="yes"/>
      <point x="46" y="30"/>
      <point x="145" y="-10"/>
      <point x="270" y="-10" type="curve" smooth="yes"/>
      <point x="433" y="-10"/>
      <point x="539" y="56"/>
      <point x="539" y="194" type="curve" smooth="yes"/>
      <point x="539" y="286"/>
      <point x="479" y="322"/>
      <point x="415" y="345" type="curve"/>
      <point x="523" y="368"/>
      <point x="583" y="440"/>
      <point x="583" y="523" type="curve" smooth="yes"/>
      <point x="583" y="624"/>
      <point x="492" y="670"/>
      <point x="374" y="670" type="curve" smooth="yes"/>
      <point x="227" y="670"/>
      <point x="126" y="592"/>
      <point x="126" y="475" type="curve" smooth="yes"/>
      <point x="126" y="405"/>
      <point x="162" y="368"/>
      <point x="229" y="349" type="curve"/>
      <point x="109" y="319"/>
      <point x="46" y="252"/>
    </contour>
    <contour>
      <point x="370" y="636" type="curve" smooth="yes"/>
      <point x="472" y="636"/>
      <point x="547" y="604"/>
      <point x="547" y="517" type="curve" smooth="yes"/>
      <point x="547" y="434"/>
      <point x="479" y="382"/>
      <point x="379" y="363" type="curve"/>
      <point x="270" y="363" type="line"/>
      <point x="201" y="383"/>
      <point x="162" y="406"/>
      <point x="162" y="471" type="curve" smooth="yes"/>
      <point x="162" y="579"/>
      <point x="244" y="636"/>
    </contour>
    <contour>
      <point x="82" y="153" type="curve" smooth="yes"/>
      <point x="82" y="247"/>
      <point x="156" y="306"/>
      <point x="263" y="330" type="curve"/>
      <point x="372" y="330" type="line"/>
      <point x="442" y="312"/>
      <point x="503" y="276"/>
      <point x="503" y="188" type="curve" smooth="yes"/>
      <point x="503" y="76"/>
      <point x="409" y="24"/>
      <point x="276" y="24" type="curve" smooth="yes"/>
      <point x="175" y="24"/>
      <point x="82" y="50"/>
    </contour>
  </outline>
</glyph>
<glyph name="nine" format="2">
	<advance width="569"/>
	<unicode hex="0039"/>
	<note>
		nine
	</note>
	<outline>
		<contour>
			<point x="58" y="40" type="curve"/>
			<point x="47" y="6" type="line"/>
			<point x="47" y="6"/>
			<point x="142" y="-10"/>
			<point x="206" y="-10" type="curve" smooth="yes"/>
			<point x="455" y="-10"/>
			<point x="533" y="260"/>
			<point x="533" y="429" type="curve" smooth="yes"/>
			<point x="533" y="595"/>
			<point x="453" y="670"/>
			<point x="330" y="670" type="curve" smooth="yes"/>
			<point x="159" y="670"/>
			<point x="91" y="527"/>
			<point x="91" y="411" type="curve" smooth="yes"/>
			<point x="91" y="300"/>
			<point x="161" y="254"/>
			<point x="271" y="254" type="curve" smooth="yes"/>
			<point x="382" y="254"/>
			<point x="483" y="302"/>
			<point x="483" y="302" type="curve"/>
			<point x="444" y="131"/>
			<point x="355" y="24"/>
			<point x="210" y="24" type="curve" smooth="yes"/>
			<point x="148" y="24"/>
			<point x="58" y="40"/>
		</contour>
		<contour>
			<point x="271" y="288" type="curve" smooth="yes"/>
			<point x="182" y="288"/>
			<point x="127" y="323"/>
			<point x="127" y="417" type="curve" smooth="yes"/>
			<point x="127" y="517"/>
			<point x="186" y="636"/>
			<point x="326" y="636" type="curve" smooth="yes"/>
			<point x="434" y="636"/>
			<point x="497" y="582"/>
			<point x="497" y="422" type="curve" smooth="yes"/>
			<point x="497" y="366"/>
			<point x="490" y="336"/>
			<point x="490" y="336" type="curve"/>
			<point x="490" y="336"/>
			<point x="376" y="288"/>
		</contour>
	</outline>
</glyph>
<glyph name="colon" format="2">
	<advance width="185"/>
	<unicode hex="003A"/>
	<note>
		colon
	</note>
	<outline>
		<contour>
			<point x="149" y="420" type="line"/>
			<point x="109" y="420" type="line"/>
			<point x="91" y="340" type="line"/>
			<point x="131" y="340" type="line"/>
		</contour>
		<contour>
			<point x="77" y="80" type="line"/>
			<point x="37" y="80" type="line"/>
			<point x="19" y="0" type="line"/>
			<point x="59" y="0" type="line"/>
		</contour>
	</outline>
</glyph>
<glyph name="semicolon" format="2">
  <advance width="230"/>
  <unicode hex="003B"/>
  <note>
semicolon
</note>
  <outline>
    <contour>
      <point x="164" y="420" type="line"/>
      <point x="124" y="420" type="line"/>
      <point x="106" y="340" type="line"/>
      <point x="146" y="340" type="line"/>
    </contour>
    <contour>
      <point x="113" y="80" type="line"/>
      <point x="73" y="80" type="line"/>
      <point x="-13" y="-123" type="line"/>
      <point x="18" y="-123" type="line"/>
    </contour>
  </outline>
</glyph>
<glyph name="less" format="2">
  <advance width="560"/>
  <unicode hex="003C"/>
  <note>
less
</note>
  <outline>
    <contour>
      <point x="457" y="95" type="line"/>
      <point x="109" y="287" type="line"/>
      <point x="539" y="483" type="line"/>
      <point x="548" y="525" type="line"/>
      <point x="78" y="308" type="line"/>
      <point x="70" y="274" type="line"/>
      <point x="448" y="57" type="line"/>
    </contour>
  </outline>
</glyph>
<glyph name="equal" format="2">
	<advance width="560"/>
	<unicode hex="003D"/>
	<note>
		equal
	</note>
	<outline>
		<contour>
			<point x="110" y="398" type="line"/>
			<point x="103" y="364" type="line"/>
			<point x="505" y="364" type="line"/>
			<point x="512" y="398" type="line"/>
		</contour>
		<contour>
			<point x="71" y="218" type="line"/>
			<point x="64" y="184" type="line"/>
			<point x="466" y="184" type="line"/>
			<point x="473" y="218" type="line"/>
		</contour>
	</outline>
</glyph>
<glyph name="greater" format="2">
  <advance width="560"/>
  <unicode hex="003E"/>
  <note>
greater
</note>
  <outline>
    <contour>
      <point x="121" y="487" type="line"/>
      <point x="469" y="295" type="line"/>
      <point x="39" y="99" type="line"/>
      <point x="30" y="57" type="line"/>
      <point x="500" y="274" type="line"/>
      <point x="508" y="308" type="line"/>
      <point x="130" y="525" type="line"/>
    </contour>
  </outline>
</glyph>
<glyph name="question" format="2">
  <advance width="426"/>
  <unicode hex="003F"/>
  <note>
question
</note>
  <outline>
    <contour>
      <point x="453" y="579" type="curve" smooth="yes"/>
      <point x="453" y="668"/>
      <point x="387" y="710"/>
      <point x="288" y="710" type="curve" smooth="yes"/>
      <point x="186" y="710"/>
      <point x="110" y="683"/>
      <point x="110" y="683" type="curve"/>
      <point x="108" y="649" type="line"/>
      <point x="108" y="649"/>
      <point x="175" y="677"/>
      <point x="278" y="677" type="curve" smooth="yes"/>
      <point x="357" y="677"/>
      <point x="417" y="651"/>
      <point x="417" y="577" type="curve" smooth="yes"/>
      <point x="417" y="488"/>
      <point x="361" y="447"/>
      <point x="289" y="392" type="curve" smooth="yes"/>
      <point x="227" y="345"/>
      <point x="156" y="297"/>
      <point x="149" y="232" type="curve" smooth="yes"/>
      <point x="147" y="213"/>
      <point x="145" y="191"/>
      <point x="145" y="191" type="curve"/>
      <point x="174" y="191" type="line"/>
      <point x="182" y="229" type="line" smooth="yes"/>
      <point x="194" y="285"/>
      <point x="250" y="322"/>
      <point x="310" y="367" type="curve" smooth="yes"/>
      <point x="413" y="443"/>
      <point x="453" y="488"/>
    </contour>
    <contour>
      <point x="167" y="80" type="line"/>
      <point x="127" y="80" type="line"/>
      <point x="110" y="0" type="line"/>
      <point x="150" y="0" type="line"/>
    </contour>
  </outline>
</glyph>
<glyph name="at" format="2">
	<advance width="980"/>
	<unicode hex="0040"/>
	<note>
		at
	</note>
	<outline>
		<contour>
			<point x="698" y="-10" type="curve" smooth="yes"/>
			<point x="839" y="-10"/>
			<point x="943" y="183"/>
			<point x="943" y="414" type="curve" smooth="yes"/>
			<point x="943" y="626"/>
			<point x="838" y="719"/>
			<point x="592" y="719" type="curve" smooth="yes"/>
			<point x="143" y="719"/>
			<point x="41" y="337"/>
			<point x="41" y="113" type="curve" smooth="yes"/>
			<point x="41" y="-142"/>
			<point x="170" y="-199"/>
			<point x="396" y="-199" type="curve" smooth="yes"/>
			<point x="444" y="-199"/>
			<point x="544" y="-190"/>
			<point x="544" y="-190" type="curve"/>
			<point x="548" y="-157" type="line"/>
			<point x="548" y="-157"/>
			<point x="443" y="-167"/>
			<point x="403" y="-167" type="curve" smooth="yes"/>
			<point x="193" y="-167"/>
			<point x="77" y="-125"/>
			<point x="77" y="111" type="curve" smooth="yes"/>
			<point x="77" y="302"/>
			<point x="157" y="687"/>
			<point x="585" y="687" type="curve" smooth="yes"/>
			<point x="811" y="687"/>
			<point x="907" y="617"/>
			<point x="907" y="422" type="curve" smooth="yes"/>
			<point x="907" y="208"/>
			<point x="812" y="20"/>
			<point x="705" y="20" type="curve" smooth="yes"/>
			<point x="657" y="20"/>
			<point x="634" y="34"/>
			<point x="634" y="86" type="curve" smooth="yes"/>
			<point x="634" y="127"/>
			<point x="646" y="190"/>
			<point x="670" y="300" type="curve" smooth="yes"/>
			<point x="712" y="489" type="line"/>
			<point x="657" y="497"/>
			<point x="587" y="509"/>
			<point x="542" y="509" type="curve" smooth="yes"/>
			<point x="353" y="509"/>
			<point x="272" y="269"/>
			<point x="272" y="143" type="curve" smooth="yes"/>
			<point x="272" y="26"/>
			<point x="325" y="-9"/>
			<point x="398" y="-9" type="curve" smooth="yes"/>
			<point x="496" y="-9"/>
			<point x="600" y="120"/>
			<point x="600" y="120" type="curve"/>
			<point x="591" y="42"/>
			<point x="619" y="-10"/>
		</contour>
		<contour>
			<point x="405" y="23" type="curve" smooth="yes"/>
			<point x="347" y="23"/>
			<point x="308" y="50"/>
			<point x="308" y="140" type="curve" smooth="yes"/>
			<point x="308" y="255"/>
			<point x="389" y="477"/>
			<point x="541" y="477" type="curve" smooth="yes"/>
			<point x="600" y="477"/>
			<point x="671" y="462"/>
			<point x="671" y="462" type="curve"/>
			<point x="604" y="170" type="line"/>
			<point x="604" y="170"/>
			<point x="491" y="23"/>
		</contour>
	</outline>
</glyph>
<glyph name="B" format="2">
	<advance width="594"/>
	<unicode hex="0042"/>
	<note>
		B
	</note>
	<outline>
		<contour>
			<point x="390" y="700" type="curve" smooth="yes"/>
			<point x="188" y="700" type="line"/>
			<point x="39" y="0" type="line"/>
			<point x="274" y="0" type="line" smooth="yes"/>
			<point x="476" y="0"/>
			<point x="529" y="122"/>
			<point x="529" y="226" type="curve" smooth="yes"/>
			<point x="529" y="318"/>
			<point x="485" y="345"/>
			<point x="432" y="360" type="curve"/>
			<point x="539" y="386"/>
			<point x="570" y="499"/>
			<point x="570" y="567" type="curve" smooth="yes"/>
			<point x="570" y="656"/>
			<point x="503" y="700"/>
		</contour>
		<contour>
			<point x="154" y="375" type="line"/>
			<point x="215" y="666" type="line"/>
			<point x="392" y="666" type="line" smooth="yes"/>
			<point x="486" y="666"/>
			<point x="532" y="633"/>
			<point x="532" y="556" type="curve" smooth="yes"/>
			<point x="532" y="482"/>
			<point x="491" y="375"/>
			<point x="345" y="375" type="curve" smooth="yes"/>
		</contour>
		<contour>
			<point x="81" y="34" type="line"/>
			<point x="146" y="341" type="line"/>
			<point x="338" y="341" type="line" smooth="yes"/>
			<point x="425" y="341"/>
			<point x="491" y="319"/>
			<point x="491" y="224" type="curve" smooth="yes"/>
			<point x="491" y="127"/>
			<point x="436" y="34"/>
			<point x="281" y="34" type="curve" smooth="yes"/>
		</contour>
	</outline>
</glyph>
<glyph name="E" format="2">
	<advance width="527"/>
	<unicode hex="0045"/>
	<note>
		E
	</note>
	<outline>
		<contour>
			<point x="578" y="700" type="line"/>
			<point x="188" y="700" type="line"/>
			<point x="39" y="0" type="line"/>
			<point x="429" y="0" type="line"/>
			<point x="436" y="34" type="line"/>
			<point x="81" y="34" type="line"/>
			<point x="146" y="341" type="line"/>
			<point x="441" y="341" type="line"/>
			<point x="448" y="375" type="line"/>
			<point x="154" y="375" type="line"/>
			<point x="216" y="666" type="line"/>
			<point x="570" y="666" type="line"/>
		</contour>
	</outline>
</glyph>
<glyph name="F" format="2">
  <advance width="498"/>
  <unicode hex="0046"/>
  <note>
F
</note>
  <outline>
    <contour>
      <point x="562" y="700" type="line"/>
      <point x="188" y="700" type="line"/>
      <point x="39" y="0" type="line"/>
      <point x="74" y="0" type="line"/>
      <point x="141" y="316" type="line"/>
      <point x="429" y="316" type="line"/>
      <point x="436" y="350" type="line"/>
      <point x="149" y="350" type="line"/>
      <point x="216" y="666" type="line"/>
      <point x="554" y="666" type="line"/>
    </contour>
  </outline>
</glyph>
<glyph name="H" format="2">
  <advance width="642"/>
  <unicode hex="0048"/>
  <note>
H
</note>
  <outline>
    <contour>
      <point x="146" y="339" type="line"/>
      <point x="534" y="339" type="line"/>
      <point x="462" y="0" type="line"/>
      <point x="497" y="0" type="line"/>
      <point x="646" y="700" type="line"/>
      <point x="611" y="700" type="line"/>
      <point x="542" y="373" type="line"/>
      <point x="153" y="373" type="line"/>
      <point x="223" y="700" type="line"/>
      <point x="188" y="700" type="line"/>
      <point x="39" y="0" type="line"/>
      <point x="74" y="0" type="line"/>
    </contour>
  </outline>
</glyph>
<glyph name="I" format="2">
	<advance width="219"/>
	<unicode hex="0049"/>
	<note>
		I
	</note>
	<outline>
		<contour>
			<point x="223" y="700" type="line"/>
			<point x="188" y="700" type="line"/>
			<point x="39" y="0" type="line"/>
			<point x="74" y="0" type="line"/>
		</contour>
	</outline>
</glyph>
<glyph name="J" format="2">
  <advance width="279"/>
  <unicode hex="004A"/>
  <note>
J
</note>
  <outline>
    <contour>
      <point x="161" y="114" type="curve" smooth="yes"/>
      <point x="286" y="700" type="line"/>
      <point x="251" y="700" type="line"/>
      <point x="128" y="124" type="line" smooth="yes"/>
      <point x="112" y="51"/>
      <point x="97" y="27"/>
      <point x="-30" y="27" type="curve"/>
      <point x="-37" y="-7" type="line"/>
      <point x="105" y="-7"/>
      <point x="140" y="16"/>
    </contour>
  </outline>
</glyph>
<glyph name="K" format="2">
	<advance width="536"/>
	<unicode hex="004B"/>
	<note>
		K
	</note>
	<outline>
		<contour>
			<point x="144" y="329" type="line"/>
			<point x="271" y="329" type="line"/>
			<point x="441" y="0" type="line"/>
			<point x="480" y="0" type="line"/>
			<point x="299" y="348" type="line"/>
			<point x="590" y="700" type="line"/>
			<point x="547" y="700" type="line"/>
			<point x="270" y="363" type="line"/>
			<point x="151" y="363" type="line"/>
			<point x="223" y="700" type="line"/>
			<point x="188" y="700" type="line"/>
			<point x="39" y="0" type="line"/>
			<point x="74" y="0" type="line"/>
		</contour>
	</outline>
</glyph>
<glyph name="L" format="2">
	<advance width="445"/>
	<unicode hex="004C"/>
	<note>
		L
	</note>
	<outline>
		<contour>
			<point x="188" y="700" type="line"/>
			<point x="39" y="0" type="line"/>
			<point x="385" y="0" type="line"/>
			<point x="392" y="34" type="line"/>
			<point x="81" y="34" type="line"/>
			<point x="223" y="700" type="line"/>
		</contour>
	</outline>
</glyph>
<glyph name="M" format="2">
	<advance width="795"/>
	<unicode hex="004D"/>
	<note>
		M
	</note>
	<outline>
		<contour>
			<point x="275" y="700" type="line"/>
			<point x="188" y="700" type="line"/>
			<point x="39" y="0" type="line"/>
			<point x="74" y="0" type="line"/>
			<point x="215" y="666" type="line"/>
			<point x="245" y="666" type="line"/>
			<point x="323" y="0" type="line"/>
			<point x="368" y="0" type="line"/>
			<point x="727" y="666" type="line"/>
			<point x="757" y="666" type="line"/>
			<point x="615" y="0" type="line"/>
			<point x="650" y="0" type="line"/>
			<point x="799" y="700" type="line"/>
			<point x="708" y="700" type="line"/>
			<point x="352" y="37" type="line"/>
		</contour>
	</outline>
</glyph>
<glyph name="N" format="2">
	<advance width="632"/>
	<unicode hex="004E"/>
	<note>
		N
	</note>
	<outline>
		<contour>
			<point x="273" y="700" type="line"/>
			<point x="188" y="700" type="line"/>
			<point x="40" y="0" type="line"/>
			<point x="75" y="0" type="line"/>
			<point x="216" y="666" type="line"/>
			<point x="246" y="666" type="line"/>
			<point x="402" y="0" type="line"/>
			<point x="487" y="0" type="line"/>
			<point x="637" y="700" type="line"/>
			<point x="602" y="700" type="line"/>
			<point x="459" y="34" type="line"/>
			<point x="429" y="34" type="line"/>
		</contour>
	</outline>
</glyph>
<glyph name="P" format="2">
	<advance width="566"/>
	<unicode hex="0050"/>
	<note>
		P
	</note>
	<outline>
		<contour>
			<point x="74" y="0" type="line"/>
			<point x="128" y="257" type="line"/>
			<point x="322" y="257" type="line" smooth="yes"/>
			<point x="501" y="257"/>
			<point x="582" y="400"/>
			<point x="582" y="551" type="curve" smooth="yes"/>
			<point x="582" y="651"/>
			<point x="519" y="700"/>
			<point x="412" y="700" type="curve" smooth="yes"/>
			<point x="188" y="700" type="line"/>
			<point x="39" y="0" type="line"/>
		</contour>
		<contour>
			<point x="326" y="291" type="curve" smooth="yes"/>
			<point x="136" y="291" type="line"/>
			<point x="215" y="666" type="line"/>
			<point x="407" y="666" type="line" smooth="yes"/>
			<point x="504" y="666"/>
			<point x="544" y="624"/>
			<point x="544" y="541" type="curve" smooth="yes"/>
			<point x="544" y="433"/>
			<point x="484" y="291"/>
		</contour>
	</outline>
</glyph>
<glyph name="Q" format="2">
	<advance width="646"/>
	<unicode hex="0051"/>
	<note>
		Q
	</note>
	<outline>
		<contour>
			<point x="277" y="-8" type="curve" smooth="yes"/>
			<point x="310" y="-8"/>
			<point x="341" y="-5"/>
			<point x="379" y="6" type="curve"/>
			<point x="433" y="-116" type="line"/>
			<point x="468" y="-99" type="line"/>
			<point x="413" y="25" type="line"/>
			<point x="560" y="97"/>
			<point x="622" y="309"/>
			<point x="622" y="495" type="curve" smooth="yes"/>
			<point x="622" y="666"/>
			<point x="533" y="707"/>
			<point x="411" y="707" type="curve" smooth="yes"/>
			<point x="164" y="707"/>
			<point x="68" y="435"/>
			<point x="68" y="208" type="curve" smooth="yes"/>
			<point x="68" y="48"/>
			<point x="145" y="-8"/>
		</contour>
		<contour>
			<point x="280" y="27" type="curve" smooth="yes"/>
			<point x="188" y="27"/>
			<point x="105" y="62"/>
			<point x="105" y="194" type="curve" smooth="yes"/>
			<point x="105" y="365"/>
			<point x="173" y="673"/>
			<point x="408" y="673" type="curve" smooth="yes"/>
			<point x="511" y="673"/>
			<point x="586" y="639"/>
			<point x="586" y="505" type="curve" smooth="yes"/>
			<point x="586" y="307"/>
			<point x="514" y="27"/>
		</contour>
	</outline>
</glyph>
<glyph name="T" format="2">
  <advance width="515"/>
  <unicode hex="0054"/>
  <note>
T
</note>
  <outline>
    <contour>
      <point x="601" y="700" type="line"/>
      <point x="106" y="700" type="line"/>
      <point x="98" y="666" type="line"/>
      <point x="328" y="666" type="line"/>
      <point x="187" y="0" type="line"/>
      <point x="222" y="0" type="line"/>
      <point x="363" y="666" type="line"/>
      <point x="593" y="666" type="line"/>
    </contour>
  </outline>
</glyph>
<glyph name="U" format="2">
	<advance width="615"/>
	<unicode hex="0055"/>
	<note>
		U
	</note>
	<outline>
		<contour>
			<point x="111" y="196" type="curve" smooth="yes"/>
			<point x="219" y="700" type="line"/>
			<point x="184" y="700" type="line"/>
			<point x="76" y="196" type="line" smooth="yes"/>
			<point x="45" y="51"/>
			<point x="130" y="-10"/>
			<point x="272" y="-10" type="curve" smooth="yes"/>
			<point x="415" y="-10"/>
			<point x="483" y="41"/>
			<point x="516" y="196" type="curve" smooth="yes"/>
			<point x="624" y="700" type="line"/>
			<point x="589" y="700" type="line"/>
			<point x="481" y="196" type="line" smooth="yes"/>
			<point x="454" y="69"/>
			<point x="393" y="24"/>
			<point x="271" y="24" type="curve" smooth="yes"/>
			<point x="146" y="24"/>
			<point x="84" y="70"/>
		</contour>
	</outline>
</glyph>
<glyph name="V" format="2">
	<advance width="549"/>
	<unicode hex="0056"/>
	<note>
		V
	</note>
	<outline>
		<contour>
			<point x="264" y="0" type="line"/>
			<point x="612" y="700" type="line"/>
			<point x="576" y="700" type="line"/>
			<point x="244" y="34" type="line"/>
			<point x="214" y="34" type="line"/>
			<point x="158" y="700" type="line"/>
			<point x="124" y="700" type="line"/>
			<point x="183" y="0" type="line"/>
		</contour>
	</outline>
</glyph>
<glyph name="X" format="2">
  <advance width="556"/>
  <unicode hex="0058"/>
  <note>
X
</note>
  <outline>
    <contour>
      <point x="281" y="356" type="line"/>
      <point x="-31" y="0" type="line"/>
      <point x="11" y="0" type="line"/>
      <point x="294" y="325" type="line"/>
      <point x="441" y="0" type="line"/>
      <point x="478" y="0" type="line"/>
      <point x="320" y="348" type="line"/>
      <point x="625" y="700" type="line"/>
      <point x="584" y="700" type="line"/>
      <point x="306" y="379" type="line"/>
      <point x="166" y="700" type="line"/>
      <point x="129" y="700" type="line"/>
    </contour>
  </outline>
</glyph>
<glyph name="Y" format="2">
  <advance width="521"/>
  <unicode hex="0059"/>
  <note>
Y
</note>
  <outline>
    <contour>
      <point x="253" y="301" type="line"/>
      <point x="189" y="0" type="line"/>
      <point x="224" y="0" type="line"/>
      <point x="287" y="297" type="line"/>
      <point x="594" y="700" type="line"/>
      <point x="553" y="700" type="line"/>
      <point x="275" y="334" type="line"/>
      <point x="159" y="700" type="line"/>
      <point x="123" y="700" type="line"/>
    </contour>
  </outline>
</glyph>
<glyph name="Z" format="2">
	<advance width="512"/>
	<unicode hex="005A"/>
	<note>
		Z
	</note>
	<outline>
		<contour>
			<point x="559" y="700" type="line"/>
			<point x="139" y="700" type="line"/>
			<point x="131" y="666" type="line"/>
			<point x="514" y="666" type="line"/>
			<point x="509" y="641" type="line"/>
			<point x="2" y="69" type="line"/>
			<point x="-12" y="-1" type="line"/>
			<point x="425" y="-1" type="line"/>
			<point x="432" y="33" type="line"/>
			<point x="32" y="33" type="line"/>
			<point x="37" y="58" type="line"/>
			<point x="544" y="631" type="line"/>
		</contour>
	</outline>
</glyph>
<glyph name="bracketleft" format="2">
	<advance width="299"/>
	<unicode hex="005B"/>
	<note>
		bracketleft
	</note>
	<outline>
		<contour>
			<point x="223" y="716" type="line"/>
			<point x="370" y="716" type="line"/>
			<point x="377" y="748" type="line"/>
			<point x="195" y="748" type="line"/>
			<point x="9" y="-123" type="line"/>
			<point x="191" y="-123" type="line"/>
			<point x="198" y="-91" type="line"/>
			<point x="51" y="-91" type="line"/>
		</contour>
	</outline>
</glyph>
<glyph name="backslash" format="2">
	<advance width="639"/>
	<unicode hex="005C"/>
	<note>
		backslash
	</note>
	<outline>
		<contour>
			<point x="576" y="8" type="line"/>
			<point x="133" y="710" type="line"/>
			<point x="106" y="692" type="line"/>
			<point x="549" y="-10" type="line"/>
		</contour>
	</outline>
</glyph>
<glyph name="bracketright" format="2">
  <advance width="300"/>
  <unicode hex="005D"/>
  <note>
bracketright
</note>
  <outline>
    <contour>
      <point x="103" y="-91" type="line"/>
      <point x="-44" y="-91" type="line"/>
      <point x="-51" y="-123" type="line"/>
      <point x="131" y="-123" type="line"/>
      <point x="317" y="748" type="line"/>
      <point x="135" y="748" type="line"/>
      <point x="128" y="716" type="line"/>
      <point x="275" y="716" type="line"/>
    </contour>
  </outline>
</glyph>
<glyph name="asciicircum" format="2">
  <advance width="560"/>
  <unicode hex="005E"/>
  <note>
asciicircum
</note>
  <outline>
    <contour>
      <point x="138" y="323" type="line"/>
      <point x="360" y="624" type="line"/>
      <point x="463" y="323" type="line"/>
      <point x="500" y="323" type="line"/>
      <point x="383" y="660" type="line"/>
      <point x="347" y="660" type="line"/>
      <point x="95" y="323" type="line"/>
    </contour>
  </outline>
</glyph>
<glyph name="underscore" format="2">
  <advance width="516"/>
  <unicode hex="005F"/>
  <note>
underscore
</note>
  <outline>
    <contour>
      <point x="414" y="-42" type="line"/>
      <point x="-16" y="-42" type="line"/>
      <point x="-23" y="-76" type="line"/>
      <point x="407" y="-76" type="line"/>
    </contour>
  </outline>
</glyph>
<glyph name="grave" format="2">
  <advance width="306"/>
  <unicode hex="0060"/>
  <note>
grave
</note>
  <outline>
    <contour>
      <point x="270" y="609" type="line"/>
      <point x="286" y="636" type="line"/>
      <point x="115" y="732" type="line"/>
      <point x="96" y="701" type="line"/>
    </contour>
  </outline>
</glyph>
<glyph name="b" format="2">
  <advance width="487"/>
  <unicode hex="0062"/>
  <note>
b
</note>
  <outline>
    <contour>
      <point x="330" y="509" type="curve" smooth="yes"/>
      <point x="235" y="509"/>
      <point x="150" y="417"/>
      <point x="150" y="417" type="curve"/>
      <point x="217" y="730" type="line"/>
      <point x="182" y="730" type="line"/>
      <point x="29" y="10" type="line"/>
      <point x="29" y="10"/>
      <point x="138" y="-10"/>
      <point x="201" y="-10" type="curve" smooth="yes"/>
      <point x="388" y="-10"/>
      <point x="448" y="253"/>
      <point x="448" y="353" type="curve" smooth="yes"/>
      <point x="448" y="451"/>
      <point x="412" y="509"/>
    </contour>
    <contour>
      <point x="202" y="22" type="curve" smooth="yes"/>
      <point x="136" y="22"/>
      <point x="70" y="37"/>
      <point x="70" y="37" type="curve"/>
      <point x="140" y="367" type="line"/>
      <point x="140" y="367"/>
      <point x="227" y="476"/>
      <point x="325" y="476" type="curve" smooth="yes"/>
      <point x="388" y="476"/>
      <point x="412" y="430"/>
      <point x="412" y="353" type="curve" smooth="yes"/>
      <point x="412" y="272"/>
      <point x="362" y="22"/>
    </contour>
  </outline>
</glyph>
<glyph name="c" format="2">
  <advance width="401"/>
  <unicode hex="0063"/>
  <note>
c
</note>
  <outline>
    <contour>
      <point x="295" y="509" type="curve" smooth="yes"/>
      <point x="129" y="509"/>
      <point x="40" y="290"/>
      <point x="40" y="148" type="curve" smooth="yes"/>
      <point x="40" y="30"/>
      <point x="89" y="-10"/>
      <point x="162" y="-10" type="curve" smooth="yes"/>
      <point x="251" y="-10"/>
      <point x="313" y="10"/>
      <point x="313" y="10" type="curve"/>
      <point x="313" y="42" type="line"/>
      <point x="313" y="42"/>
      <point x="234" y="22"/>
      <point x="169" y="22" type="curve" smooth="yes"/>
      <point x="109" y="22"/>
      <point x="76" y="52"/>
      <point x="76" y="145" type="curve" smooth="yes"/>
      <point x="76" y="278"/>
      <point x="153" y="477"/>
      <point x="294" y="477" type="curve" smooth="yes"/>
      <point x="347" y="477"/>
      <point x="404" y="466"/>
      <point x="404" y="466" type="curve"/>
      <point x="413" y="497" type="line"/>
      <point x="413" y="497"/>
      <point x="347" y="509"/>
    </contour>
  </outline>
</glyph>
<glyph name="e" format="2">
	<advance width="456"/>
	<unicode hex="0065"/>
	<note>
		e
	</note>
	<outline>
		<contour>
			<point x="200" y="22" type="curve" smooth="yes"/>
			<point x="116" y="22"/>
			<point x="80" y="67"/>
			<point x="80" y="145" type="curve" smooth="yes"/>
			<point x="80" y="170"/>
			<point x="81" y="216"/>
			<point x="89" y="252" type="curve"/>
			<point x="158" y="251" type="line" smooth="yes"/>
			<point x="342" y="248"/>
			<point x="440" y="283"/>
			<point x="440" y="401" type="curve" smooth="yes"/>
			<point x="440" y="473"/>
			<point x="384" y="510"/>
			<point x="303" y="510" type="curve" smooth="yes"/>
			<point x="123" y="510"/>
			<point x="44" y="316"/>
			<point x="44" y="163" type="curve" smooth="yes"/>
			<point x="44" y="36"/>
			<point x="98" y="-10"/>
			<point x="196" y="-10" type="curve" smooth="yes"/>
			<point x="275" y="-10"/>
			<point x="355" y="21"/>
			<point x="355" y="21" type="curve"/>
			<point x="355" y="54" type="line"/>
			<point x="355" y="54"/>
			<point x="273" y="22"/>
		</contour>
		<contour>
			<point x="167" y="282" type="curve" smooth="yes"/>
			<point x="96" y="282" type="line"/>
			<point x="129" y="401"/>
			<point x="194" y="478"/>
			<point x="303" y="478" type="curve" smooth="yes"/>
			<point x="367" y="478"/>
			<point x="404" y="452"/>
			<point x="404" y="400" type="curve" smooth="yes"/>
			<point x="404" y="302"/>
			<point x="322" y="282"/>
		</contour>
	</outline>
</glyph>
<glyph name="i" format="2">
	<advance width="195"/>
	<unicode hex="0069"/>
	<note>
		i
	</note>
	<outline>
		<contour>
			<point x="212" y="700" type="line"/>
			<point x="173" y="700" type="line"/>
			<point x="157" y="625" type="line"/>
			<point x="196" y="625" type="line"/>
		</contour>
		<contour>
			<point x="169" y="500" type="line"/>
			<point x="134" y="500" type="line"/>
			<point x="27" y="0" type="line"/>
			<point x="62" y="0" type="line"/>
		</contour>
	</outline>
</glyph>
<glyph name="j" format="2">
	<advance width="195"/>
	<unicode hex="006A"/>
	<note>
		j
	</note>
	<outline>
		<contour>
			<point x="213" y="700" type="line"/>
			<point x="174" y="700" type="line"/>
			<point x="158" y="625" type="line"/>
			<point x="197" y="625" type="line"/>
		</contour>
		<contour>
			<point x="169" y="500" type="line"/>
			<point x="134" y="500" type="line"/>
			<point x="17" y="-46" type="line" smooth="yes"/>
			<point x="-5" y="-150"/>
			<point x="-28" y="-147"/>
			<point x="-155" y="-211" type="curve"/>
			<point x="-144" y="-240" type="line"/>
			<point x="7" y="-170"/>
			<point x="28" y="-159"/>
			<point x="52" y="-47" type="curve" smooth="yes"/>
		</contour>
	</outline>
</glyph>
<glyph name="k" format="2">
	<advance width="431"/>
	<unicode hex="006B"/>
	<note>
		k
	</note>
	<outline>
		<contour>
			<point x="183" y="730" type="line"/>
			<point x="27" y="0" type="line"/>
			<point x="62" y="0" type="line"/>
			<point x="116" y="257" type="line"/>
			<point x="217" y="257" type="line"/>
			<point x="323" y="0" type="line"/>
			<point x="360" y="0" type="line"/>
			<point x="246" y="274" type="line"/>
			<point x="454" y="500" type="line"/>
			<point x="409" y="500" type="line"/>
			<point x="217" y="289" type="line"/>
			<point x="123" y="289" type="line"/>
			<point x="218" y="730" type="line"/>
		</contour>
	</outline>
</glyph>
<glyph name="n" format="2">
	<advance width="499"/>
	<unicode hex="006E"/>
	<note>
		n
	</note>
	<outline>
		<contour>
			<point x="134" y="500" type="line"/>
			<point x="27" y="0" type="line"/>
			<point x="62" y="0" type="line"/>
			<point x="133" y="330" type="line"/>
			<point x="133" y="330"/>
			<point x="232" y="477"/>
			<point x="331" y="477" type="curve" smooth="yes"/>
			<point x="377" y="477"/>
			<point x="410" y="444"/>
			<point x="410" y="383" type="curve" smooth="yes"/>
			<point x="410" y="348"/>
			<point x="399" y="295"/>
			<point x="391" y="258" type="curve" smooth="yes"/>
			<point x="337" y="0" type="line"/>
			<point x="372" y="0" type="line"/>
			<point x="426" y="260" type="line" smooth="yes"/>
			<point x="434" y="300"/>
			<point x="445" y="347"/>
			<point x="445" y="386" type="curve" smooth="yes"/>
			<point x="445" y="465"/>
			<point x="399" y="510"/>
			<point x="335" y="510" type="curve" smooth="yes"/>
			<point x="232" y="510"/>
			<point x="143" y="386"/>
			<point x="143" y="386" type="curve"/>
			<point x="167" y="500" type="line"/>
		</contour>
	</outline>
</glyph>
<glyph name="p" format="2">
  <advance width="490"/>
  <unicode hex="0070"/>
  <note>
p
</note>
  <outline>
    <contour>
      <point x="168" y="500" type="line"/>
      <point x="134" y="500" type="line"/>
      <point x="-22" y="-230" type="line"/>
      <point x="13" y="-230" type="line"/>
      <point x="63" y="7" type="line"/>
      <point x="63" y="7"/>
      <point x="135" y="-9"/>
      <point x="204" y="-9" type="curve" smooth="yes"/>
      <point x="355" y="-9"/>
      <point x="451" y="202"/>
      <point x="451" y="362" type="curve" smooth="yes"/>
      <point x="451" y="448"/>
      <point x="416" y="510"/>
      <point x="334" y="510" type="curve" smooth="yes"/>
      <point x="230" y="510"/>
      <point x="140" y="376"/>
      <point x="140" y="376" type="curve"/>
    </contour>
    <contour>
      <point x="333" y="477" type="curve" smooth="yes"/>
      <point x="387" y="477"/>
      <point x="415" y="432"/>
      <point x="415" y="364" type="curve" smooth="yes"/>
      <point x="415" y="229"/>
      <point x="338" y="23"/>
      <point x="204" y="23" type="curve" smooth="yes"/>
      <point x="138" y="23"/>
      <point x="70" y="38"/>
      <point x="70" y="38" type="curve"/>
      <point x="130" y="319" type="line"/>
      <point x="130" y="319"/>
      <point x="236" y="477"/>
    </contour>
  </outline>
</glyph>
<glyph name="q" format="2">
  <advance width="487"/>
  <unicode hex="0071"/>
  <note>
q
</note>
  <outline>
    <contour>
      <point x="158" y="-10" type="curve" smooth="yes"/>
      <point x="251" y="-10"/>
      <point x="338" y="83"/>
      <point x="338" y="83" type="curve"/>
      <point x="271" y="-230" type="line"/>
      <point x="306" y="-230" type="line"/>
      <point x="459" y="490" type="line"/>
      <point x="459" y="490"/>
      <point x="351" y="510"/>
      <point x="282" y="510" type="curve" smooth="yes"/>
      <point x="123" y="510"/>
      <point x="40" y="291"/>
      <point x="40" y="140" type="curve" smooth="yes"/>
      <point x="40" y="49"/>
      <point x="78" y="-10"/>
    </contour>
    <contour>
      <point x="283" y="478" type="curve" smooth="yes"/>
      <point x="351" y="478"/>
      <point x="418" y="463"/>
      <point x="418" y="463" type="curve"/>
      <point x="348" y="133" type="line"/>
      <point x="348" y="133"/>
      <point x="260" y="23"/>
      <point x="164" y="23" type="curve" smooth="yes"/>
      <point x="103" y="23"/>
      <point x="76" y="67"/>
      <point x="76" y="142" type="curve" smooth="yes"/>
      <point x="76" y="276"/>
      <point x="148" y="478"/>
    </contour>
  </outline>
</glyph>
<glyph name="v" format="2">
  <advance width="453"/>
  <unicode hex="0076"/>
  <note>
v
</note>
  <outline>
    <contour>
      <point x="164" y="32" type="line"/>
      <point x="121" y="500" type="line"/>
      <point x="88" y="500" type="line"/>
      <point x="134" y="0" type="line"/>
      <point x="203" y="0" type="line"/>
      <point x="481" y="500" type="line"/>
      <point x="444" y="500" type="line"/>
      <point x="184" y="32" type="line"/>
    </contour>
  </outline>
</glyph>
<glyph name="w" format="2">
  <advance width="711"/>
  <unicode hex="0077"/>
  <note>
w
</note>
  <outline>
    <contour>
      <point x="136" y="32" type="line"/>
      <point x="126" y="500" type="line"/>
      <point x="93" y="500" type="line"/>
      <point x="104" y="0" type="line"/>
      <point x="175" y="0" type="line"/>
      <point x="400" y="448" type="line"/>
      <point x="420" y="0" type="line"/>
      <point x="491" y="0" type="line"/>
      <point x="734" y="500" type="line"/>
      <point x="699" y="500" type="line"/>
      <point x="471" y="32" type="line"/>
      <point x="451" y="32" type="line"/>
      <point x="430" y="490" type="line"/>
      <point x="387" y="490" type="line"/>
      <point x="156" y="32" type="line"/>
    </contour>
  </outline>
</glyph>
<glyph name="x" format="2">
	<advance width="412"/>
	<unicode hex="0078"/>
	<note>
		x
	</note>
	<outline>
		<contour>
			<point x="187" y="255" type="line"/>
			<point x="-30" y="0" type="line"/>
			<point x="15" y="0" type="line"/>
			<point x="202" y="223" type="line"/>
			<point x="290" y="0" type="line"/>
			<point x="327" y="0" type="line"/>
			<point x="227" y="245" type="line"/>
			<point x="437" y="500" type="line"/>
			<point x="392" y="500" type="line"/>
			<point x="213" y="277" type="line"/>
			<point x="129" y="500" type="line"/>
			<point x="92" y="500" type="line"/>
		</contour>
	</outline>
</glyph>
<glyph name="y" format="2">
  <advance width="453"/>
  <unicode hex="0079"/>
  <note>
y
</note>
  <outline>
    <contour>
      <point x="164" y="32" type="line"/>
      <point x="123" y="500" type="line"/>
      <point x="87" y="500" type="line"/>
      <point x="133" y="0" type="line"/>
      <point x="165" y="0" type="line"/>
      <point x="39" y="-230" type="line"/>
      <point x="78" y="-230" type="line"/>
      <point x="481" y="500" type="line"/>
      <point x="443" y="500" type="line"/>
      <point x="184" y="32" type="line"/>
    </contour>
  </outline>
</glyph>
<glyph name="z" format="2">
  <advance width="429"/>
  <unicode hex="007A"/>
  <note>
z
</note>
  <outline>
    <contour>
      <point x="439" y="500" type="line"/>
      <point x="105" y="500" type="line"/>
      <point x="98" y="468" type="line"/>
      <point x="397" y="468" type="line"/>
      <point x="394" y="453" type="line"/>
      <point x="-6" y="60" type="line"/>
      <point x="-18" y="0" type="line"/>
      <point x="339" y="0" type="line"/>
      <point x="346" y="32" type="line"/>
      <point x="24" y="32" type="line"/>
      <point x="27" y="47" type="line"/>
      <point x="427" y="440" type="line"/>
    </contour>
  </outline>
</glyph>
<glyph name="braceleft" format="2">
	<advance width="338"/>
	<unicode hex="007B"/>
	<note>
		braceleft
	</note>
	<outline>
		<contour>
			<point x="157" y="169" type="curve" smooth="yes"/>
			<point x="179" y="253"/>
			<point x="156" y="287"/>
			<point x="88" y="311" type="curve"/>
			<point x="166" y="335"/>
			<point x="200" y="367"/>
			<point x="218" y="455" type="curve" smooth="yes"/>
			<point x="225" y="488"/>
			<point x="230" y="545"/>
			<point x="237" y="578" type="curve" smooth="yes"/>
			<point x="257" y="668"/>
			<point x="295" y="717"/>
			<point x="410" y="722" type="curve"/>
			<point x="415" y="754" type="line"/>
			<point x="288" y="749"/>
			<point x="228" y="697"/>
			<point x="202" y="578" type="curve" smooth="yes"/>
			<point x="195" y="541"/>
			<point x="188" y="478"/>
			<point x="181" y="446" type="curve" smooth="yes"/>
			<point x="168" y="381"/>
			<point x="133" y="345"/>
			<point x="52" y="326" type="curve"/>
			<point x="45" y="294" type="line"/>
			<point x="116" y="272"/>
			<point x="138" y="240"/>
			<point x="124" y="176" type="curve" smooth="yes"/>
			<point x="118" y="147"/>
			<point x="98" y="94"/>
			<point x="90" y="55" type="curve" smooth="yes"/>
			<point x="65" y="-64"/>
			<point x="102" y="-124"/>
			<point x="227" y="-129" type="curve"/>
			<point x="236" y="-97" type="line"/>
			<point x="123" y="-92"/>
			<point x="106" y="-39"/>
			<point x="125" y="49" type="curve" smooth="yes"/>
			<point x="133" y="88"/>
			<point x="146" y="126"/>
		</contour>
	</outline>
</glyph>
<glyph name="bar" format="2">
	<advance width="219"/>
	<unicode hex="007C"/>
	<note>
		bar
	</note>
	<outline>
		<contour>
			<point x="229" y="730" type="line"/>
			<point x="194" y="730" type="line"/>
			<point x="-10" y="-230" type="line"/>
			<point x="25" y="-230" type="line"/>
		</contour>
	</outline>
</glyph>
<glyph name="braceright" format="2">
	<advance width="339"/>
	<unicode hex="007D"/>
	<note>
		braceright
	</note>
	<outline>
		<contour>
			<point x="208" y="456" type="curve" smooth="yes"/>
			<point x="186" y="372"/>
			<point x="209" y="338"/>
			<point x="277" y="314" type="curve"/>
			<point x="199" y="290"/>
			<point x="165" y="258"/>
			<point x="147" y="170" type="curve" smooth="yes"/>
			<point x="140" y="137"/>
			<point x="135" y="80"/>
			<point x="128" y="47" type="curve" smooth="yes"/>
			<point x="108" y="-43"/>
			<point x="70" y="-92"/>
			<point x="-45" y="-97" type="curve"/>
			<point x="-50" y="-129" type="line"/>
			<point x="77" y="-124"/>
			<point x="137" y="-72"/>
			<point x="163" y="47" type="curve" smooth="yes"/>
			<point x="170" y="84"/>
			<point x="177" y="147"/>
			<point x="184" y="179" type="curve" smooth="yes"/>
			<point x="197" y="244"/>
			<point x="232" y="280"/>
			<point x="313" y="299" type="curve"/>
			<point x="320" y="331" type="line"/>
			<point x="249" y="353"/>
			<point x="227" y="385"/>
			<point x="241" y="449" type="curve" smooth="yes"/>
			<point x="247" y="478"/>
			<point x="267" y="531"/>
			<point x="275" y="570" type="curve" smooth="yes"/>
			<point x="300" y="689"/>
			<point x="263" y="749"/>
			<point x="138" y="754" type="curve"/>
			<point x="129" y="722" type="line"/>
			<point x="242" y="717"/>
			<point x="259" y="664"/>
			<point x="240" y="576" type="curve" smooth="yes"/>
			<point x="232" y="537"/>
			<point x="219" y="499"/>
		</contour>
	</outline>
</glyph>
<glyph name="asciitilde" format="2">
  <advance width="560"/>
  <unicode hex="007E"/>
  <note>
asciitilde
</note>
  <outline>
    <contour>
      <point x="507" y="297" type="curve"/>
      <point x="496" y="323" type="line"/>
      <point x="496" y="323"/>
      <point x="419" y="271"/>
      <point x="383" y="271" type="curve" smooth="yes"/>
      <point x="339" y="271"/>
      <point x="258" y="344"/>
      <point x="201" y="344" type="curve" smooth="yes"/>
      <point x="151" y="344"/>
      <point x="71" y="284"/>
      <point x="71" y="284" type="curve"/>
      <point x="82" y="258" type="line"/>
      <point x="82" y="258"/>
      <point x="159" y="310"/>
      <point x="195" y="310" type="curve" smooth="yes"/>
      <point x="239" y="310"/>
      <point x="320" y="237"/>
      <point x="377" y="237" type="curve" smooth="yes"/>
      <point x="427" y="237"/>
      <point x="507" y="297"/>
    </contour>
  </outline>
</glyph>
<glyph name="exclamdown" format="2">
  <advance width="197"/>
  <unicode hex="00A1"/>
  <note>
exclamdown
</note>
  <outline>
    <contour>
      <point x="112" y="420" type="line"/>
      <point x="152" y="420" type="line"/>
      <point x="169" y="500" type="line"/>
      <point x="129" y="500" type="line"/>
    </contour>
    <contour>
      <point x="-13" y="-200" type="line"/>
      <point x="21" y="-200" type="line"/>
      <point x="124" y="286" type="line"/>
      <point x="90" y="286" type="line"/>
    </contour>
  </outline>
</glyph>
<glyph name="cent" format="2">
  <advance width="437"/>
  <unicode hex="00A2"/>
  <note>
cent
</note>
  <outline>
    <contour>
      <point x="201" y="85" type="curve"/>
      <point x="176" y="-31" type="line"/>
      <point x="211" y="-31" type="line"/>
      <point x="236" y="85" type="line"/>
      <point x="279" y="86"/>
      <point x="355" y="94"/>
      <point x="355" y="94" type="curve"/>
      <point x="360" y="129" type="line"/>
      <point x="360" y="129"/>
      <point x="286" y="121"/>
      <point x="228" y="121" type="curve" smooth="yes"/>
      <point x="135" y="121"/>
      <point x="99" y="143"/>
      <point x="99" y="210" type="curve" smooth="yes"/>
      <point x="99" y="280"/>
      <point x="126" y="469"/>
      <point x="280" y="469" type="curve" smooth="yes"/>
      <point x="338" y="469"/>
      <point x="409" y="459"/>
      <point x="409" y="459" type="curve"/>
      <point x="418" y="492" type="line"/>
      <point x="418" y="492"/>
      <point x="357" y="504"/>
      <point x="312" y="504" type="curve"/>
      <point x="338" y="625" type="line"/>
      <point x="303" y="625" type="line"/>
      <point x="277" y="505" type="line"/>
      <point x="116" y="499"/>
      <point x="58" y="332"/>
      <point x="58" y="210" type="curve" smooth="yes"/>
      <point x="58" y="122"/>
      <point x="106" y="88"/>
    </contour>
  </outline>
</glyph>
<glyph name="sterling" format="2">
	<advance width="466"/>
	<unicode hex="00A3"/>
	<note>
		sterling
	</note>
	<outline>
		<contour>
			<point x="471" y="626" type="curve"/>
			<point x="478" y="658" type="line"/>
			<point x="478" y="658"/>
			<point x="398" y="670"/>
			<point x="360" y="670" type="curve" smooth="yes"/>
			<point x="259" y="670"/>
			<point x="215" y="632"/>
			<point x="186" y="497" type="curve" smooth="yes"/>
			<point x="167" y="406" type="line"/>
			<point x="98" y="406" type="line"/>
			<point x="91" y="374" type="line"/>
			<point x="160" y="374" type="line"/>
			<point x="88" y="34" type="line"/>
			<point x="-4" y="34" type="line"/>
			<point x="-11" y="0" type="line"/>
			<point x="297" y="0" type="line"/>
			<point x="383" y="18" type="line"/>
			<point x="382" y="50" type="line"/>
			<point x="297" y="34" type="line"/>
			<point x="123" y="34" type="line"/>
			<point x="195" y="374" type="line"/>
			<point x="377" y="374" type="line"/>
			<point x="384" y="406" type="line"/>
			<point x="202" y="406" type="line"/>
			<point x="213" y="455" type="line" smooth="yes"/>
			<point x="244" y="604"/>
			<point x="271" y="638"/>
			<point x="353" y="638" type="curve" smooth="yes"/>
			<point x="386" y="638"/>
			<point x="471" y="626"/>
		</contour>
	</outline>
</glyph>
<glyph name="currency" format="2">
	<advance width="526"/>
	<unicode hex="00A4"/>
	<note>
		currency
	</note>
	<outline>
		<contour>
			<point x="354" y="160" type="curve"/>
			<point x="407" y="90" type="line"/>
			<point x="436" y="113" type="line"/>
			<point x="381" y="182" type="line"/>
			<point x="421" y="221"/>
			<point x="446" y="276"/>
			<point x="446" y="329" type="curve" smooth="yes"/>
			<point x="446" y="354"/>
			<point x="440" y="376"/>
			<point x="428" y="396" type="curve"/>
			<point x="514" y="466" type="line"/>
			<point x="491" y="495" type="line"/>
			<point x="406" y="424" type="line"/>
			<point x="382" y="448"/>
			<point x="348" y="461"/>
			<point x="308" y="461" type="curve" smooth="yes"/>
			<point x="267" y="461"/>
			<point x="226" y="446"/>
			<point x="192" y="422" type="curve"/>
			<point x="137" y="493" type="line"/>
			<point x="108" y="470" type="line"/>
			<point x="164" y="400" type="line"/>
			<point x="123" y="360"/>
			<point x="98" y="304"/>
			<point x="98" y="253" type="curve" smooth="yes"/>
			<point x="98" y="228"/>
			<point x="104" y="206"/>
			<point x="116" y="186" type="curve"/>
			<point x="30" y="116" type="line"/>
			<point x="52" y="87" type="line"/>
			<point x="138" y="158" type="line"/>
			<point x="161" y="134"/>
			<point x="194" y="121"/>
			<point x="235" y="121" type="curve" smooth="yes"/>
			<point x="275" y="121"/>
			<point x="319" y="136"/>
		</contour>
		<contour>
			<point x="243" y="157" type="curve" smooth="yes"/>
			<point x="180" y="157"/>
			<point x="135" y="203"/>
			<point x="135" y="263" type="curve" smooth="yes"/>
			<point x="135" y="348"/>
			<point x="218" y="425"/>
			<point x="300" y="425" type="curve" smooth="yes"/>
			<point x="364" y="425"/>
			<point x="409" y="378"/>
			<point x="409" y="317" type="curve" smooth="yes"/>
			<point x="409" y="233"/>
			<point x="325" y="157"/>
		</contour>
	</outline>
</glyph>
<glyph name="yen" format="2">
	<advance width="563"/>
	<unicode hex="00A5"/>
	<note>
		yen
	</note>
	<outline>
		<contour>
			<point x="208" y="0" type="line"/>
			<point x="244" y="0" type="line"/>
			<point x="276" y="148" type="line"/>
			<point x="455" y="148" type="line"/>
			<point x="462" y="180" type="line"/>
			<point x="282" y="180" type="line"/>
			<point x="303" y="278" type="line"/>
			<point x="483" y="278" type="line"/>
			<point x="490" y="310" type="line"/>
			<point x="328" y="310" type="line"/>
			<point x="612" y="660" type="line"/>
			<point x="570" y="660" type="line"/>
			<point x="291" y="317" type="line"/>
			<point x="158" y="660" type="line"/>
			<point x="120" y="660" type="line"/>
			<point x="257" y="310" type="line"/>
			<point x="94" y="310" type="line"/>
			<point x="87" y="278" type="line"/>
			<point x="267" y="278" type="line"/>
			<point x="246" y="180" type="line"/>
			<point x="66" y="180" type="line"/>
			<point x="59" y="148" type="line"/>
			<point x="240" y="148" type="line"/>
		</contour>
	</outline>
</glyph>
<glyph name="brokenbar" format="2">
  <advance width="219"/>
  <unicode hex="00A6"/>
  <note>
brokenbar
</note>
  <outline>
    <contour>
      <point x="230" y="730" type="line"/>
      <point x="195" y="730" type="line"/>
      <point x="116" y="360" type="line"/>
      <point x="151" y="360" type="line"/>
    </contour>
    <contour>
      <point x="105" y="140" type="line"/>
      <point x="70" y="140" type="line"/>
      <point x="-9" y="-230" type="line"/>
      <point x="26" y="-230" type="line"/>
    </contour>
  </outline>
</glyph>
<glyph name="section" format="2">
  <advance width="466"/>
  <unicode hex="00A7"/>
  <note>
section
</note>
  <outline>
    <contour>
      <point x="481" y="665" type="curve"/>
      <point x="490" y="697" type="line"/>
      <point x="490" y="697"/>
      <point x="400" y="710"/>
      <point x="337" y="710" type="curve" smooth="yes"/>
      <point x="214" y="710"/>
      <point x="132" y="643"/>
      <point x="132" y="525" type="curve" smooth="yes"/>
      <point x="132" y="495"/>
      <point x="141" y="468"/>
      <point x="158" y="453" type="curve"/>
      <point x="97" y="402"/>
      <point x="75" y="347"/>
      <point x="75" y="301" type="curve" smooth="yes"/>
      <point x="75" y="232"/>
      <point x="120" y="207"/>
      <point x="207" y="191" type="curve" smooth="yes"/>
      <point x="286" y="176"/>
      <point x="333" y="169"/>
      <point x="333" y="113" type="curve" smooth="yes"/>
      <point x="333" y="30"/>
      <point x="265" y="-42"/>
      <point x="165" y="-42" type="curve" smooth="yes"/>
      <point x="110" y="-42"/>
      <point x="13" y="-28"/>
      <point x="13" y="-28" type="curve"/>
      <point x="3" y="-60" type="line"/>
      <point x="3" y="-60"/>
      <point x="100" y="-73"/>
      <point x="160" y="-73" type="curve" smooth="yes"/>
      <point x="291" y="-73"/>
      <point x="369" y="15"/>
      <point x="369" y="116" type="curve" smooth="yes"/>
      <point x="369" y="140"/>
      <point x="363" y="165"/>
      <point x="349" y="178" type="curve"/>
      <point x="397" y="240"/>
      <point x="419" y="293"/>
      <point x="419" y="342" type="curve" smooth="yes"/>
      <point x="419" y="411"/>
      <point x="364" y="430"/>
      <point x="288" y="443" type="curve" smooth="yes"/>
      <point x="203" y="458"/>
      <point x="168" y="470"/>
      <point x="168" y="531" type="curve" smooth="yes"/>
      <point x="168" y="625"/>
      <point x="233" y="678"/>
      <point x="330" y="678" type="curve" smooth="yes"/>
      <point x="378" y="678"/>
      <point x="481" y="665"/>
    </contour>
    <contour>
      <point x="275" y="411" type="curve" smooth="yes"/>
      <point x="335" y="399"/>
      <point x="383" y="389"/>
      <point x="383" y="332" type="curve" smooth="yes"/>
      <point x="383" y="300"/>
      <point x="366" y="253"/>
      <point x="325" y="196" type="curve"/>
      <point x="301" y="209"/>
      <point x="265" y="214"/>
      <point x="231" y="221" type="curve" smooth="yes"/>
      <point x="145" y="239"/>
      <point x="111" y="253"/>
      <point x="111" y="307" type="curve" smooth="yes"/>
      <point x="111" y="341"/>
      <point x="124" y="377"/>
      <point x="182" y="439" type="curve"/>
      <point x="207" y="426"/>
      <point x="230" y="420"/>
    </contour>
  </outline>
</glyph>
<glyph name="dieresis" format="2">
  <advance width="325"/>
  <unicode hex="00A8"/>
  <note>
dieresis
</note>
  <outline>
    <contour>
      <point x="134" y="700" type="line"/>
      <point x="96" y="700" type="line"/>
      <point x="84" y="642" type="line"/>
      <point x="122" y="642" type="line"/>
    </contour>
    <contour>
      <point x="321" y="700" type="line"/>
      <point x="283" y="700" type="line"/>
      <point x="271" y="642" type="line"/>
      <point x="309" y="642" type="line"/>
    </contour>
  </outline>
</glyph>
<glyph name="copyright" format="2">
	<advance width="634"/>
	<unicode hex="00A9"/>
	<note>
		copyright
	</note>
	<outline>
		<contour>
			<point x="410" y="740" type="curve" smooth="yes"/>
			<point x="222" y="740"/>
			<point x="104" y="582"/>
			<point x="104" y="425" type="curve" smooth="yes"/>
			<point x="104" y="300"/>
			<point x="187" y="209"/>
			<point x="323" y="209" type="curve" smooth="yes"/>
			<point x="510" y="209"/>
			<point x="626" y="369"/>
			<point x="626" y="524" type="curve" smooth="yes"/>
			<point x="626" y="651"/>
			<point x="544" y="740"/>
		</contour>
		<contour>
			<point x="407" y="708" type="curve" smooth="yes"/>
			<point x="525" y="708"/>
			<point x="593" y="631"/>
			<point x="593" y="520" type="curve" smooth="yes"/>
			<point x="593" y="384"/>
			<point x="488" y="241"/>
			<point x="326" y="241" type="curve" smooth="yes"/>
			<point x="205" y="241"/>
			<point x="137" y="318"/>
			<point x="137" y="428" type="curve" smooth="yes"/>
			<point x="137" y="563"/>
			<point x="243" y="708"/>
		</contour>
		<contour>
			<point x="411" y="335" type="curve"/>
			<point x="417" y="367" type="line"/>
			<point x="417" y="367"/>
			<point x="370" y="359"/>
			<point x="342" y="359" type="curve" smooth="yes"/>
			<point x="297" y="359"/>
			<point x="282" y="381"/>
			<point x="282" y="418" type="curve" smooth="yes"/>
			<point x="282" y="476"/>
			<point x="310" y="592"/>
			<point x="392" y="592" type="curve" smooth="yes"/>
			<point x="424" y="592"/>
			<point x="463" y="585"/>
			<point x="463" y="585" type="curve"/>
			<point x="471" y="617" type="line"/>
			<point x="471" y="617"/>
			<point x="436" y="624"/>
			<point x="398" y="624" type="curve" smooth="yes"/>
			<point x="277" y="624"/>
			<point x="249" y="478"/>
			<point x="249" y="414" type="curve" smooth="yes"/>
			<point x="249" y="363"/>
			<point x="272" y="327"/>
			<point x="335" y="327" type="curve" smooth="yes"/>
			<point x="366" y="327"/>
			<point x="411" y="335"/>
		</contour>
	</outline>
</glyph>
<glyph name="ordfeminine" format="2">
	<advance width="381"/>
	<unicode hex="00AA"/>
	<note>
		ordfeminine
	</note>
	<outline>
		<contour>
			<point x="323" y="488" type="curve"/>
			<point x="352" y="622" type="line" smooth="yes"/>
			<point x="363" y="672"/>
			<point x="335" y="710"/>
			<point x="267" y="710" type="curve" smooth="yes"/>
			<point x="230" y="710"/>
			<point x="180" y="702"/>
			<point x="180" y="702" type="curve"/>
			<point x="175" y="672" type="line"/>
			<point x="175" y="672"/>
			<point x="227" y="679"/>
			<point x="261" y="679" type="curve" smooth="yes"/>
			<point x="311" y="679"/>
			<point x="329" y="657"/>
			<point x="321" y="623" type="curve" smooth="yes"/>
			<point x="315" y="597" type="line"/>
			<point x="217" y="596" type="line" smooth="yes"/>
			<point x="160" y="595"/>
			<point x="128" y="565"/>
			<point x="128" y="513" type="curve" smooth="yes"/>
			<point x="128" y="464"/>
			<point x="159" y="437"/>
			<point x="208" y="437" type="curve" smooth="yes"/>
			<point x="254" y="437"/>
			<point x="298" y="459"/>
			<point x="298" y="459" type="curve"/>
			<point x="311" y="444"/>
			<point x="323" y="438"/>
			<point x="348" y="437" type="curve"/>
			<point x="354" y="465" type="line"/>
			<point x="341" y="468"/>
			<point x="328" y="475"/>
		</contour>
		<contour>
			<point x="222" y="567" type="curve" smooth="yes"/>
			<point x="309" y="568" type="line"/>
			<point x="292" y="486" type="line"/>
			<point x="292" y="486"/>
			<point x="252" y="466"/>
			<point x="210" y="466" type="curve" smooth="yes"/>
			<point x="174" y="466"/>
			<point x="160" y="483"/>
			<point x="160" y="516" type="curve" smooth="yes"/>
			<point x="160" y="547"/>
			<point x="176" y="566"/>
		</contour>
		<contour>
			<point x="338" y="371" type="line"/>
			<point x="108" y="371" type="line"/>
			<point x="102" y="341" type="line"/>
			<point x="332" y="341" type="line"/>
		</contour>
	</outline>
</glyph>
<glyph name="guillemetleft" format="2">
  <advance width="466"/>
  <unicode hex="00AB"/>
  <note>
guillemetleft
</note>
  <outline>
    <contour>
      <point x="229" y="149" type="line"/>
      <point x="94" y="296" type="line"/>
      <point x="291" y="428" type="line"/>
      <point x="274" y="455" type="line"/>
      <point x="66" y="316" type="line"/>
      <point x="59" y="286" type="line"/>
      <point x="205" y="127" type="line"/>
    </contour>
    <contour>
      <point x="376" y="152" type="line"/>
      <point x="243" y="296" type="line"/>
      <point x="437" y="426" type="line"/>
      <point x="420" y="452" type="line"/>
      <point x="216" y="316" type="line"/>
      <point x="209" y="286" type="line"/>
      <point x="352" y="131" type="line"/>
    </contour>
  </outline>
</glyph>
<glyph name="logicalnot" format="2">
  <advance width="560"/>
  <unicode hex="00AC"/>
  <note>
logicalnot
</note>
  <outline>
    <contour>
      <point x="461" y="119" type="line"/>
      <point x="505" y="325" type="line"/>
      <point x="83" y="325" type="line"/>
      <point x="76" y="291" type="line"/>
      <point x="462" y="291" type="line"/>
      <point x="425" y="119" type="line"/>
    </contour>
  </outline>
</glyph>
<glyph name="softhyphen" format="2">
	<advance width="0"/>
	<unicode hex="00AD"/>
	<note>
		softhyphen
	</note>
	<outline>
		<contour>
			<point x="163" y="308" type="line"/>
			<point x="-137" y="308" type="line"/>
			<point x="-145" y="274" type="line"/>
			<point x="155" y="274" type="line"/>
		</contour>
	</outline>
</glyph>
<glyph name="registered" format="2">
	<advance width="634"/>
	<unicode hex="00AE"/>
	<note>
		registered
	</note>
	<outline>
		<contour>
			<point x="410" y="740" type="curve" smooth="yes"/>
			<point x="222" y="740"/>
			<point x="104" y="582"/>
			<point x="104" y="425" type="curve" smooth="yes"/>
			<point x="104" y="300"/>
			<point x="187" y="209"/>
			<point x="323" y="209" type="curve" smooth="yes"/>
			<point x="510" y="209"/>
			<point x="626" y="369"/>
			<point x="626" y="524" type="curve" smooth="yes"/>
			<point x="626" y="651"/>
			<point x="544" y="740"/>
		</contour>
		<contour>
			<point x="407" y="708" type="curve" smooth="yes"/>
			<point x="525" y="708"/>
			<point x="593" y="631"/>
			<point x="593" y="520" type="curve" smooth="yes"/>
			<point x="593" y="384"/>
			<point x="488" y="241"/>
			<point x="326" y="241" type="curve" smooth="yes"/>
			<point x="205" y="241"/>
			<point x="137" y="318"/>
			<point x="137" y="428" type="curve" smooth="yes"/>
			<point x="137" y="563"/>
			<point x="243" y="708"/>
		</contour>
		<contour>
			<point x="292" y="444" type="line"/>
			<point x="372" y="444" type="line"/>
			<point x="411" y="332" type="line"/>
			<point x="444" y="332" type="line"/>
			<point x="404" y="447" type="line"/>
			<point x="457" y="461"/>
			<point x="484" y="503"/>
			<point x="484" y="550" type="curve" smooth="yes"/>
			<point x="484" y="602"/>
			<point x="451" y="619"/>
			<point x="387" y="619" type="curve" smooth="yes"/>
			<point x="298" y="619" type="line"/>
			<point x="236" y="332" type="line"/>
			<point x="268" y="332" type="line"/>
		</contour>
		<contour>
			<point x="375" y="475" type="curve" smooth="yes"/>
			<point x="299" y="475" type="line"/>
			<point x="323" y="588" type="line"/>
			<point x="381" y="588" type="line" smooth="yes"/>
			<point x="427" y="588"/>
			<point x="449" y="581"/>
			<point x="449" y="550" type="curve" smooth="yes"/>
			<point x="449" y="514"/>
			<point x="434" y="475"/>
		</contour>
	</outline>
</glyph>
<glyph name="macron" format="2">
  <advance width="367"/>
  <unicode hex="00AF"/>
  <note>
macron
</note>
  <outline>
    <contour>
      <point x="357" y="674" type="line"/>
      <point x="90" y="674" type="line"/>
      <point x="84" y="642" type="line"/>
      <point x="351" y="642" type="line"/>
    </contour>
  </outline>
</glyph>
<glyph name="degree" format="2">
	<advance width="390"/>
	<unicode hex="00B0"/>
	<note>
		degree
	</note>
	<outline>
		<contour>
			<point x="286" y="710" type="curve" smooth="yes"/>
			<point x="183" y="710"/>
			<point x="120" y="626"/>
			<point x="120" y="541" type="curve" smooth="yes"/>
			<point x="120" y="479"/>
			<point x="166" y="434"/>
			<point x="236" y="434" type="curve" smooth="yes"/>
			<point x="337" y="434"/>
			<point x="402" y="514"/>
			<point x="402" y="601" type="curve" smooth="yes"/>
			<point x="402" y="664"/>
			<point x="356" y="710"/>
		</contour>
		<contour>
			<point x="283" y="677" type="curve" smooth="yes"/>
			<point x="336" y="677"/>
			<point x="366" y="646"/>
			<point x="366" y="598" type="curve" smooth="yes"/>
			<point x="366" y="533"/>
			<point x="317" y="467"/>
			<point x="239" y="467" type="curve" smooth="yes"/>
			<point x="186" y="467"/>
			<point x="156" y="497"/>
			<point x="156" y="544" type="curve" smooth="yes"/>
			<point x="156" y="608"/>
			<point x="204" y="677"/>
		</contour>
	</outline>
</glyph>
<glyph name="plusminus" format="2">
  <advance width="560"/>
  <unicode hex="00B1"/>
  <note>
plusminus
</note>
  <outline>
    <contour>
      <point x="287" y="364" type="line"/>
      <point x="84" y="364" type="line"/>
      <point x="76" y="328" type="line"/>
      <point x="279" y="328" type="line"/>
      <point x="244" y="164" type="line"/>
      <point x="280" y="164" type="line"/>
      <point x="315" y="328" type="line"/>
      <point x="518" y="328" type="line"/>
      <point x="526" y="364" type="line"/>
      <point x="323" y="364" type="line"/>
      <point x="357" y="528" type="line"/>
      <point x="321" y="528" type="line"/>
    </contour>
    <contour>
      <point x="460" y="54" type="line"/>
      <point x="467" y="90" type="line"/>
      <point x="25" y="90" type="line"/>
      <point x="18" y="54" type="line"/>
    </contour>
  </outline>
</glyph>
<glyph name="twosuperior" format="2">
	<advance width="247"/>
	<unicode hex="00B2"/>
	<note>
		twosuperior
	</note>
	<outline>
		<contour>
			<point x="67" y="449" type="line"/>
			<point x="61" y="418" type="line"/>
			<point x="255" y="418" type="line"/>
			<point x="262" y="451" type="line"/>
			<point x="111" y="451" type="line"/>
			<point x="208" y="534" type="line" smooth="yes"/>
			<point x="258" y="576"/>
			<point x="301" y="608"/>
			<point x="301" y="670" type="curve" smooth="yes"/>
			<point x="301" y="709"/>
			<point x="281" y="739"/>
			<point x="225" y="739" type="curve" smooth="yes"/>
			<point x="183" y="739"/>
			<point x="129" y="726"/>
			<point x="129" y="726" type="curve"/>
			<point x="125" y="697" type="line"/>
			<point x="125" y="697"/>
			<point x="183" y="707"/>
			<point x="217" y="707" type="curve" smooth="yes"/>
			<point x="245" y="707"/>
			<point x="265" y="695"/>
			<point x="265" y="669" type="curve" smooth="yes"/>
			<point x="265" y="625"/>
			<point x="223" y="587"/>
			<point x="188" y="556" type="curve" smooth="yes"/>
		</contour>
	</outline>
</glyph>
<glyph name="threesuperior" format="2">
	<advance width="263"/>
	<unicode hex="00B3"/>
	<note>
		threesuperior
	</note>
	<outline>
		<contour>
			<point x="130" y="728" type="curve"/>
			<point x="126" y="697" type="line"/>
			<point x="126" y="697"/>
			<point x="178" y="706"/>
			<point x="224" y="706" type="curve" smooth="yes"/>
			<point x="260" y="706"/>
			<point x="274" y="689"/>
			<point x="274" y="664" type="curve" smooth="yes"/>
			<point x="274" y="620"/>
			<point x="239" y="596"/>
			<point x="208" y="596" type="curve" smooth="yes"/>
			<point x="143" y="596" type="line"/>
			<point x="136" y="563" type="line"/>
			<point x="201" y="563" type="line" smooth="yes"/>
			<point x="229" y="563"/>
			<point x="249" y="552"/>
			<point x="249" y="521" type="curve" smooth="yes"/>
			<point x="249" y="474"/>
			<point x="224" y="441"/>
			<point x="172" y="441" type="curve" smooth="yes"/>
			<point x="122" y="441"/>
			<point x="70" y="451"/>
			<point x="70" y="451" type="curve"/>
			<point x="60" y="420" type="line"/>
			<point x="60" y="420"/>
			<point x="116" y="408"/>
			<point x="165" y="408" type="curve" smooth="yes"/>
			<point x="247" y="408"/>
			<point x="286" y="452"/>
			<point x="286" y="519" type="curve" smooth="yes"/>
			<point x="286" y="551"/>
			<point x="272" y="576"/>
			<point x="245" y="583" type="curve"/>
			<point x="287" y="597"/>
			<point x="310" y="627"/>
			<point x="310" y="669" type="curve" smooth="yes"/>
			<point x="310" y="710"/>
			<point x="284" y="739"/>
			<point x="230" y="739" type="curve" smooth="yes"/>
			<point x="185" y="739"/>
			<point x="130" y="728"/>
		</contour>
	</outline>
</glyph>
<glyph name="acute" format="2">
	<advance width="306"/>
	<unicode hex="00B4"/>
	<note>
		acute
	</note>
	<outline>
		<contour>
			<point x="293" y="732" type="line"/>
			<point x="83" y="636" type="line"/>
			<point x="95" y="609" type="line"/>
			<point x="307" y="701" type="line"/>
		</contour>
	</outline>
</glyph>
<glyph name="micro" format="2">
	<advance width="514"/>
	<unicode hex="00B5"/>
	<note>
		micro
	</note>
	<outline>
		<contour>
			<point x="374" y="0" type="line"/>
			<point x="481" y="500" type="line"/>
			<point x="446" y="500" type="line"/>
			<point x="374" y="170" type="line"/>
			<point x="374" y="170"/>
			<point x="278" y="23"/>
			<point x="188" y="23" type="curve" smooth="yes"/>
			<point x="108" y="23"/>
			<point x="88" y="85"/>
			<point x="108" y="182" type="curve" smooth="yes"/>
			<point x="175" y="500" type="line"/>
			<point x="140" y="500" type="line"/>
			<point x="-16" y="-230" type="line"/>
			<point x="19" y="-230" type="line"/>
			<point x="80" y="50" type="line"/>
			<point x="96" y="15"/>
			<point x="131" y="-10"/>
			<point x="181" y="-10" type="curve" smooth="yes"/>
			<point x="279" y="-10"/>
			<point x="365" y="112"/>
			<point x="365" y="112" type="curve"/>
			<point x="339" y="0" type="line"/>
		</contour>
	</outline>
</glyph>
<glyph name="paragraph" format="2">
  <advance width="562"/>
  <unicode hex="00B6"/>
  <note>
paragraph
</note>
  <outline>
    <contour>
      <point x="358" y="666" type="line"/>
      <point x="490" y="666" type="line"/>
      <point x="349" y="0" type="line"/>
      <point x="385" y="0" type="line"/>
      <point x="526" y="666" type="line"/>
      <point x="623" y="666" type="line"/>
      <point x="631" y="700" type="line"/>
      <point x="323" y="700" type="line" smooth="yes"/>
      <point x="162" y="700"/>
      <point x="89" y="614"/>
      <point x="89" y="510" type="curve" smooth="yes"/>
      <point x="89" y="423"/>
      <point x="140" y="350"/>
      <point x="248" y="350" type="curve" smooth="yes"/>
      <point x="255" y="350" type="line"/>
      <point x="181" y="0" type="line"/>
      <point x="217" y="0" type="line"/>
    </contour>
  </outline>
</glyph>
<glyph name="periodcentered" format="2">
	<advance width="185"/>
	<unicode hex="00B7"/>
	<note>
		periodcentered
	</note>
	<outline>
		<contour>
			<point x="130" y="331" type="line"/>
			<point x="90" y="331" type="line"/>
			<point x="72" y="251" type="line"/>
			<point x="112" y="251" type="line"/>
		</contour>
	</outline>
</glyph>
<glyph name="onesuperior" format="2">
  <advance width="189"/>
  <unicode hex="00B9"/>
  <note>
onesuperior
</note>
  <outline>
    <contour>
      <point x="245" y="730" type="line"/>
      <point x="210" y="730" type="line"/>
      <point x="97" y="663" type="line"/>
      <point x="108" y="635" type="line"/>
      <point x="202" y="691" type="line"/>
      <point x="144" y="418" type="line"/>
      <point x="179" y="418" type="line"/>
    </contour>
  </outline>
</glyph>
<glyph name="ordmasculine" format="2">
  <advance width="378"/>
  <unicode hex="00BA"/>
  <note>
ordmasculine
</note>
  <outline>
    <contour>
      <point x="283" y="710" type="curve" smooth="yes"/>
      <point x="160" y="710"/>
      <point x="136" y="590"/>
      <point x="136" y="527" type="curve" smooth="yes"/>
      <point x="136" y="469"/>
      <point x="172" y="437"/>
      <point x="232" y="437" type="curve" smooth="yes"/>
      <point x="353" y="437"/>
      <point x="376" y="558"/>
      <point x="376" y="622" type="curve" smooth="yes"/>
      <point x="376" y="680"/>
      <point x="343" y="710"/>
    </contour>
    <contour>
      <point x="234" y="469" type="curve" smooth="yes"/>
      <point x="191" y="469"/>
      <point x="170" y="486"/>
      <point x="170" y="528" type="curve" smooth="yes"/>
      <point x="170" y="568"/>
      <point x="182" y="678"/>
      <point x="278" y="678" type="curve" smooth="yes"/>
      <point x="322" y="678"/>
      <point x="342" y="662"/>
      <point x="342" y="621" type="curve" smooth="yes"/>
      <point x="342" y="575"/>
      <point x="326" y="469"/>
    </contour>
    <contour>
      <point x="321" y="371" type="line"/>
      <point x="113" y="371" type="line"/>
      <point x="107" y="341" type="line"/>
      <point x="315" y="341" type="line"/>
    </contour>
  </outline>
</glyph>
<glyph name="guillemetright" format="2">
  <advance width="464"/>
  <unicode hex="00BB"/>
  <note>
guillemetright
</note>
  <outline>
    <contour>
      <point x="253" y="433" type="line"/>
      <point x="388" y="286" type="line"/>
      <point x="191" y="154" type="line"/>
      <point x="208" y="127" type="line"/>
      <point x="416" y="266" type="line"/>
      <point x="423" y="296" type="line"/>
      <point x="277" y="455" type="line"/>
    </contour>
    <contour>
      <point x="106" y="430" type="line"/>
      <point x="239" y="286" type="line"/>
      <point x="45" y="156" type="line"/>
      <point x="62" y="130" type="line"/>
      <point x="266" y="266" type="line"/>
      <point x="273" y="296" type="line"/>
      <point x="130" y="451" type="line"/>
    </contour>
  </outline>
</glyph>
<glyph name="onequarter" format="2">
	<advance width="572"/>
	<unicode hex="00BC"/>
	<note>
		onequarter
	</note>
	<outline>
		<contour>
			<point x="596" y="690" type="line"/>
			<point x="573" y="710" type="line"/>
			<point x="-5" y="9" type="line"/>
			<point x="17" y="-12" type="line"/>
		</contour>
		<contour>
			<point x="266" y="700" type="line"/>
			<point x="231" y="700" type="line"/>
			<point x="118" y="633" type="line"/>
			<point x="129" y="605" type="line"/>
			<point x="223" y="661" type="line"/>
			<point x="165" y="388" type="line"/>
			<point x="200" y="388" type="line"/>
		</contour>
		<contour>
			<point x="278" y="57" type="line"/>
			<point x="424" y="57" type="line"/>
			<point x="412" y="0" type="line"/>
			<point x="448" y="0" type="line"/>
			<point x="460" y="57" type="line"/>
			<point x="497" y="57" type="line"/>
			<point x="504" y="90" type="line"/>
			<point x="467" y="90" type="line"/>
			<point x="486" y="178" type="line"/>
			<point x="450" y="178" type="line"/>
			<point x="431" y="90" type="line"/>
			<point x="325" y="90" type="line"/>
			<point x="459" y="312" type="line"/>
			<point x="421" y="312" type="line"/>
			<point x="284" y="88" type="line"/>
		</contour>
	</outline>
</glyph>
<glyph name="onehalf" format="2">
	<advance width="584"/>
	<unicode hex="00BD"/>
	<note>
		onehalf
	</note>
	<outline>
		<contour>
			<point x="596" y="690" type="line"/>
			<point x="573" y="710" type="line"/>
			<point x="-5" y="9" type="line"/>
			<point x="17" y="-12" type="line"/>
		</contour>
		<contour>
			<point x="266" y="700" type="line"/>
			<point x="231" y="700" type="line"/>
			<point x="118" y="633" type="line"/>
			<point x="129" y="605" type="line"/>
			<point x="223" y="661" type="line"/>
			<point x="165" y="388" type="line"/>
			<point x="200" y="388" type="line"/>
		</contour>
		<contour>
			<point x="297" y="31" type="line"/>
			<point x="291" y="0" type="line"/>
			<point x="485" y="0" type="line"/>
			<point x="492" y="33" type="line"/>
			<point x="341" y="33" type="line"/>
			<point x="438" y="116" type="line" smooth="yes"/>
			<point x="488" y="158"/>
			<point x="531" y="190"/>
			<point x="531" y="252" type="curve" smooth="yes"/>
			<point x="531" y="291"/>
			<point x="511" y="321"/>
			<point x="455" y="321" type="curve" smooth="yes"/>
			<point x="413" y="321"/>
			<point x="359" y="308"/>
			<point x="359" y="308" type="curve"/>
			<point x="355" y="279" type="line"/>
			<point x="355" y="279"/>
			<point x="413" y="289"/>
			<point x="447" y="289" type="curve" smooth="yes"/>
			<point x="475" y="289"/>
			<point x="495" y="277"/>
			<point x="495" y="251" type="curve" smooth="yes"/>
			<point x="495" y="207"/>
			<point x="453" y="169"/>
			<point x="418" y="138" type="curve" smooth="yes"/>
		</contour>
	</outline>
</glyph>
<glyph name="threequarters" format="2">
  <advance width="622"/>
  <unicode hex="00BE"/>
  <note>
threequarters
</note>
  <outline>
    <contour>
      <point x="146" y="698" type="curve"/>
      <point x="142" y="667" type="line"/>
      <point x="142" y="667"/>
      <point x="194" y="676"/>
      <point x="240" y="676" type="curve" smooth="yes"/>
      <point x="276" y="676"/>
      <point x="290" y="659"/>
      <point x="290" y="634" type="curve" smooth="yes"/>
      <point x="290" y="590"/>
      <point x="255" y="566"/>
      <point x="224" y="566" type="curve" smooth="yes"/>
      <point x="159" y="566" type="line"/>
      <point x="152" y="533" type="line"/>
      <point x="217" y="533" type="line" smooth="yes"/>
      <point x="245" y="533"/>
      <point x="265" y="522"/>
      <point x="265" y="491" type="curve" smooth="yes"/>
      <point x="265" y="444"/>
      <point x="240" y="411"/>
      <point x="188" y="411" type="curve" smooth="yes"/>
      <point x="138" y="411"/>
      <point x="86" y="421"/>
      <point x="86" y="421" type="curve"/>
      <point x="76" y="390" type="line"/>
      <point x="76" y="390"/>
      <point x="132" y="378"/>
      <point x="181" y="378" type="curve" smooth="yes"/>
      <point x="263" y="378"/>
      <point x="302" y="422"/>
      <point x="302" y="489" type="curve" smooth="yes"/>
      <point x="302" y="521"/>
      <point x="288" y="546"/>
      <point x="261" y="553" type="curve"/>
      <point x="303" y="567"/>
      <point x="326" y="597"/>
      <point x="326" y="639" type="curve" smooth="yes"/>
      <point x="326" y="680"/>
      <point x="300" y="709"/>
      <point x="246" y="709" type="curve" smooth="yes"/>
      <point x="201" y="709"/>
      <point x="146" y="698"/>
    </contour>
    <contour>
      <point x="646" y="690" type="line"/>
      <point x="623" y="710" type="line"/>
      <point x="45" y="9" type="line"/>
      <point x="67" y="-12" type="line"/>
    </contour>
    <contour>
      <point x="328" y="57" type="line"/>
      <point x="474" y="57" type="line"/>
      <point x="462" y="0" type="line"/>
      <point x="498" y="0" type="line"/>
      <point x="510" y="57" type="line"/>
      <point x="547" y="57" type="line"/>
      <point x="554" y="90" type="line"/>
      <point x="517" y="90" type="line"/>
      <point x="536" y="178" type="line"/>
      <point x="500" y="178" type="line"/>
      <point x="481" y="90" type="line"/>
      <point x="375" y="90" type="line"/>
      <point x="509" y="312" type="line"/>
      <point x="471" y="312" type="line"/>
      <point x="334" y="88" type="line"/>
    </contour>
  </outline>
</glyph>
<glyph name="questiondown" format="2">
  <advance width="420"/>
  <unicode hex="00BF"/>
  <note>
questiondown
</note>
  <outline>
    <contour>
      <point x="255" y="420" type="line"/>
      <point x="295" y="420" type="line"/>
      <point x="312" y="500" type="line"/>
      <point x="272" y="500" type="line"/>
    </contour>
    <contour>
      <point x="-31" y="-79" type="curve" smooth="yes"/>
      <point x="-31" y="-168"/>
      <point x="35" y="-210"/>
      <point x="134" y="-210" type="curve" smooth="yes"/>
      <point x="236" y="-210"/>
      <point x="312" y="-183"/>
      <point x="312" y="-183" type="curve"/>
      <point x="314" y="-149" type="line"/>
      <point x="314" y="-149"/>
      <point x="247" y="-177"/>
      <point x="144" y="-177" type="curve" smooth="yes"/>
      <point x="65" y="-177"/>
      <point x="5" y="-151"/>
      <point x="5" y="-77" type="curve" smooth="yes"/>
      <point x="5" y="12"/>
      <point x="61" y="53"/>
      <point x="133" y="108" type="curve" smooth="yes"/>
      <point x="195" y="155"/>
      <point x="266" y="203"/>
      <point x="273" y="268" type="curve" smooth="yes"/>
      <point x="275" y="287"/>
      <point x="277" y="309"/>
      <point x="277" y="309" type="curve"/>
      <point x="248" y="309" type="line"/>
      <point x="240" y="271" type="line" smooth="yes"/>
      <point x="228" y="215"/>
      <point x="172" y="178"/>
      <point x="112" y="133" type="curve" smooth="yes"/>
      <point x="9" y="57"/>
      <point x="-31" y="12"/>
    </contour>
  </outline>
</glyph>
<glyph name="Aacute" format="2">
  <advance width="563"/>
  <unicode hex="00C1"/>
  <note>
Aacute
</note>
  <outline>
    <contour>
      <point x="486" y="912" type="line"/>
      <point x="315" y="816" type="line"/>
      <point x="331" y="789" type="line"/>
      <point x="505" y="881" type="line"/>
    </contour>
    <contour>
      <point x="338" y="700" type="line"/>
      <point x="-24" y="0" type="line"/>
      <point x="15" y="0" type="line"/>
      <point x="124" y="215" type="line"/>
      <point x="427" y="215" type="line"/>
      <point x="446" y="0" type="line"/>
      <point x="480" y="0" type="line"/>
      <point x="418" y="700" type="line"/>
    </contour>
    <contour>
      <point x="357" y="666" type="line"/>
      <point x="387" y="666" type="line"/>
      <point x="424" y="249" type="line"/>
      <point x="142" y="249" type="line"/>
    </contour>
  </outline>
</glyph>
<glyph name="Acircumflex" format="2">
  <advance width="563"/>
  <unicode hex="00C2"/>
  <note>
Acircumflex
</note>
  <outline>
    <contour>
      <point x="308" y="793" type="line"/>
      <point x="419" y="878" type="line"/>
      <point x="494" y="793" type="line"/>
      <point x="533" y="793" type="line"/>
      <point x="438" y="908" type="line"/>
      <point x="404" y="908" type="line"/>
      <point x="261" y="793" type="line"/>
    </contour>
    <contour>
      <point x="338" y="700" type="line"/>
      <point x="-24" y="0" type="line"/>
      <point x="15" y="0" type="line"/>
      <point x="124" y="215" type="line"/>
      <point x="427" y="215" type="line"/>
      <point x="446" y="0" type="line"/>
      <point x="480" y="0" type="line"/>
      <point x="418" y="700" type="line"/>
    </contour>
    <contour>
      <point x="357" y="666" type="line"/>
      <point x="387" y="666" type="line"/>
      <point x="424" y="249" type="line"/>
      <point x="142" y="249" type="line"/>
    </contour>
  </outline>
</glyph>
<glyph name="Atilde" format="2">
  <advance width="563"/>
  <unicode hex="00C3"/>
  <note>
Atilde
</note>
  <outline>
    <contour>
      <point x="559" y="861" type="curve"/>
      <point x="546" y="883" type="line"/>
      <point x="546" y="883"/>
      <point x="494" y="842"/>
      <point x="476" y="842" type="curve" smooth="yes"/>
      <point x="444" y="842"/>
      <point x="380" y="895"/>
      <point x="340" y="895" type="curve" smooth="yes"/>
      <point x="307" y="895"/>
      <point x="240" y="841"/>
      <point x="240" y="841" type="curve"/>
      <point x="252" y="819" type="line"/>
      <point x="252" y="819"/>
      <point x="310" y="864"/>
      <point x="331" y="864" type="curve" smooth="yes"/>
      <point x="363" y="864"/>
      <point x="427" y="810"/>
      <point x="467" y="810" type="curve" smooth="yes"/>
      <point x="498" y="810"/>
      <point x="559" y="861"/>
    </contour>
    <contour>
      <point x="338" y="700" type="line"/>
      <point x="-24" y="0" type="line"/>
      <point x="15" y="0" type="line"/>
      <point x="124" y="215" type="line"/>
      <point x="427" y="215" type="line"/>
      <point x="446" y="0" type="line"/>
      <point x="480" y="0" type="line"/>
      <point x="418" y="700" type="line"/>
    </contour>
    <contour>
      <point x="357" y="666" type="line"/>
      <point x="387" y="666" type="line"/>
      <point x="424" y="249" type="line"/>
      <point x="142" y="249" type="line"/>
    </contour>
  </outline>
</glyph>
<glyph name="Adieresis" format="2">
	<advance width="563"/>
	<unicode hex="00C4"/>
	<note>
		Adieresis
	</note>
	<outline>
		<contour>
			<point x="334" y="880" type="line"/>
			<point x="294" y="880" type="line"/>
			<point x="282" y="822" type="line"/>
			<point x="322" y="822" type="line"/>
		</contour>
		<contour>
			<point x="519" y="880" type="line"/>
			<point x="479" y="880" type="line"/>
			<point x="467" y="822" type="line"/>
			<point x="507" y="822" type="line"/>
		</contour>
		<contour>
			<point x="338" y="700" type="line"/>
			<point x="-24" y="0" type="line"/>
			<point x="15" y="0" type="line"/>
			<point x="124" y="215" type="line"/>
			<point x="427" y="215" type="line"/>
			<point x="446" y="0" type="line"/>
			<point x="480" y="0" type="line"/>
			<point x="418" y="700" type="line"/>
		</contour>
		<contour>
			<point x="357" y="666" type="line"/>
			<point x="387" y="666" type="line"/>
			<point x="424" y="249" type="line"/>
			<point x="142" y="249" type="line"/>
		</contour>
	</outline>
</glyph>
<glyph name="Aring" format="2">
	<advance width="563"/>
	<unicode hex="00C5"/>
	<note>
		Aring
	</note>
	<outline>
		<contour>
			<point x="311" y="833" type="curve" smooth="yes"/>
			<point x="311" y="790"/>
			<point x="345" y="755"/>
			<point x="392" y="755" type="curve" smooth="yes"/>
			<point x="453" y="755"/>
			<point x="506" y="803"/>
			<point x="506" y="868" type="curve" smooth="yes"/>
			<point x="506" y="911"/>
			<point x="473" y="945"/>
			<point x="426" y="945" type="curve" smooth="yes"/>
			<point x="364" y="945"/>
			<point x="311" y="897"/>
		</contour>
		<contour>
			<point x="345" y="835" type="curve" smooth="yes"/>
			<point x="345" y="880"/>
			<point x="383" y="913"/>
			<point x="422" y="913" type="curve" smooth="yes"/>
			<point x="452" y="913"/>
			<point x="473" y="894"/>
			<point x="473" y="865" type="curve" smooth="yes"/>
			<point x="473" y="822"/>
			<point x="435" y="786"/>
			<point x="395" y="786" type="curve" smooth="yes"/>
			<point x="365" y="786"/>
			<point x="345" y="807"/>
		</contour>
		<contour>
			<point x="338" y="700" type="line"/>
			<point x="-24" y="0" type="line"/>
			<point x="15" y="0" type="line"/>
			<point x="124" y="215" type="line"/>
			<point x="427" y="215" type="line"/>
			<point x="446" y="0" type="line"/>
			<point x="480" y="0" type="line"/>
			<point x="418" y="700" type="line"/>
		</contour>
		<contour>
			<point x="357" y="666" type="line"/>
			<point x="387" y="666" type="line"/>
			<point x="424" y="249" type="line"/>
			<point x="142" y="249" type="line"/>
		</contour>
	</outline>
</glyph>
<glyph name="Ccedilla" format="2">
	<advance width="522"/>
	<unicode hex="00C7"/>
	<note>
		Ccedilla
	</note>
	<outline>
		<contour>
			<point x="334" y="-114" type="curve" smooth="yes"/>
			<point x="334" y="-68"/>
			<point x="303" y="-57"/>
			<point x="246" y="-57" type="curve"/>
			<point x="262" y="-10" type="line"/>
			<point x="267" y="-10"/>
			<point x="271" y="-10"/>
			<point x="276" y="-10" type="curve" smooth="yes"/>
			<point x="339" y="-10"/>
			<point x="384" y="0"/>
			<point x="436" y="11" type="curve"/>
			<point x="440" y="45" type="line"/>
			<point x="386" y="34"/>
			<point x="333" y="24"/>
			<point x="274" y="24" type="curve" smooth="yes"/>
			<point x="148" y="24"/>
			<point x="105" y="67"/>
			<point x="105" y="200" type="curve" smooth="yes"/>
			<point x="105" y="374"/>
			<point x="172" y="676"/>
			<point x="418" y="676" type="curve" smooth="yes"/>
			<point x="464" y="676"/>
			<point x="529" y="665"/>
			<point x="570" y="656" type="curve"/>
			<point x="580" y="690" type="line"/>
			<point x="537" y="700"/>
			<point x="473" y="710"/>
			<point x="424" y="710" type="curve" smooth="yes"/>
			<point x="144" y="710"/>
			<point x="67" y="407"/>
			<point x="67" y="202" type="curve" smooth="yes"/>
			<point x="67" y="51"/>
			<point x="118" y="0"/>
			<point x="236" y="-9" type="curve"/>
			<point x="210" y="-85" type="line"/>
			<point x="259" y="-85" type="line" smooth="yes"/>
			<point x="290" y="-85"/>
			<point x="298" y="-97"/>
			<point x="298" y="-118" type="curve" smooth="yes"/>
			<point x="298" y="-142"/>
			<point x="286" y="-173"/>
			<point x="238" y="-173" type="curve" smooth="yes"/>
			<point x="204" y="-173"/>
			<point x="161" y="-169"/>
			<point x="161" y="-169" type="curve"/>
			<point x="153" y="-197" type="line"/>
			<point x="153" y="-197"/>
			<point x="191" y="-201"/>
			<point x="235" y="-201" type="curve" smooth="yes"/>
			<point x="310" y="-201"/>
			<point x="334" y="-157"/>
		</contour>
	</outline>
</glyph>
<glyph name="Eacute" format="2">
  <advance width="527"/>
  <unicode hex="00C9"/>
  <note>
Eacute
</note>
  <outline>
    <contour>
      <point x="482" y="912" type="line"/>
      <point x="311" y="816" type="line"/>
      <point x="327" y="789" type="line"/>
      <point x="501" y="881" type="line"/>
    </contour>
    <contour>
      <point x="578" y="700" type="line"/>
      <point x="188" y="700" type="line"/>
      <point x="39" y="0" type="line"/>
      <point x="429" y="0" type="line"/>
      <point x="436" y="34" type="line"/>
      <point x="81" y="34" type="line"/>
      <point x="146" y="341" type="line"/>
      <point x="441" y="341" type="line"/>
      <point x="448" y="375" type="line"/>
      <point x="154" y="375" type="line"/>
      <point x="216" y="666" type="line"/>
      <point x="570" y="666" type="line"/>
    </contour>
  </outline>
</glyph>
<glyph name="Ecircumflex" format="2">
  <advance width="527"/>
  <unicode hex="00CA"/>
  <note>
Ecircumflex
</note>
  <outline>
    <contour>
      <point x="304" y="793" type="line"/>
      <point x="415" y="878" type="line"/>
      <point x="490" y="793" type="line"/>
      <point x="529" y="793" type="line"/>
      <point x="434" y="908" type="line"/>
      <point x="400" y="908" type="line"/>
      <point x="257" y="793" type="line"/>
    </contour>
    <contour>
      <point x="578" y="700" type="line"/>
      <point x="188" y="700" type="line"/>
      <point x="39" y="0" type="line"/>
      <point x="429" y="0" type="line"/>
      <point x="436" y="34" type="line"/>
      <point x="81" y="34" type="line"/>
      <point x="146" y="341" type="line"/>
      <point x="441" y="341" type="line"/>
      <point x="448" y="375" type="line"/>
      <point x="154" y="375" type="line"/>
      <point x="216" y="666" type="line"/>
      <point x="570" y="666" type="line"/>
    </contour>
  </outline>
</glyph>
<glyph name="Edieresis" format="2">
  <advance width="527"/>
  <unicode hex="00CB"/>
  <note>
Edieresis
</note>
  <outline>
    <contour>
      <point x="330" y="880" type="line"/>
      <point x="290" y="880" type="line"/>
      <point x="278" y="822" type="line"/>
      <point x="318" y="822" type="line"/>
    </contour>
    <contour>
      <point x="515" y="880" type="line"/>
      <point x="475" y="880" type="line"/>
      <point x="463" y="822" type="line"/>
      <point x="503" y="822" type="line"/>
    </contour>
    <contour>
      <point x="578" y="700" type="line"/>
      <point x="188" y="700" type="line"/>
      <point x="39" y="0" type="line"/>
      <point x="429" y="0" type="line"/>
      <point x="436" y="34" type="line"/>
      <point x="81" y="34" type="line"/>
      <point x="146" y="341" type="line"/>
      <point x="441" y="341" type="line"/>
      <point x="448" y="375" type="line"/>
      <point x="154" y="375" type="line"/>
      <point x="216" y="666" type="line"/>
      <point x="570" y="666" type="line"/>
    </contour>
  </outline>
</glyph>
<glyph name="Igrave" format="2">
  <advance width="219"/>
  <unicode hex="00CC"/>
  <note>
Igrave
</note>
  <outline>
    <contour>
      <point x="315" y="789" type="line"/>
      <point x="334" y="816" type="line"/>
      <point x="163" y="912" type="line"/>
      <point x="141" y="881" type="line"/>
    </contour>
    <contour>
      <point x="223" y="700" type="line"/>
      <point x="188" y="700" type="line"/>
      <point x="39" y="0" type="line"/>
      <point x="74" y="0" type="line"/>
    </contour>
  </outline>
</glyph>
<glyph name="Icircumflex" format="2">
	<advance width="219"/>
	<unicode hex="00CE"/>
	<note>
		Icircumflex
	</note>
	<outline>
		<contour>
			<point x="137" y="793" type="line"/>
			<point x="248" y="878" type="line"/>
			<point x="323" y="793" type="line"/>
			<point x="362" y="793" type="line"/>
			<point x="267" y="908" type="line"/>
			<point x="233" y="908" type="line"/>
			<point x="90" y="793" type="line"/>
		</contour>
		<contour>
			<point x="223" y="700" type="line"/>
			<point x="188" y="700" type="line"/>
			<point x="39" y="0" type="line"/>
			<point x="74" y="0" type="line"/>
		</contour>
	</outline>
</glyph>
<glyph name="Idieresis" format="2">
  <advance width="219"/>
  <unicode hex="00CF"/>
  <note>
Idieresis
</note>
  <outline>
    <contour>
      <point x="163" y="880" type="line"/>
      <point x="123" y="880" type="line"/>
      <point x="111" y="822" type="line"/>
      <point x="151" y="822" type="line"/>
    </contour>
    <contour>
      <point x="348" y="880" type="line"/>
      <point x="308" y="880" type="line"/>
      <point x="296" y="822" type="line"/>
      <point x="336" y="822" type="line"/>
    </contour>
    <contour>
      <point x="223" y="700" type="line"/>
      <point x="188" y="700" type="line"/>
      <point x="39" y="0" type="line"/>
      <point x="74" y="0" type="line"/>
    </contour>
  </outline>
</glyph>
<glyph name="Eth" format="2">
	<advance width="641"/>
	<unicode hex="00D0"/>
	<note>
		Eth
	</note>
	<outline>
		<contour>
			<point x="128" y="338" type="line"/>
			<point x="56" y="0" type="line"/>
			<point x="290" y="0" type="line" smooth="yes"/>
			<point x="526" y="0"/>
			<point x="617" y="284"/>
			<point x="617" y="496" type="curve" smooth="yes"/>
			<point x="617" y="617"/>
			<point x="587" y="700"/>
			<point x="437" y="700" type="curve" smooth="yes"/>
			<point x="205" y="700" type="line"/>
			<point x="135" y="372" type="line"/>
			<point x="60" y="372" type="line"/>
			<point x="52" y="338" type="line"/>
		</contour>
		<contour>
			<point x="291" y="34" type="curve" smooth="yes"/>
			<point x="98" y="34" type="line"/>
			<point x="162" y="338" type="line"/>
			<point x="379" y="338" type="line"/>
			<point x="387" y="372" type="line"/>
			<point x="170" y="372" type="line"/>
			<point x="232" y="666" type="line"/>
			<point x="435" y="666" type="line" smooth="yes"/>
			<point x="563" y="666"/>
			<point x="579" y="592"/>
			<point x="579" y="500" type="curve" smooth="yes"/>
			<point x="579" y="304"/>
			<point x="493" y="34"/>
		</contour>
	</outline>
</glyph>
<glyph name="Ntilde" format="2">
	<advance width="632"/>
	<unicode hex="00D1"/>
	<note>
		Ntilde
	</note>
	<outline>
		<contour>
			<point x="609" y="861" type="curve"/>
			<point x="596" y="883" type="line"/>
			<point x="596" y="883"/>
			<point x="544" y="842"/>
			<point x="526" y="842" type="curve" smooth="yes"/>
			<point x="494" y="842"/>
			<point x="430" y="895"/>
			<point x="390" y="895" type="curve" smooth="yes"/>
			<point x="357" y="895"/>
			<point x="290" y="841"/>
			<point x="290" y="841" type="curve"/>
			<point x="302" y="819" type="line"/>
			<point x="302" y="819"/>
			<point x="360" y="864"/>
			<point x="381" y="864" type="curve" smooth="yes"/>
			<point x="413" y="864"/>
			<point x="477" y="810"/>
			<point x="517" y="810" type="curve" smooth="yes"/>
			<point x="548" y="810"/>
			<point x="609" y="861"/>
		</contour>
		<contour>
			<point x="273" y="700" type="line"/>
			<point x="188" y="700" type="line"/>
			<point x="40" y="0" type="line"/>
			<point x="75" y="0" type="line"/>
			<point x="216" y="666" type="line"/>
			<point x="246" y="666" type="line"/>
			<point x="402" y="0" type="line"/>
			<point x="487" y="0" type="line"/>
			<point x="637" y="700" type="line"/>
			<point x="602" y="700" type="line"/>
			<point x="459" y="34" type="line"/>
			<point x="429" y="34" type="line"/>
		</contour>
	</outline>
</glyph>
<glyph name="Otilde" format="2">
  <advance width="646"/>
  <unicode hex="00D5"/>
  <note>
Otilde
</note>
  <outline>
    <contour>
      <point x="604" y="861" type="curve"/>
      <point x="591" y="883" type="line"/>
      <point x="591" y="883"/>
      <point x="539" y="842"/>
      <point x="521" y="842" type="curve" smooth="yes"/>
      <point x="489" y="842"/>
      <point x="425" y="895"/>
      <point x="385" y="895" type="curve" smooth="yes"/>
      <point x="352" y="895"/>
      <point x="285" y="841"/>
      <point x="285" y="841" type="curve"/>
      <point x="297" y="819" type="line"/>
      <point x="297" y="819"/>
      <point x="355" y="864"/>
      <point x="376" y="864" type="curve" smooth="yes"/>
      <point x="408" y="864"/>
      <point x="472" y="810"/>
      <point x="512" y="810" type="curve" smooth="yes"/>
      <point x="543" y="810"/>
      <point x="604" y="861"/>
    </contour>
    <contour>
      <point x="277" y="-8" type="curve" smooth="yes"/>
      <point x="522" y="-8"/>
      <point x="622" y="267"/>
      <point x="622" y="495" type="curve" smooth="yes"/>
      <point x="622" y="666"/>
      <point x="533" y="707"/>
      <point x="411" y="707" type="curve" smooth="yes"/>
      <point x="164" y="707"/>
      <point x="68" y="435"/>
      <point x="68" y="208" type="curve" smooth="yes"/>
      <point x="68" y="48"/>
      <point x="145" y="-8"/>
    </contour>
    <contour>
      <point x="280" y="27" type="curve" smooth="yes"/>
      <point x="188" y="27"/>
      <point x="105" y="62"/>
      <point x="105" y="194" type="curve" smooth="yes"/>
      <point x="105" y="365"/>
      <point x="173" y="673"/>
      <point x="408" y="673" type="curve" smooth="yes"/>
      <point x="511" y="673"/>
      <point x="586" y="639"/>
      <point x="586" y="507" type="curve" smooth="yes"/>
      <point x="586" y="337"/>
      <point x="514" y="27"/>
    </contour>
  </outline>
</glyph>
<glyph name="multiply" format="2">
  <advance width="560"/>
  <unicode hex="00D7"/>
  <note>
multiply
</note>
  <outline>
    <contour>
      <point x="294" y="316" type="line"/>
      <point x="166" y="479" type="line"/>
      <point x="136" y="454" type="line"/>
      <point x="264" y="291" type="line"/>
      <point x="66" y="128" type="line"/>
      <point x="86" y="103" type="line"/>
      <point x="284" y="266" type="line"/>
      <point x="412" y="103" type="line"/>
      <point x="442" y="128" type="line"/>
      <point x="314" y="291" type="line"/>
      <point x="512" y="454" type="line"/>
      <point x="492" y="479" type="line"/>
    </contour>
  </outline>
</glyph>
<glyph name="Oslash" format="2">
	<advance width="646"/>
	<unicode hex="00D8"/>
	<note>
		Oslash
	</note>
	<outline>
		<contour>
			<point x="277" y="-8" type="curve" smooth="yes"/>
			<point x="522" y="-8"/>
			<point x="622" y="267"/>
			<point x="622" y="495" type="curve" smooth="yes"/>
			<point x="622" y="571"/>
			<point x="604" y="621"/>
			<point x="574" y="654" type="curve"/>
			<point x="628" y="730" type="line"/>
			<point x="602" y="744" type="line"/>
			<point x="552" y="673" type="line"/>
			<point x="515" y="699"/>
			<point x="466" y="707"/>
			<point x="411" y="707" type="curve" smooth="yes"/>
			<point x="164" y="707"/>
			<point x="68" y="435"/>
			<point x="68" y="208" type="curve" smooth="yes"/>
			<point x="68" y="137"/>
			<point x="83" y="87"/>
			<point x="111" y="53" type="curve"/>
			<point x="52" y="-31" type="line"/>
			<point x="78" y="-45" type="line"/>
			<point x="132" y="32" type="line"/>
			<point x="168" y="4"/>
			<point x="217" y="-8"/>
		</contour>
		<contour>
			<point x="105" y="194" type="curve" smooth="yes"/>
			<point x="105" y="365"/>
			<point x="173" y="673"/>
			<point x="408" y="673" type="curve" smooth="yes"/>
			<point x="457" y="673"/>
			<point x="499" y="665"/>
			<point x="531" y="643" type="curve"/>
			<point x="135" y="85" type="line"/>
			<point x="116" y="111"/>
			<point x="105" y="146"/>
		</contour>
		<contour>
			<point x="280" y="27" type="curve" smooth="yes"/>
			<point x="233" y="27"/>
			<point x="187" y="36"/>
			<point x="155" y="63" type="curve"/>
			<point x="552" y="623" type="line"/>
			<point x="574" y="598"/>
			<point x="586" y="560"/>
			<point x="586" y="507" type="curve" smooth="yes"/>
			<point x="586" y="337"/>
			<point x="514" y="27"/>
		</contour>
	</outline>
</glyph>
<glyph name="Ugrave" format="2">
  <advance width="615"/>
  <unicode hex="00D9"/>
  <note>
Ugrave
</note>
  <outline>
    <contour>
      <point x="513" y="789" type="line"/>
      <point x="532" y="816" type="line"/>
      <point x="361" y="912" type="line"/>
      <point x="339" y="881" type="line"/>
    </contour>
    <contour>
      <point x="111" y="196" type="curve" smooth="yes"/>
      <point x="219" y="700" type="line"/>
      <point x="184" y="700" type="line"/>
      <point x="76" y="196" type="line" smooth="yes"/>
      <point x="45" y="51"/>
      <point x="130" y="-10"/>
      <point x="272" y="-10" type="curve" smooth="yes"/>
      <point x="415" y="-10"/>
      <point x="483" y="41"/>
      <point x="516" y="196" type="curve" smooth="yes"/>
      <point x="624" y="700" type="line"/>
      <point x="589" y="700" type="line"/>
      <point x="481" y="196" type="line" smooth="yes"/>
      <point x="454" y="69"/>
      <point x="393" y="24"/>
      <point x="271" y="24" type="curve" smooth="yes"/>
      <point x="146" y="24"/>
      <point x="84" y="70"/>
    </contour>
  </outline>
</glyph>
<glyph name="Ucircumflex" format="2">
	<advance width="615"/>
	<unicode hex="00DB"/>
	<note>
		Ucircumflex
	</note>
	<outline>
		<contour>
			<point x="335" y="793" type="line"/>
			<point x="446" y="878" type="line"/>
			<point x="521" y="793" type="line"/>
			<point x="560" y="793" type="line"/>
			<point x="465" y="908" type="line"/>
			<point x="431" y="908" type="line"/>
			<point x="288" y="793" type="line"/>
		</contour>
		<contour>
			<point x="111" y="196" type="curve" smooth="yes"/>
			<point x="219" y="700" type="line"/>
			<point x="184" y="700" type="line"/>
			<point x="76" y="196" type="line" smooth="yes"/>
			<point x="45" y="51"/>
			<point x="130" y="-10"/>
			<point x="272" y="-10" type="curve" smooth="yes"/>
			<point x="415" y="-10"/>
			<point x="483" y="41"/>
			<point x="516" y="196" type="curve" smooth="yes"/>
			<point x="624" y="700" type="line"/>
			<point x="589" y="700" type="line"/>
			<point x="481" y="196" type="line" smooth="yes"/>
			<point x="454" y="69"/>
			<point x="393" y="24"/>
			<point x="271" y="24" type="curve" smooth="yes"/>
			<point x="146" y="24"/>
			<point x="84" y="70"/>
		</contour>
	</outline>
</glyph>
<glyph name="Udieresis" format="2">
	<advance width="615"/>
	<unicode hex="00DC"/>
	<note>
		Udieresis
	</note>
	<outline>
		<contour>
			<point x="361" y="880" type="line"/>
			<point x="321" y="880" type="line"/>
			<point x="309" y="822" type="line"/>
			<point x="349" y="822" type="line"/>
		</contour>
		<contour>
			<point x="546" y="880" type="line"/>
			<point x="506" y="880" type="line"/>
			<point x="494" y="822" type="line"/>
			<point x="534" y="822" type="line"/>
		</contour>
		<contour>
			<point x="111" y="196" type="curve" smooth="yes"/>
			<point x="219" y="700" type="line"/>
			<point x="184" y="700" type="line"/>
			<point x="76" y="196" type="line" smooth="yes"/>
			<point x="45" y="51"/>
			<point x="130" y="-10"/>
			<point x="272" y="-10" type="curve" smooth="yes"/>
			<point x="415" y="-10"/>
			<point x="483" y="41"/>
			<point x="516" y="196" type="curve" smooth="yes"/>
			<point x="624" y="700" type="line"/>
			<point x="589" y="700" type="line"/>
			<point x="481" y="196" type="line" smooth="yes"/>
			<point x="454" y="69"/>
			<point x="393" y="24"/>
			<point x="271" y="24" type="curve" smooth="yes"/>
			<point x="146" y="24"/>
			<point x="84" y="70"/>
		</contour>
	</outline>
</glyph>
<glyph name="Yacute" format="2">
	<advance width="521"/>
	<unicode hex="00DD"/>
	<note>
		Yacute
	</note>
	<outline>
		<contour>
			<point x="464" y="912" type="line"/>
			<point x="293" y="816" type="line"/>
			<point x="309" y="789" type="line"/>
			<point x="483" y="881" type="line"/>
		</contour>
		<contour>
			<point x="253" y="301" type="line"/>
			<point x="189" y="0" type="line"/>
			<point x="224" y="0" type="line"/>
			<point x="287" y="297" type="line"/>
			<point x="594" y="700" type="line"/>
			<point x="553" y="700" type="line"/>
			<point x="275" y="334" type="line"/>
			<point x="159" y="700" type="line"/>
			<point x="123" y="700" type="line"/>
		</contour>
	</outline>
</glyph>
<glyph name="Thorn" format="2">
  <advance width="575"/>
  <unicode hex="00DE"/>
  <note>
Thorn
</note>
  <outline>
    <contour>
      <point x="223" y="700" type="line"/>
      <point x="188" y="700" type="line"/>
      <point x="39" y="0" type="line"/>
      <point x="74" y="0" type="line"/>
      <point x="109" y="165" type="line"/>
      <point x="294" y="165" type="line" smooth="yes"/>
      <point x="473" y="165"/>
      <point x="555" y="292"/>
      <point x="555" y="414" type="curve" smooth="yes"/>
      <point x="555" y="510"/>
      <point x="503" y="568"/>
      <point x="383" y="568" type="curve" smooth="yes"/>
      <point x="195" y="568" type="line"/>
    </contour>
    <contour>
      <point x="295" y="199" type="curve" smooth="yes"/>
      <point x="116" y="199" type="line"/>
      <point x="188" y="534" type="line"/>
      <point x="376" y="534" type="line" smooth="yes"/>
      <point x="475" y="534"/>
      <point x="515" y="493"/>
      <point x="515" y="422" type="curve" smooth="yes"/>
      <point x="515" y="315"/>
      <point x="453" y="199"/>
    </contour>
  </outline>
</glyph>
<glyph name="germandbls" format="2">
	<advance width="528"/>
	<unicode hex="00DF"/>
	<note>
		germandbls
	</note>
	<outline>
		<contour>
			<point x="151" y="583" type="curve" smooth="yes"/>
			<point x="27" y="0" type="line"/>
			<point x="62" y="0" type="line"/>
			<point x="182" y="565" type="line" smooth="yes"/>
			<point x="203" y="664"/>
			<point x="251" y="706"/>
			<point x="338" y="706" type="curve" smooth="yes"/>
			<point x="412" y="706"/>
			<point x="445" y="672"/>
			<point x="445" y="630" type="curve" smooth="yes"/>
			<point x="445" y="579"/>
			<point x="413" y="550"/>
			<point x="368" y="520" type="curve" smooth="yes"/>
			<point x="305" y="478"/>
			<point x="262" y="447"/>
			<point x="262" y="389" type="curve" smooth="yes"/>
			<point x="262" y="355"/>
			<point x="277" y="337"/>
			<point x="322" y="307" type="curve" smooth="yes"/>
			<point x="372" y="273" type="line" smooth="yes"/>
			<point x="422" y="239"/>
			<point x="436" y="212"/>
			<point x="436" y="167" type="curve" smooth="yes"/>
			<point x="436" y="90"/>
			<point x="391" y="25"/>
			<point x="256" y="25" type="curve" smooth="yes"/>
			<point x="203" y="25"/>
			<point x="148" y="34"/>
			<point x="148" y="34" type="curve"/>
			<point x="139" y="1" type="line"/>
			<point x="139" y="1"/>
			<point x="192" y="-9"/>
			<point x="249" y="-9" type="curve" smooth="yes"/>
			<point x="420" y="-9"/>
			<point x="475" y="79"/>
			<point x="475" y="171" type="curve" smooth="yes"/>
			<point x="475" y="226"/>
			<point x="456" y="263"/>
			<point x="405" y="296" type="curve" smooth="yes"/>
			<point x="338" y="340" type="line" smooth="yes"/>
			<point x="308" y="359"/>
			<point x="298" y="371"/>
			<point x="298" y="393" type="curve" smooth="yes"/>
			<point x="298" y="433"/>
			<point x="326" y="455"/>
			<point x="387" y="494" type="curve" smooth="yes"/>
			<point x="471" y="548"/>
			<point x="484" y="593"/>
			<point x="484" y="633" type="curve" smooth="yes"/>
			<point x="484" y="689"/>
			<point x="444" y="740"/>
			<point x="338" y="740" type="curve" smooth="yes"/>
			<point x="239" y="740"/>
			<point x="175" y="695"/>
		</contour>
	</outline>
</glyph>
<glyph name="aacute" format="2">
	<advance width="489"/>
	<unicode hex="00E1"/>
	<note>
		aacute
	</note>
	<outline>
		<contour>
			<point x="456" y="732" type="line"/>
			<point x="246" y="636" type="line"/>
			<point x="258" y="609" type="line"/>
			<point x="470" y="701" type="line"/>
		</contour>
		<contour>
			<point x="152" y="-10" type="curve" smooth="yes"/>
			<point x="262" y="-10"/>
			<point x="348" y="126"/>
			<point x="348" y="126" type="curve"/>
			<point x="343" y="103"/>
			<point x="326" y="0"/>
			<point x="326" y="0" type="curve"/>
			<point x="359" y="0" type="line"/>
			<point x="359" y="0"/>
			<point x="373" y="99"/>
			<point x="388" y="163" type="curve" smooth="yes"/>
			<point x="464" y="489" type="line"/>
			<point x="464" y="489"/>
			<point x="346" y="509"/>
			<point x="289" y="509" type="curve" smooth="yes"/>
			<point x="129" y="509"/>
			<point x="39" y="287"/>
			<point x="39" y="143" type="curve" smooth="yes"/>
			<point x="39" y="35"/>
			<point x="88" y="-10"/>
		</contour>
		<contour>
			<point x="289" y="477" type="curve" smooth="yes"/>
			<point x="350" y="477"/>
			<point x="423" y="462"/>
			<point x="423" y="462" type="curve"/>
			<point x="358" y="182" type="line"/>
			<point x="358" y="182"/>
			<point x="254" y="23"/>
			<point x="156" y="23" type="curve" smooth="yes"/>
			<point x="110" y="23"/>
			<point x="75" y="58"/>
			<point x="75" y="143" type="curve" smooth="yes"/>
			<point x="75" y="265"/>
			<point x="149" y="477"/>
		</contour>
	</outline>
</glyph>
<glyph name="atilde" format="2">
  <advance width="489"/>
  <unicode hex="00E3"/>
  <note>
atilde
</note>
  <outline>
    <contour>
      <point x="518" y="681" type="curve"/>
      <point x="505" y="703" type="line"/>
      <point x="505" y="703"/>
      <point x="453" y="662"/>
      <point x="435" y="662" type="curve" smooth="yes"/>
      <point x="403" y="662"/>
      <point x="339" y="715"/>
      <point x="299" y="715" type="curve" smooth="yes"/>
      <point x="266" y="715"/>
      <point x="199" y="661"/>
      <point x="199" y="661" type="curve"/>
      <point x="211" y="639" type="line"/>
      <point x="211" y="639"/>
      <point x="269" y="684"/>
      <point x="290" y="684" type="curve" smooth="yes"/>
      <point x="322" y="684"/>
      <point x="386" y="630"/>
      <point x="426" y="630" type="curve" smooth="yes"/>
      <point x="457" y="630"/>
      <point x="518" y="681"/>
    </contour>
    <contour>
      <point x="152" y="-10" type="curve" smooth="yes"/>
      <point x="262" y="-10"/>
      <point x="348" y="126"/>
      <point x="348" y="126" type="curve"/>
      <point x="343" y="103"/>
      <point x="326" y="0"/>
      <point x="326" y="0" type="curve"/>
      <point x="359" y="0" type="line"/>
      <point x="359" y="0"/>
      <point x="373" y="99"/>
      <point x="388" y="163" type="curve" smooth="yes"/>
      <point x="464" y="489" type="line"/>
      <point x="464" y="489"/>
      <point x="346" y="509"/>
      <point x="289" y="509" type="curve" smooth="yes"/>
      <point x="129" y="509"/>
      <point x="39" y="287"/>
      <point x="39" y="143" type="curve" smooth="yes"/>
      <point x="39" y="35"/>
      <point x="88" y="-10"/>
    </contour>
    <contour>
      <point x="289" y="477" type="curve" smooth="yes"/>
      <point x="350" y="477"/>
      <point x="423" y="462"/>
      <point x="423" y="462" type="curve"/>
      <point x="358" y="182" type="line"/>
      <point x="358" y="182"/>
      <point x="254" y="23"/>
      <point x="156" y="23" type="curve" smooth="yes"/>
      <point x="110" y="23"/>
      <point x="75" y="58"/>
      <point x="75" y="143" type="curve" smooth="yes"/>
      <point x="75" y="265"/>
      <point x="149" y="477"/>
    </contour>
  </outline>
</glyph>
<glyph name="aring" format="2">
	<advance width="489"/>
	<unicode hex="00E5"/>
	<note>
		aring
	</note>
	<outline>
		<contour>
			<point x="256" y="633" type="curve" smooth="yes"/>
			<point x="256" y="590"/>
			<point x="288" y="555"/>
			<point x="339" y="555" type="curve" smooth="yes"/>
			<point x="401" y="555"/>
			<point x="451" y="605"/>
			<point x="451" y="668" type="curve" smooth="yes"/>
			<point x="451" y="711"/>
			<point x="418" y="745"/>
			<point x="369" y="745" type="curve" smooth="yes"/>
			<point x="311" y="745"/>
			<point x="256" y="697"/>
		</contour>
		<contour>
			<point x="290" y="635" type="curve" smooth="yes"/>
			<point x="290" y="680"/>
			<point x="328" y="713"/>
			<point x="367" y="713" type="curve" smooth="yes"/>
			<point x="397" y="713"/>
			<point x="418" y="694"/>
			<point x="418" y="665" type="curve" smooth="yes"/>
			<point x="418" y="622"/>
			<point x="380" y="586"/>
			<point x="340" y="586" type="curve" smooth="yes"/>
			<point x="310" y="586"/>
			<point x="290" y="607"/>
		</contour>
		<contour>
			<point x="152" y="-10" type="curve" smooth="yes"/>
			<point x="262" y="-10"/>
			<point x="348" y="126"/>
			<point x="348" y="126" type="curve"/>
			<point x="343" y="103"/>
			<point x="326" y="0"/>
			<point x="326" y="0" type="curve"/>
			<point x="359" y="0" type="line"/>
			<point x="359" y="0"/>
			<point x="373" y="99"/>
			<point x="388" y="163" type="curve" smooth="yes"/>
			<point x="464" y="489" type="line"/>
			<point x="464" y="489"/>
			<point x="346" y="509"/>
			<point x="289" y="509" type="curve" smooth="yes"/>
			<point x="129" y="509"/>
			<point x="39" y="287"/>
			<point x="39" y="143" type="curve" smooth="yes"/>
			<point x="39" y="35"/>
			<point x="88" y="-10"/>
		</contour>
		<contour>
			<point x="289" y="477" type="curve" smooth="yes"/>
			<point x="350" y="477"/>
			<point x="423" y="462"/>
			<point x="423" y="462" type="curve"/>
			<point x="358" y="182" type="line"/>
			<point x="358" y="182"/>
			<point x="254" y="23"/>
			<point x="156" y="23" type="curve" smooth="yes"/>
			<point x="110" y="23"/>
			<point x="75" y="58"/>
			<point x="75" y="143" type="curve" smooth="yes"/>
			<point x="75" y="265"/>
			<point x="149" y="477"/>
		</contour>
	</outline>
</glyph>
<glyph name="ccedilla" format="2">
	<advance width="401"/>
	<unicode hex="00E7"/>
	<note>
		ccedilla
	</note>
	<outline>
		<contour>
			<point x="254" y="-114" type="curve" smooth="yes"/>
			<point x="254" y="-68"/>
			<point x="223" y="-57"/>
			<point x="166" y="-57" type="curve"/>
			<point x="182" y="-10" type="line"/>
			<point x="260" y="-7"/>
			<point x="313" y="10"/>
			<point x="313" y="10" type="curve"/>
			<point x="313" y="42" type="line"/>
			<point x="313" y="42"/>
			<point x="234" y="22"/>
			<point x="169" y="22" type="curve" smooth="yes"/>
			<point x="109" y="22"/>
			<point x="76" y="52"/>
			<point x="76" y="145" type="curve" smooth="yes"/>
			<point x="76" y="278"/>
			<point x="153" y="477"/>
			<point x="294" y="477" type="curve" smooth="yes"/>
			<point x="347" y="477"/>
			<point x="404" y="466"/>
			<point x="404" y="466" type="curve"/>
			<point x="413" y="497" type="line"/>
			<point x="413" y="497"/>
			<point x="347" y="509"/>
			<point x="295" y="509" type="curve" smooth="yes"/>
			<point x="129" y="509"/>
			<point x="40" y="290"/>
			<point x="40" y="148" type="curve" smooth="yes"/>
			<point x="40" y="34"/>
			<point x="86" y="-7"/>
			<point x="155" y="-10" type="curve"/>
			<point x="130" y="-85" type="line"/>
			<point x="179" y="-85" type="line" smooth="yes"/>
			<point x="210" y="-85"/>
			<point x="218" y="-97"/>
			<point x="218" y="-118" type="curve" smooth="yes"/>
			<point x="218" y="-142"/>
			<point x="206" y="-173"/>
			<point x="158" y="-173" type="curve" smooth="yes"/>
			<point x="124" y="-173"/>
			<point x="81" y="-169"/>
			<point x="81" y="-169" type="curve"/>
			<point x="73" y="-197" type="line"/>
			<point x="73" y="-197"/>
			<point x="111" y="-201"/>
			<point x="155" y="-201" type="curve" smooth="yes"/>
			<point x="230" y="-201"/>
			<point x="254" y="-157"/>
		</contour>
	</outline>
</glyph>
<glyph name="igrave" format="2">
  <advance width="195"/>
  <unicode hex="00EC"/>
  <note>
igrave
</note>
  <outline>
    <contour>
      <point x="253" y="609" type="line"/>
      <point x="269" y="636" type="line"/>
      <point x="98" y="732" type="line"/>
      <point x="79" y="701" type="line"/>
    </contour>
    <contour>
      <point x="169" y="500" type="line"/>
      <point x="134" y="500" type="line"/>
      <point x="27" y="0" type="line"/>
      <point x="62" y="0" type="line"/>
    </contour>
  </outline>
</glyph>
<glyph name="iacute" format="2">
	<advance width="195"/>
	<unicode hex="00ED"/>
	<note>
		iacute
	</note>
	<outline>
		<contour>
			<point x="284" y="732" type="line"/>
			<point x="74" y="636" type="line"/>
			<point x="86" y="609" type="line"/>
			<point x="298" y="701" type="line"/>
		</contour>
		<contour>
			<point x="169" y="500" type="line"/>
			<point x="134" y="500" type="line"/>
			<point x="27" y="0" type="line"/>
			<point x="62" y="0" type="line"/>
		</contour>
	</outline>
</glyph>
<glyph name="icircumflex" format="2">
	<advance width="195"/>
	<unicode hex="00EE"/>
	<note>
		icircumflex
	</note>
	<outline>
		<contour>
			<point x="80" y="613" type="line"/>
			<point x="191" y="698" type="line"/>
			<point x="266" y="613" type="line"/>
			<point x="304" y="613" type="line"/>
			<point x="209" y="728" type="line"/>
			<point x="175" y="728" type="line"/>
			<point x="32" y="613" type="line"/>
		</contour>
		<contour>
			<point x="169" y="500" type="line"/>
			<point x="134" y="500" type="line"/>
			<point x="27" y="0" type="line"/>
			<point x="62" y="0" type="line"/>
		</contour>
	</outline>
</glyph>
<glyph name="idieresis" format="2">
  <advance width="195"/>
  <unicode hex="00EF"/>
  <note>
idieresis
</note>
  <outline>
    <contour>
      <point x="109" y="700" type="line"/>
      <point x="71" y="700" type="line"/>
      <point x="59" y="642" type="line"/>
      <point x="97" y="642" type="line"/>
    </contour>
    <contour>
      <point x="296" y="700" type="line"/>
      <point x="258" y="700" type="line"/>
      <point x="246" y="642" type="line"/>
      <point x="284" y="642" type="line"/>
    </contour>
    <contour>
      <point x="169" y="500" type="line"/>
      <point x="134" y="500" type="line"/>
      <point x="27" y="0" type="line"/>
      <point x="62" y="0" type="line"/>
    </contour>
  </outline>
</glyph>
<glyph name="eth" format="2">
  <advance width="565"/>
  <unicode hex="00F0"/>
  <note>
eth
</note>
  <outline>
    <contour>
      <point x="342" y="656" type="curve"/>
      <point x="221" y="584" type="line"/>
      <point x="235" y="557" type="line"/>
      <point x="371" y="637" type="line"/>
      <point x="459" y="575"/>
      <point x="492" y="494"/>
      <point x="487" y="362" type="curve"/>
      <point x="487" y="362"/>
      <point x="402" y="425"/>
      <point x="284" y="425" type="curve" smooth="yes"/>
      <point x="145" y="425"/>
      <point x="47" y="345"/>
      <point x="47" y="205" type="curve" smooth="yes"/>
      <point x="47" y="76"/>
      <point x="129" y="-9"/>
      <point x="256" y="-9" type="curve" smooth="yes"/>
      <point x="460" y="-9"/>
      <point x="524" y="217"/>
      <point x="524" y="385" type="curve" smooth="yes"/>
      <point x="524" y="513"/>
      <point x="484" y="601"/>
      <point x="408" y="658" type="curve"/>
      <point x="510" y="719" type="line"/>
      <point x="495" y="746" type="line"/>
      <point x="379" y="677" type="line"/>
      <point x="340" y="702"/>
      <point x="293" y="723"/>
      <point x="230" y="740" type="curve"/>
      <point x="220" y="709" type="line"/>
      <point x="268" y="694"/>
      <point x="308" y="676"/>
    </contour>
    <contour>
      <point x="279" y="391" type="curve" smooth="yes"/>
      <point x="391" y="391"/>
      <point x="485" y="324"/>
      <point x="485" y="324" type="curve"/>
      <point x="454" y="114"/>
      <point x="377" y="25"/>
      <point x="259" y="25" type="curve" smooth="yes"/>
      <point x="152" y="25"/>
      <point x="84" y="99"/>
      <point x="84" y="206" type="curve" smooth="yes"/>
      <point x="84" y="327"/>
      <point x="171" y="391"/>
    </contour>
  </outline>
</glyph>
<glyph name="oacute" format="2">
  <advance width="493"/>
  <unicode hex="00F3"/>
  <note>
oacute
</note>
  <outline>
    <contour>
      <point x="424" y="732" type="line"/>
      <point x="214" y="636" type="line"/>
      <point x="226" y="609" type="line"/>
      <point x="438" y="701" type="line"/>
    </contour>
    <contour>
      <point x="298" y="510" type="curve" smooth="yes"/>
      <point x="94" y="510"/>
      <point x="43" y="263"/>
      <point x="43" y="155" type="curve" smooth="yes"/>
      <point x="43" y="42"/>
      <point x="97" y="-10"/>
      <point x="196" y="-10" type="curve" smooth="yes"/>
      <point x="396" y="-10"/>
      <point x="450" y="213"/>
      <point x="450" y="361" type="curve" smooth="yes"/>
      <point x="450" y="465"/>
      <point x="395" y="510"/>
    </contour>
    <contour>
      <point x="199" y="22" type="curve" smooth="yes"/>
      <point x="114" y="22"/>
      <point x="79" y="68"/>
      <point x="79" y="145" type="curve" smooth="yes"/>
      <point x="79" y="254"/>
      <point x="123" y="478"/>
      <point x="295" y="478" type="curve" smooth="yes"/>
      <point x="375" y="478"/>
      <point x="414" y="444"/>
      <point x="414" y="371" type="curve" smooth="yes"/>
      <point x="414" y="260"/>
      <point x="381" y="22"/>
    </contour>
  </outline>
</glyph>
<glyph name="otilde" format="2">
  <advance width="493"/>
  <unicode hex="00F5"/>
  <note>
otilde
</note>
  <outline>
    <contour>
      <point x="486" y="681" type="curve"/>
      <point x="473" y="703" type="line"/>
      <point x="473" y="703"/>
      <point x="421" y="662"/>
      <point x="403" y="662" type="curve" smooth="yes"/>
      <point x="371" y="662"/>
      <point x="307" y="715"/>
      <point x="267" y="715" type="curve" smooth="yes"/>
      <point x="234" y="715"/>
      <point x="167" y="661"/>
      <point x="167" y="661" type="curve"/>
      <point x="179" y="639" type="line"/>
      <point x="179" y="639"/>
      <point x="237" y="684"/>
      <point x="258" y="684" type="curve" smooth="yes"/>
      <point x="290" y="684"/>
      <point x="354" y="630"/>
      <point x="394" y="630" type="curve" smooth="yes"/>
      <point x="425" y="630"/>
      <point x="486" y="681"/>
    </contour>
    <contour>
      <point x="298" y="510" type="curve" smooth="yes"/>
      <point x="94" y="510"/>
      <point x="43" y="263"/>
      <point x="43" y="155" type="curve" smooth="yes"/>
      <point x="43" y="42"/>
      <point x="97" y="-10"/>
      <point x="196" y="-10" type="curve" smooth="yes"/>
      <point x="396" y="-10"/>
      <point x="450" y="213"/>
      <point x="450" y="361" type="curve" smooth="yes"/>
      <point x="450" y="465"/>
      <point x="395" y="510"/>
    </contour>
    <contour>
      <point x="199" y="22" type="curve" smooth="yes"/>
      <point x="114" y="22"/>
      <point x="79" y="68"/>
      <point x="79" y="145" type="curve" smooth="yes"/>
      <point x="79" y="254"/>
      <point x="123" y="478"/>
      <point x="295" y="478" type="curve" smooth="yes"/>
      <point x="375" y="478"/>
      <point x="414" y="444"/>
      <point x="414" y="371" type="curve" smooth="yes"/>
      <point x="414" y="260"/>
      <point x="381" y="22"/>
    </contour>
  </outline>
</glyph>
<glyph name="divide" format="2">
  <advance width="560"/>
  <unicode hex="00F7"/>
  <note>
divide
</note>
  <outline>
    <contour>
      <point x="355" y="493" type="line"/>
      <point x="309" y="493" type="line"/>
      <point x="292" y="413" type="line"/>
      <point x="338" y="413" type="line"/>
    </contour>
    <contour>
      <point x="92" y="308" type="line"/>
      <point x="84" y="274" type="line"/>
      <point x="486" y="274" type="line"/>
      <point x="494" y="308" type="line"/>
    </contour>
    <contour>
      <point x="286" y="169" type="line"/>
      <point x="240" y="169" type="line"/>
      <point x="223" y="89" type="line"/>
      <point x="269" y="89" type="line"/>
    </contour>
  </outline>
</glyph>
<glyph name="yacute" format="2">
	<advance width="453"/>
	<unicode hex="00FD"/>
	<note>
		yacute
	</note>
	<outline>
		<contour>
			<point x="411" y="732" type="line"/>
			<point x="201" y="636" type="line"/>
			<point x="213" y="609" type="line"/>
			<point x="425" y="701" type="line"/>
		</contour>
		<contour>
			<point x="164" y="32" type="line"/>
			<point x="123" y="500" type="line"/>
			<point x="87" y="500" type="line"/>
			<point x="133" y="0" type="line"/>
			<point x="165" y="0" type="line"/>
			<point x="39" y="-230" type="line"/>
			<point x="78" y="-230" type="line"/>
			<point x="481" y="500" type="line"/>
			<point x="443" y="500" type="line"/>
			<point x="184" y="32" type="line"/>
		</contour>
	</outline>
</glyph>
<glyph name="thorn" format="2">
	<advance width="490"/>
	<unicode hex="00FE"/>
	<note>
		thorn
	</note>
	<outline>
		<contour>
			<point x="217" y="730" type="line"/>
			<point x="182" y="730" type="line"/>
			<point x="-22" y="-230" type="line"/>
			<point x="13" y="-230" type="line"/>
			<point x="63" y="7" type="line"/>
			<point x="85" y="2"/>
			<point x="151" y="-10"/>
			<point x="205" y="-10" type="curve" smooth="yes"/>
			<point x="335" y="-10"/>
			<point x="451" y="171"/>
			<point x="451" y="358" type="curve" smooth="yes"/>
			<point x="451" y="462"/>
			<point x="404" y="510"/>
			<point x="336" y="510" type="curve" smooth="yes"/>
			<point x="228" y="510"/>
			<point x="140" y="376"/>
			<point x="140" y="376" type="curve"/>
		</contour>
		<contour>
			<point x="335" y="477" type="curve" smooth="yes"/>
			<point x="379" y="477"/>
			<point x="415" y="443"/>
			<point x="415" y="358" type="curve" smooth="yes"/>
			<point x="415" y="189"/>
			<point x="313" y="23"/>
			<point x="209" y="23" type="curve" smooth="yes"/>
			<point x="145" y="23"/>
			<point x="91" y="34"/>
			<point x="70" y="38" type="curve"/>
			<point x="130" y="318" type="line"/>
			<point x="130" y="318"/>
			<point x="234" y="477"/>
		</contour>
	</outline>
</glyph>
<glyph name="ydieresis" format="2">
	<advance width="453"/>
	<unicode hex="00FF"/>
	<note>
		ydieresis
	</note>
	<outline>
		<contour>
			<point x="236" y="700" type="line"/>
			<point x="198" y="700" type="line"/>
			<point x="186" y="642" type="line"/>
			<point x="224" y="642" type="line"/>
		</contour>
		<contour>
			<point x="423" y="700" type="line"/>
			<point x="385" y="700" type="line"/>
			<point x="373" y="642" type="line"/>
			<point x="411" y="642" type="line"/>
		</contour>
		<contour>
			<point x="164" y="32" type="line"/>
			<point x="123" y="500" type="line"/>
			<point x="87" y="500" type="line"/>
			<point x="133" y="0" type="line"/>
			<point x="165" y="0" type="line"/>
			<point x="39" y="-230" type="line"/>
			<point x="78" y="-230" type="line"/>
			<point x="481" y="500" type="line"/>
			<point x="443" y="500" type="line"/>
			<point x="184" y="32" type="line"/>
		</contour>
	</outline>
</glyph>
<glyph name="Amacron" format="2">
  <advance width="563"/>
  <unicode hex="0100"/>
  <note>
Amacron
</note>
  <outline>
    <contour>
      <point x="543" y="854" type="line"/>
      <point x="276" y="854" type="line"/>
      <point x="270" y="822" type="line"/>
      <point x="537" y="822" type="line"/>
    </contour>
    <contour>
      <point x="338" y="700" type="line"/>
      <point x="-24" y="0" type="line"/>
      <point x="15" y="0" type="line"/>
      <point x="124" y="215" type="line"/>
      <point x="427" y="215" type="line"/>
      <point x="446" y="0" type="line"/>
      <point x="480" y="0" type="line"/>
      <point x="418" y="700" type="line"/>
    </contour>
    <contour>
      <point x="357" y="666" type="line"/>
      <point x="387" y="666" type="line"/>
      <point x="424" y="249" type="line"/>
      <point x="142" y="249" type="line"/>
    </contour>
  </outline>
</glyph>
<glyph name="amacron" format="2">
  <advance width="489"/>
  <unicode hex="0101"/>
  <note>
amacron
</note>
  <outline>
    <contour>
      <point x="492" y="674" type="line"/>
      <point x="225" y="674" type="line"/>
      <point x="219" y="642" type="line"/>
      <point x="486" y="642" type="line"/>
    </contour>
    <contour>
      <point x="152" y="-10" type="curve" smooth="yes"/>
      <point x="262" y="-10"/>
      <point x="348" y="126"/>
      <point x="348" y="126" type="curve"/>
      <point x="343" y="103"/>
      <point x="326" y="0"/>
      <point x="326" y="0" type="curve"/>
      <point x="359" y="0" type="line"/>
      <point x="359" y="0"/>
      <point x="373" y="99"/>
      <point x="388" y="163" type="curve" smooth="yes"/>
      <point x="464" y="489" type="line"/>
      <point x="464" y="489"/>
      <point x="346" y="509"/>
      <point x="289" y="509" type="curve" smooth="yes"/>
      <point x="129" y="509"/>
      <point x="39" y="287"/>
      <point x="39" y="143" type="curve" smooth="yes"/>
      <point x="39" y="35"/>
      <point x="88" y="-10"/>
    </contour>
    <contour>
      <point x="289" y="477" type="curve" smooth="yes"/>
      <point x="350" y="477"/>
      <point x="423" y="462"/>
      <point x="423" y="462" type="curve"/>
      <point x="358" y="182" type="line"/>
      <point x="358" y="182"/>
      <point x="254" y="23"/>
      <point x="156" y="23" type="curve" smooth="yes"/>
      <point x="110" y="23"/>
      <point x="75" y="58"/>
      <point x="75" y="143" type="curve" smooth="yes"/>
      <point x="75" y="265"/>
      <point x="149" y="477"/>
    </contour>
  </outline>
</glyph>
<glyph name="Abreve" format="2">
	<advance width="563"/>
	<unicode hex="0102"/>
	<note>
		Abreve
	</note>
	<outline>
		<contour>
			<point x="322" y="912" type="curve"/>
			<point x="289" y="912" type="line"/>
			<point x="279" y="843"/>
			<point x="322" y="789"/>
			<point x="401" y="789" type="curve" smooth="yes"/>
			<point x="480" y="789"/>
			<point x="535" y="843"/>
			<point x="555" y="912" type="curve"/>
			<point x="518" y="912" type="line"/>
			<point x="502" y="862"/>
			<point x="461" y="821"/>
			<point x="401" y="821" type="curve" smooth="yes"/>
			<point x="341" y="821"/>
			<point x="316" y="862"/>
		</contour>
		<contour>
			<point x="338" y="700" type="line"/>
			<point x="-24" y="0" type="line"/>
			<point x="15" y="0" type="line"/>
			<point x="124" y="215" type="line"/>
			<point x="427" y="215" type="line"/>
			<point x="446" y="0" type="line"/>
			<point x="480" y="0" type="line"/>
			<point x="418" y="700" type="line"/>
		</contour>
		<contour>
			<point x="357" y="666" type="line"/>
			<point x="387" y="666" type="line"/>
			<point x="424" y="249" type="line"/>
			<point x="142" y="249" type="line"/>
		</contour>
	</outline>
</glyph>
<glyph name="abreve" format="2">
	<advance width="489"/>
	<unicode hex="0103"/>
	<note>
		abreve
	</note>
	<outline>
		<contour>
			<point x="271" y="732" type="curve"/>
			<point x="237" y="732" type="line"/>
			<point x="229" y="663"/>
			<point x="269" y="609"/>
			<point x="348" y="609" type="curve" smooth="yes"/>
			<point x="427" y="609"/>
			<point x="485" y="663"/>
			<point x="505" y="732" type="curve"/>
			<point x="466" y="732" type="line"/>
			<point x="450" y="682"/>
			<point x="409" y="641"/>
			<point x="349" y="641" type="curve" smooth="yes"/>
			<point x="289" y="641"/>
			<point x="265" y="682"/>
		</contour>
		<contour>
			<point x="152" y="-10" type="curve" smooth="yes"/>
			<point x="262" y="-10"/>
			<point x="348" y="126"/>
			<point x="348" y="126" type="curve"/>
			<point x="343" y="103"/>
			<point x="326" y="0"/>
			<point x="326" y="0" type="curve"/>
			<point x="359" y="0" type="line"/>
			<point x="359" y="0"/>
			<point x="373" y="99"/>
			<point x="388" y="163" type="curve" smooth="yes"/>
			<point x="464" y="489" type="line"/>
			<point x="464" y="489"/>
			<point x="346" y="509"/>
			<point x="289" y="509" type="curve" smooth="yes"/>
			<point x="129" y="509"/>
			<point x="39" y="287"/>
			<point x="39" y="143" type="curve" smooth="yes"/>
			<point x="39" y="35"/>
			<point x="88" y="-10"/>
		</contour>
		<contour>
			<point x="289" y="477" type="curve" smooth="yes"/>
			<point x="350" y="477"/>
			<point x="423" y="462"/>
			<point x="423" y="462" type="curve"/>
			<point x="358" y="182" type="line"/>
			<point x="358" y="182"/>
			<point x="254" y="23"/>
			<point x="156" y="23" type="curve" smooth="yes"/>
			<point x="110" y="23"/>
			<point x="75" y="58"/>
			<point x="75" y="143" type="curve" smooth="yes"/>
			<point x="75" y="265"/>
			<point x="149" y="477"/>
		</contour>
	</outline>
</glyph>
<glyph name="Aogonek" format="2">
  <advance width="563"/>
  <unicode hex="0104"/>
  <note>
Aogonek
</note>
  <outline>
    <contour>
      <point x="338" y="700" type="line"/>
      <point x="-24" y="0" type="line"/>
      <point x="15" y="0" type="line"/>
      <point x="124" y="215" type="line"/>
      <point x="427" y="215" type="line"/>
      <point x="446" y="1" type="line"/>
      <point x="448" y="1" type="line"/>
      <point x="373" y="-55"/>
      <point x="335" y="-95"/>
      <point x="335" y="-136" type="curve" smooth="yes"/>
      <point x="335" y="-179"/>
      <point x="360" y="-200"/>
      <point x="399" y="-200" type="curve" smooth="yes"/>
      <point x="427" y="-200"/>
      <point x="465" y="-192"/>
      <point x="465" y="-192" type="curve"/>
      <point x="468" y="-159" type="line"/>
      <point x="468" y="-159"/>
      <point x="429" y="-166"/>
      <point x="410" y="-166" type="curve" smooth="yes"/>
      <point x="386" y="-166"/>
      <point x="373" y="-150"/>
      <point x="373" y="-128" type="curve" smooth="yes"/>
      <point x="373" y="-95"/>
      <point x="405" y="-72"/>
      <point x="480" y="0" type="curve"/>
      <point x="418" y="700" type="line"/>
    </contour>
    <contour>
      <point x="357" y="666" type="line"/>
      <point x="387" y="666" type="line"/>
      <point x="424" y="249" type="line"/>
      <point x="142" y="249" type="line"/>
    </contour>
  </outline>
</glyph>
<glyph name="aogonek" format="2">
  <advance width="489"/>
  <unicode hex="0105"/>
  <note>
aogonek
</note>
  <outline>
    <contour>
      <point x="152" y="-10" type="curve" smooth="yes"/>
      <point x="262" y="-10"/>
      <point x="348" y="126"/>
      <point x="348" y="126" type="curve"/>
      <point x="343" y="105"/>
      <point x="329" y="18"/>
      <point x="326" y="2" type="curve"/>
      <point x="254" y="-55"/>
      <point x="214" y="-94"/>
      <point x="214" y="-136" type="curve" smooth="yes"/>
      <point x="214" y="-179"/>
      <point x="239" y="-200"/>
      <point x="278" y="-200" type="curve" smooth="yes"/>
      <point x="306" y="-200"/>
      <point x="344" y="-192"/>
      <point x="344" y="-192" type="curve"/>
      <point x="347" y="-159" type="line"/>
      <point x="347" y="-159"/>
      <point x="308" y="-166"/>
      <point x="289" y="-166" type="curve" smooth="yes"/>
      <point x="265" y="-166"/>
      <point x="252" y="-150"/>
      <point x="252" y="-128" type="curve" smooth="yes"/>
      <point x="252" y="-95"/>
      <point x="283" y="-71"/>
      <point x="357" y="0" type="curve"/>
      <point x="359" y="0" type="line"/>
      <point x="359" y="0"/>
      <point x="373" y="99"/>
      <point x="388" y="163" type="curve" smooth="yes"/>
      <point x="464" y="489" type="line"/>
      <point x="464" y="489"/>
      <point x="346" y="509"/>
      <point x="289" y="509" type="curve" smooth="yes"/>
      <point x="129" y="509"/>
      <point x="39" y="287"/>
      <point x="39" y="143" type="curve" smooth="yes"/>
      <point x="39" y="35"/>
      <point x="88" y="-10"/>
    </contour>
    <contour>
      <point x="289" y="477" type="curve" smooth="yes"/>
      <point x="350" y="477"/>
      <point x="423" y="462"/>
      <point x="423" y="462" type="curve"/>
      <point x="358" y="182" type="line"/>
      <point x="358" y="182"/>
      <point x="254" y="23"/>
      <point x="156" y="23" type="curve" smooth="yes"/>
      <point x="110" y="23"/>
      <point x="75" y="58"/>
      <point x="75" y="143" type="curve" smooth="yes"/>
      <point x="75" y="265"/>
      <point x="149" y="477"/>
    </contour>
  </outline>
</glyph>
<glyph name="Ccircumflex" format="2">
	<advance width="522"/>
	<unicode hex="0108"/>
	<note>
		Ccircumflex
	</note>
	<outline>
		<contour>
			<point x="358" y="793" type="line"/>
			<point x="469" y="878" type="line"/>
			<point x="544" y="793" type="line"/>
			<point x="583" y="793" type="line"/>
			<point x="488" y="908" type="line"/>
			<point x="454" y="908" type="line"/>
			<point x="311" y="793" type="line"/>
		</contour>
		<contour>
			<point x="436" y="11" type="curve"/>
			<point x="440" y="45" type="line"/>
			<point x="386" y="34"/>
			<point x="333" y="24"/>
			<point x="274" y="24" type="curve" smooth="yes"/>
			<point x="148" y="24"/>
			<point x="105" y="67"/>
			<point x="105" y="200" type="curve" smooth="yes"/>
			<point x="105" y="374"/>
			<point x="172" y="676"/>
			<point x="418" y="676" type="curve" smooth="yes"/>
			<point x="464" y="676"/>
			<point x="529" y="665"/>
			<point x="570" y="656" type="curve"/>
			<point x="580" y="690" type="line"/>
			<point x="537" y="700"/>
			<point x="473" y="710"/>
			<point x="424" y="710" type="curve" smooth="yes"/>
			<point x="144" y="710"/>
			<point x="67" y="407"/>
			<point x="67" y="202" type="curve" smooth="yes"/>
			<point x="67" y="35"/>
			<point x="129" y="-10"/>
			<point x="276" y="-10" type="curve" smooth="yes"/>
			<point x="339" y="-10"/>
			<point x="384" y="0"/>
		</contour>
	</outline>
</glyph>
<glyph name="Ccaron" format="2">
  <advance width="522"/>
  <unicode hex="010C"/>
  <note>
Ccaron
</note>
  <outline>
    <contour>
      <point x="560" y="908" type="line"/>
      <point x="449" y="823" type="line"/>
      <point x="374" y="908" type="line"/>
      <point x="335" y="908" type="line"/>
      <point x="430" y="793" type="line"/>
      <point x="464" y="793" type="line"/>
      <point x="607" y="908" type="line"/>
    </contour>
    <contour>
      <point x="436" y="11" type="curve"/>
      <point x="440" y="45" type="line"/>
      <point x="386" y="34"/>
      <point x="333" y="24"/>
      <point x="274" y="24" type="curve" smooth="yes"/>
      <point x="148" y="24"/>
      <point x="105" y="67"/>
      <point x="105" y="200" type="curve" smooth="yes"/>
      <point x="105" y="374"/>
      <point x="172" y="676"/>
      <point x="418" y="676" type="curve" smooth="yes"/>
      <point x="464" y="676"/>
      <point x="529" y="665"/>
      <point x="570" y="656" type="curve"/>
      <point x="580" y="690" type="line"/>
      <point x="537" y="700"/>
      <point x="473" y="710"/>
      <point x="424" y="710" type="curve" smooth="yes"/>
      <point x="144" y="710"/>
      <point x="67" y="407"/>
      <point x="67" y="202" type="curve" smooth="yes"/>
      <point x="67" y="35"/>
      <point x="129" y="-10"/>
      <point x="276" y="-10" type="curve" smooth="yes"/>
      <point x="339" y="-10"/>
      <point x="384" y="0"/>
    </contour>
  </outline>
</glyph>
<glyph name="Dcaron" format="2">
  <advance width="624"/>
  <unicode hex="010E"/>
  <note>
Dcaron
</note>
  <outline>
    <contour>
      <point x="510" y="908" type="line"/>
      <point x="399" y="823" type="line"/>
      <point x="324" y="908" type="line"/>
      <point x="285" y="908" type="line"/>
      <point x="380" y="793" type="line"/>
      <point x="414" y="793" type="line"/>
      <point x="557" y="908" type="line"/>
    </contour>
    <contour>
      <point x="188" y="700" type="line"/>
      <point x="39" y="0" type="line"/>
      <point x="273" y="0" type="line" smooth="yes"/>
      <point x="509" y="0"/>
      <point x="600" y="284"/>
      <point x="600" y="496" type="curve" smooth="yes"/>
      <point x="600" y="617"/>
      <point x="570" y="700"/>
      <point x="420" y="700" type="curve" smooth="yes"/>
    </contour>
    <contour>
      <point x="274" y="34" type="curve" smooth="yes"/>
      <point x="81" y="34" type="line"/>
      <point x="215" y="666" type="line"/>
      <point x="418" y="666" type="line" smooth="yes"/>
      <point x="546" y="666"/>
      <point x="562" y="592"/>
      <point x="562" y="500" type="curve" smooth="yes"/>
      <point x="562" y="304"/>
      <point x="476" y="34"/>
    </contour>
  </outline>
</glyph>
<glyph name="dcaron" format="2">
  <advance width="509"/>
  <unicode hex="010F"/>
  <note>
dcaron
</note>
  <outline>
    <contour>
      <point x="323" y="0" type="line"/>
      <point x="357" y="0" type="line"/>
      <point x="512" y="730" type="line"/>
      <point x="477" y="730" type="line"/>
      <point x="427" y="493" type="line"/>
      <point x="427" y="493"/>
      <point x="357" y="509"/>
      <point x="287" y="509" type="curve" smooth="yes"/>
      <point x="131" y="509"/>
      <point x="39" y="289"/>
      <point x="39" y="142" type="curve" smooth="yes"/>
      <point x="39" y="34"/>
      <point x="89" y="-10"/>
      <point x="153" y="-10" type="curve" smooth="yes"/>
      <point x="261" y="-10"/>
      <point x="351" y="124"/>
      <point x="351" y="124" type="curve"/>
    </contour>
    <contour>
      <point x="552" y="601" type="curve"/>
      <point x="565" y="594" type="line"/>
      <point x="565" y="594"/>
      <point x="616" y="634"/>
      <point x="623" y="669" type="curve" smooth="yes"/>
      <point x="629" y="694"/>
      <point x="636" y="730"/>
      <point x="636" y="730" type="curve"/>
      <point x="602" y="730" type="line"/>
      <point x="602" y="730"/>
      <point x="595" y="690"/>
      <point x="590" y="668" type="curve" smooth="yes"/>
      <point x="587" y="652"/>
      <point x="552" y="601"/>
    </contour>
    <contour>
      <point x="420" y="462" type="curve"/>
      <point x="361" y="181" type="line"/>
      <point x="361" y="181"/>
      <point x="254" y="23"/>
      <point x="157" y="23" type="curve" smooth="yes"/>
      <point x="108" y="23"/>
      <point x="75" y="60"/>
      <point x="75" y="142" type="curve" smooth="yes"/>
      <point x="75" y="267"/>
      <point x="150" y="477"/>
      <point x="287" y="477" type="curve" smooth="yes"/>
      <point x="353" y="477"/>
      <point x="420" y="462"/>
    </contour>
  </outline>
</glyph>
<glyph name="Emacron" format="2">
  <advance width="527"/>
  <unicode hex="0112"/>
  <note>
Emacron
</note>
  <outline>
    <contour>
      <point x="539" y="854" type="line"/>
      <point x="272" y="854" type="line"/>
      <point x="266" y="822" type="line"/>
      <point x="533" y="822" type="line"/>
    </contour>
    <contour>
      <point x="578" y="700" type="line"/>
      <point x="188" y="700" type="line"/>
      <point x="39" y="0" type="line"/>
      <point x="429" y="0" type="line"/>
      <point x="436" y="34" type="line"/>
      <point x="81" y="34" type="line"/>
      <point x="146" y="341" type="line"/>
      <point x="441" y="341" type="line"/>
      <point x="448" y="375" type="line"/>
      <point x="154" y="375" type="line"/>
      <point x="216" y="666" type="line"/>
      <point x="570" y="666" type="line"/>
    </contour>
  </outline>
</glyph>
<glyph name="Ebreve" format="2">
	<advance width="527"/>
	<unicode hex="0114"/>
	<note>
		Ebreve
	</note>
	<outline>
		<contour>
			<point x="318" y="912" type="curve"/>
			<point x="285" y="912" type="line"/>
			<point x="275" y="843"/>
			<point x="318" y="789"/>
			<point x="397" y="789" type="curve" smooth="yes"/>
			<point x="476" y="789"/>
			<point x="531" y="843"/>
			<point x="551" y="912" type="curve"/>
			<point x="514" y="912" type="line"/>
			<point x="498" y="862"/>
			<point x="457" y="821"/>
			<point x="397" y="821" type="curve" smooth="yes"/>
			<point x="337" y="821"/>
			<point x="312" y="862"/>
		</contour>
		<contour>
			<point x="578" y="700" type="line"/>
			<point x="188" y="700" type="line"/>
			<point x="39" y="0" type="line"/>
			<point x="429" y="0" type="line"/>
			<point x="436" y="34" type="line"/>
			<point x="81" y="34" type="line"/>
			<point x="146" y="341" type="line"/>
			<point x="441" y="341" type="line"/>
			<point x="448" y="375" type="line"/>
			<point x="154" y="375" type="line"/>
			<point x="216" y="666" type="line"/>
			<point x="570" y="666" type="line"/>
		</contour>
	</outline>
</glyph>
<glyph name="ebreve" format="2">
	<advance width="456"/>
	<unicode hex="0115"/>
	<note>
		ebreve
	</note>
	<outline>
		<contour>
			<point x="238" y="732" type="curve"/>
			<point x="204" y="732" type="line"/>
			<point x="196" y="663"/>
			<point x="236" y="609"/>
			<point x="315" y="609" type="curve" smooth="yes"/>
			<point x="394" y="609"/>
			<point x="452" y="663"/>
			<point x="472" y="732" type="curve"/>
			<point x="433" y="732" type="line"/>
			<point x="417" y="682"/>
			<point x="376" y="641"/>
			<point x="316" y="641" type="curve" smooth="yes"/>
			<point x="256" y="641"/>
			<point x="232" y="682"/>
		</contour>
		<contour>
			<point x="200" y="22" type="curve" smooth="yes"/>
			<point x="116" y="22"/>
			<point x="80" y="67"/>
			<point x="80" y="145" type="curve" smooth="yes"/>
			<point x="80" y="170"/>
			<point x="81" y="216"/>
			<point x="89" y="252" type="curve"/>
			<point x="158" y="251" type="line" smooth="yes"/>
			<point x="342" y="248"/>
			<point x="440" y="283"/>
			<point x="440" y="401" type="curve" smooth="yes"/>
			<point x="440" y="473"/>
			<point x="384" y="510"/>
			<point x="303" y="510" type="curve" smooth="yes"/>
			<point x="123" y="510"/>
			<point x="44" y="316"/>
			<point x="44" y="163" type="curve" smooth="yes"/>
			<point x="44" y="36"/>
			<point x="98" y="-10"/>
			<point x="196" y="-10" type="curve" smooth="yes"/>
			<point x="275" y="-10"/>
			<point x="355" y="21"/>
			<point x="355" y="21" type="curve"/>
			<point x="355" y="54" type="line"/>
			<point x="355" y="54"/>
			<point x="273" y="22"/>
		</contour>
		<contour>
			<point x="167" y="282" type="curve" smooth="yes"/>
			<point x="96" y="282" type="line"/>
			<point x="129" y="401"/>
			<point x="194" y="478"/>
			<point x="303" y="478" type="curve" smooth="yes"/>
			<point x="367" y="478"/>
			<point x="404" y="452"/>
			<point x="404" y="400" type="curve" smooth="yes"/>
			<point x="404" y="302"/>
			<point x="322" y="282"/>
		</contour>
	</outline>
</glyph>
<glyph name="Eogonek" format="2">
	<advance width="527"/>
	<unicode hex="0118"/>
	<note>
		Eogonek
	</note>
	<outline>
		<contour>
			<point x="394" y="0" type="curve"/>
			<point x="429" y="0" type="line"/>
			<point x="436" y="34" type="line"/>
			<point x="81" y="34" type="line"/>
			<point x="146" y="341" type="line"/>
			<point x="441" y="341" type="line"/>
			<point x="448" y="375" type="line"/>
			<point x="154" y="375" type="line"/>
			<point x="216" y="666" type="line"/>
			<point x="570" y="666" type="line"/>
			<point x="578" y="700" type="line"/>
			<point x="188" y="700" type="line"/>
			<point x="39" y="0" type="line"/>
			<point x="358" y="0" type="line"/>
			<point x="286" y="-58"/>
			<point x="249" y="-95"/>
			<point x="249" y="-136" type="curve" smooth="yes"/>
			<point x="249" y="-179"/>
			<point x="274" y="-200"/>
			<point x="313" y="-200" type="curve" smooth="yes"/>
			<point x="341" y="-200"/>
			<point x="379" y="-192"/>
			<point x="379" y="-192" type="curve"/>
			<point x="382" y="-159" type="line"/>
			<point x="382" y="-159"/>
			<point x="343" y="-166"/>
			<point x="324" y="-166" type="curve" smooth="yes"/>
			<point x="300" y="-166"/>
			<point x="287" y="-150"/>
			<point x="287" y="-128" type="curve" smooth="yes"/>
			<point x="287" y="-95"/>
			<point x="319" y="-72"/>
		</contour>
	</outline>
</glyph>
<glyph name="eogonek" format="2">
  <advance width="456"/>
  <unicode hex="0119"/>
  <note>
eogonek
</note>
  <outline>
    <contour>
      <point x="200" y="22" type="curve" smooth="yes"/>
      <point x="116" y="22"/>
      <point x="80" y="67"/>
      <point x="80" y="145" type="curve" smooth="yes"/>
      <point x="80" y="170"/>
      <point x="81" y="216"/>
      <point x="89" y="252" type="curve"/>
      <point x="158" y="251" type="line" smooth="yes"/>
      <point x="342" y="248"/>
      <point x="440" y="283"/>
      <point x="440" y="401" type="curve" smooth="yes"/>
      <point x="440" y="473"/>
      <point x="384" y="510"/>
      <point x="303" y="510" type="curve" smooth="yes"/>
      <point x="123" y="510"/>
      <point x="44" y="316"/>
      <point x="44" y="163" type="curve" smooth="yes"/>
      <point x="44" y="36"/>
      <point x="98" y="-10"/>
      <point x="196" y="-10" type="curve" smooth="yes"/>
      <point x="209" y="-10"/>
      <point x="218" y="-9"/>
      <point x="237" y="-8" type="curve"/>
      <point x="166" y="-50"/>
      <point x="134" y="-97"/>
      <point x="134" y="-136" type="curve" smooth="yes"/>
      <point x="134" y="-179"/>
      <point x="159" y="-200"/>
      <point x="198" y="-200" type="curve" smooth="yes"/>
      <point x="226" y="-200"/>
      <point x="264" y="-192"/>
      <point x="264" y="-192" type="curve"/>
      <point x="267" y="-159" type="line"/>
      <point x="267" y="-159"/>
      <point x="228" y="-166"/>
      <point x="209" y="-166" type="curve" smooth="yes"/>
      <point x="185" y="-166"/>
      <point x="172" y="-150"/>
      <point x="172" y="-128" type="curve" smooth="yes"/>
      <point x="172" y="-95"/>
      <point x="199" y="-61"/>
      <point x="257" y="-23" type="curve" smooth="yes"/>
      <point x="295" y="2"/>
      <point x="355" y="21"/>
      <point x="355" y="21" type="curve"/>
      <point x="355" y="54" type="line"/>
      <point x="355" y="54"/>
      <point x="273" y="22"/>
    </contour>
    <contour>
      <point x="167" y="282" type="curve" smooth="yes"/>
      <point x="96" y="282" type="line"/>
      <point x="129" y="401"/>
      <point x="194" y="478"/>
      <point x="303" y="478" type="curve" smooth="yes"/>
      <point x="367" y="478"/>
      <point x="404" y="452"/>
      <point x="404" y="400" type="curve" smooth="yes"/>
      <point x="404" y="302"/>
      <point x="322" y="282"/>
    </contour>
  </outline>
</glyph>
<glyph name="Ecaron" format="2">
	<advance width="527"/>
	<unicode hex="011A"/>
	<note>
		Ecaron
	</note>
	<outline>
		<contour>
			<point x="506" y="908" type="line"/>
			<point x="395" y="823" type="line"/>
			<point x="320" y="908" type="line"/>
			<point x="281" y="908" type="line"/>
			<point x="376" y="793" type="line"/>
			<point x="410" y="793" type="line"/>
			<point x="553" y="908" type="line"/>
		</contour>
		<contour>
			<point x="578" y="700" type="line"/>
			<point x="188" y="700" type="line"/>
			<point x="39" y="0" type="line"/>
			<point x="429" y="0" type="line"/>
			<point x="436" y="34" type="line"/>
			<point x="81" y="34" type="line"/>
			<point x="146" y="341" type="line"/>
			<point x="441" y="341" type="line"/>
			<point x="448" y="375" type="line"/>
			<point x="154" y="375" type="line"/>
			<point x="216" y="666" type="line"/>
			<point x="570" y="666" type="line"/>
		</contour>
	</outline>
</glyph>
<glyph name="Gbreve" format="2">
  <advance width="600"/>
  <unicode hex="011E"/>
  <note>
Gbreve
</note>
  <outline>
    <contour>
      <point x="377" y="912" type="curve"/>
      <point x="344" y="912" type="line"/>
      <point x="334" y="843"/>
      <point x="377" y="789"/>
      <point x="456" y="789" type="curve" smooth="yes"/>
      <point x="535" y="789"/>
      <point x="590" y="843"/>
      <point x="610" y="912" type="curve"/>
      <point x="573" y="912" type="line"/>
      <point x="557" y="862"/>
      <point x="516" y="821"/>
      <point x="456" y="821" type="curve" smooth="yes"/>
      <point x="396" y="821"/>
      <point x="371" y="862"/>
    </contour>
    <contour>
      <point x="550" y="347" type="line"/>
      <point x="365" y="347" type="line"/>
      <point x="358" y="313" type="line"/>
      <point x="508" y="313" type="line"/>
      <point x="451" y="44" type="line"/>
      <point x="415" y="33"/>
      <point x="333" y="24"/>
      <point x="271" y="24" type="curve" smooth="yes"/>
      <point x="144" y="24"/>
      <point x="104" y="77"/>
      <point x="104" y="189" type="curve" smooth="yes"/>
      <point x="104" y="375"/>
      <point x="180" y="676"/>
      <point x="407" y="676" type="curve" smooth="yes"/>
      <point x="498" y="676"/>
      <point x="613" y="650"/>
      <point x="613" y="650" type="curve"/>
      <point x="623" y="685" type="line"/>
      <point x="623" y="685"/>
      <point x="520" y="710"/>
      <point x="415" y="710" type="curve" smooth="yes"/>
      <point x="143" y="710"/>
      <point x="66" y="395"/>
      <point x="66" y="189" type="curve" smooth="yes"/>
      <point x="66" y="57"/>
      <point x="117" y="-10"/>
      <point x="267" y="-10" type="curve" smooth="yes"/>
      <point x="344" y="-10"/>
      <point x="422" y="2"/>
      <point x="480" y="16" type="curve"/>
    </contour>
  </outline>
</glyph>
<glyph name="Gdotaccent" format="2">
	<advance width="600"/>
	<unicode hex="0120"/>
	<note>
		Gdotaccent
	</note>
	<outline>
		<contour>
			<point x="491" y="883" type="line"/>
			<point x="449" y="883" type="line"/>
			<point x="437" y="822" type="line"/>
			<point x="479" y="822" type="line"/>
		</contour>
		<contour>
			<point x="550" y="347" type="line"/>
			<point x="365" y="347" type="line"/>
			<point x="358" y="313" type="line"/>
			<point x="508" y="313" type="line"/>
			<point x="451" y="44" type="line"/>
			<point x="415" y="33"/>
			<point x="333" y="24"/>
			<point x="271" y="24" type="curve" smooth="yes"/>
			<point x="144" y="24"/>
			<point x="104" y="77"/>
			<point x="104" y="189" type="curve" smooth="yes"/>
			<point x="104" y="375"/>
			<point x="180" y="676"/>
			<point x="407" y="676" type="curve" smooth="yes"/>
			<point x="498" y="676"/>
			<point x="613" y="650"/>
			<point x="613" y="650" type="curve"/>
			<point x="623" y="685" type="line"/>
			<point x="623" y="685"/>
			<point x="520" y="710"/>
			<point x="415" y="710" type="curve" smooth="yes"/>
			<point x="143" y="710"/>
			<point x="66" y="395"/>
			<point x="66" y="189" type="curve" smooth="yes"/>
			<point x="66" y="57"/>
			<point x="117" y="-10"/>
			<point x="267" y="-10" type="curve" smooth="yes"/>
			<point x="344" y="-10"/>
			<point x="422" y="2"/>
			<point x="480" y="16" type="curve"/>
		</contour>
	</outline>
</glyph>
<glyph name="Hcircumflex" format="2">
	<advance width="642"/>
	<unicode hex="0124"/>
	<note>
		Hcircumflex
	</note>
	<outline>
		<contour>
			<point x="339" y="793" type="line"/>
			<point x="450" y="878" type="line"/>
			<point x="525" y="793" type="line"/>
			<point x="564" y="793" type="line"/>
			<point x="469" y="908" type="line"/>
			<point x="435" y="908" type="line"/>
			<point x="292" y="793" type="line"/>
		</contour>
		<contour>
			<point x="146" y="339" type="line"/>
			<point x="534" y="339" type="line"/>
			<point x="462" y="0" type="line"/>
			<point x="497" y="0" type="line"/>
			<point x="646" y="700" type="line"/>
			<point x="611" y="700" type="line"/>
			<point x="542" y="373" type="line"/>
			<point x="153" y="373" type="line"/>
			<point x="223" y="700" type="line"/>
			<point x="188" y="700" type="line"/>
			<point x="39" y="0" type="line"/>
			<point x="74" y="0" type="line"/>
		</contour>
	</outline>
</glyph>
<glyph name="Hbar" format="2">
	<advance width="692"/>
	<unicode hex="0126"/>
	<note>
		Hbar
	</note>
	<outline>
		<contour>
			<point x="181" y="554" type="line"/>
			<point x="83" y="554" type="line"/>
			<point x="75" y="520" type="line"/>
			<point x="174" y="520" type="line"/>
			<point x="63" y="0" type="line"/>
			<point x="98" y="0" type="line"/>
			<point x="170" y="339" type="line"/>
			<point x="558" y="339" type="line"/>
			<point x="486" y="0" type="line"/>
			<point x="521" y="0" type="line"/>
			<point x="632" y="520" type="line"/>
			<point x="729" y="520" type="line"/>
			<point x="737" y="554" type="line"/>
			<point x="639" y="554" type="line"/>
			<point x="670" y="700" type="line"/>
			<point x="635" y="700" type="line"/>
			<point x="604" y="554" type="line"/>
			<point x="216" y="554" type="line"/>
			<point x="247" y="700" type="line"/>
			<point x="212" y="700" type="line"/>
		</contour>
		<contour>
			<point x="566" y="373" type="line"/>
			<point x="177" y="373" type="line"/>
			<point x="208" y="520" type="line"/>
			<point x="597" y="520" type="line"/>
		</contour>
	</outline>
</glyph>
<glyph name="Itilde" format="2">
	<advance width="219"/>
	<unicode hex="0128"/>
	<note>
		Itilde
	</note>
	<outline>
		<contour>
			<point x="388" y="861" type="curve"/>
			<point x="375" y="883" type="line"/>
			<point x="375" y="883"/>
			<point x="323" y="842"/>
			<point x="305" y="842" type="curve" smooth="yes"/>
			<point x="273" y="842"/>
			<point x="209" y="895"/>
			<point x="169" y="895" type="curve" smooth="yes"/>
			<point x="136" y="895"/>
			<point x="69" y="841"/>
			<point x="69" y="841" type="curve"/>
			<point x="81" y="819" type="line"/>
			<point x="81" y="819"/>
			<point x="139" y="864"/>
			<point x="160" y="864" type="curve" smooth="yes"/>
			<point x="192" y="864"/>
			<point x="256" y="810"/>
			<point x="296" y="810" type="curve" smooth="yes"/>
			<point x="327" y="810"/>
			<point x="388" y="861"/>
		</contour>
		<contour>
			<point x="223" y="700" type="line"/>
			<point x="188" y="700" type="line"/>
			<point x="39" y="0" type="line"/>
			<point x="74" y="0" type="line"/>
		</contour>
	</outline>
</glyph>
<glyph name="itilde" format="2">
	<advance width="195"/>
	<unicode hex="0129"/>
	<note>
		itilde
	</note>
	<outline>
		<contour>
			<point x="346" y="681" type="curve"/>
			<point x="333" y="703" type="line"/>
			<point x="333" y="703"/>
			<point x="281" y="662"/>
			<point x="263" y="662" type="curve" smooth="yes"/>
			<point x="231" y="662"/>
			<point x="167" y="715"/>
			<point x="127" y="715" type="curve" smooth="yes"/>
			<point x="94" y="715"/>
			<point x="27" y="661"/>
			<point x="27" y="661" type="curve"/>
			<point x="39" y="639" type="line"/>
			<point x="39" y="639"/>
			<point x="97" y="684"/>
			<point x="118" y="684" type="curve" smooth="yes"/>
			<point x="150" y="684"/>
			<point x="214" y="630"/>
			<point x="254" y="630" type="curve" smooth="yes"/>
			<point x="285" y="630"/>
			<point x="346" y="681"/>
		</contour>
		<contour>
			<point x="169" y="500" type="line"/>
			<point x="134" y="500" type="line"/>
			<point x="27" y="0" type="line"/>
			<point x="62" y="0" type="line"/>
		</contour>
	</outline>
</glyph>
<glyph name="Imacron" format="2">
	<advance width="219"/>
	<unicode hex="012A"/>
	<note>
		Imacron
	</note>
	<outline>
		<contour>
			<point x="372" y="854" type="line"/>
			<point x="105" y="854" type="line"/>
			<point x="99" y="822" type="line"/>
			<point x="366" y="822" type="line"/>
		</contour>
		<contour>
			<point x="223" y="700" type="line"/>
			<point x="188" y="700" type="line"/>
			<point x="39" y="0" type="line"/>
			<point x="74" y="0" type="line"/>
		</contour>
	</outline>
</glyph>
<glyph name="imacron" format="2">
	<advance width="195"/>
	<unicode hex="012B"/>
	<note>
		imacron
	</note>
	<outline>
		<contour>
			<point x="320" y="674" type="line"/>
			<point x="53" y="674" type="line"/>
			<point x="47" y="642" type="line"/>
			<point x="314" y="642" type="line"/>
		</contour>
		<contour>
			<point x="169" y="500" type="line"/>
			<point x="134" y="500" type="line"/>
			<point x="27" y="0" type="line"/>
			<point x="62" y="0" type="line"/>
		</contour>
	</outline>
</glyph>
<glyph name="Ibreve" format="2">
	<advance width="219"/>
	<unicode hex="012C"/>
	<note>
		Ibreve
	</note>
	<outline>
		<contour>
			<point x="151" y="912" type="curve"/>
			<point x="118" y="912" type="line"/>
			<point x="108" y="843"/>
			<point x="151" y="789"/>
			<point x="230" y="789" type="curve" smooth="yes"/>
			<point x="309" y="789"/>
			<point x="364" y="843"/>
			<point x="384" y="912" type="curve"/>
			<point x="347" y="912" type="line"/>
			<point x="331" y="862"/>
			<point x="290" y="821"/>
			<point x="230" y="821" type="curve" smooth="yes"/>
			<point x="170" y="821"/>
			<point x="145" y="862"/>
		</contour>
		<contour>
			<point x="223" y="700" type="line"/>
			<point x="188" y="700" type="line"/>
			<point x="39" y="0" type="line"/>
			<point x="74" y="0" type="line"/>
		</contour>
	</outline>
</glyph>
<glyph name="ibreve" format="2">
	<advance width="195"/>
	<unicode hex="012D"/>
	<note>
		ibreve
	</note>
	<outline>
		<contour>
			<point x="99" y="732" type="curve"/>
			<point x="65" y="732" type="line"/>
			<point x="57" y="663"/>
			<point x="97" y="609"/>
			<point x="176" y="609" type="curve" smooth="yes"/>
			<point x="255" y="609"/>
			<point x="313" y="663"/>
			<point x="333" y="732" type="curve"/>
			<point x="294" y="732" type="line"/>
			<point x="278" y="682"/>
			<point x="237" y="641"/>
			<point x="177" y="641" type="curve" smooth="yes"/>
			<point x="117" y="641"/>
			<point x="93" y="682"/>
		</contour>
		<contour>
			<point x="169" y="500" type="line"/>
			<point x="134" y="500" type="line"/>
			<point x="27" y="0" type="line"/>
			<point x="62" y="0" type="line"/>
		</contour>
	</outline>
</glyph>
<glyph name="Iogonek" format="2">
  <advance width="219"/>
  <unicode hex="012E"/>
  <note>
Iogonek
</note>
  <outline>
    <contour>
      <point x="74" y="0" type="curve"/>
      <point x="223" y="700" type="line"/>
      <point x="188" y="700" type="line"/>
      <point x="38" y="0" type="line"/>
      <point x="41" y="0" type="line"/>
      <point x="-30" y="-57"/>
      <point x="-71" y="-95"/>
      <point x="-71" y="-136" type="curve" smooth="yes"/>
      <point x="-71" y="-179"/>
      <point x="-46" y="-200"/>
      <point x="-7" y="-200" type="curve" smooth="yes"/>
      <point x="21" y="-200"/>
      <point x="59" y="-192"/>
      <point x="59" y="-192" type="curve"/>
      <point x="62" y="-159" type="line"/>
      <point x="62" y="-159"/>
      <point x="23" y="-166"/>
      <point x="4" y="-166" type="curve" smooth="yes"/>
      <point x="-20" y="-166"/>
      <point x="-33" y="-150"/>
      <point x="-33" y="-128" type="curve" smooth="yes"/>
      <point x="-33" y="-95"/>
      <point x="-1" y="-72"/>
    </contour>
  </outline>
</glyph>
<glyph name="iogonek" format="2">
  <advance width="195"/>
  <unicode hex="012F"/>
  <note>
iogonek
</note>
  <outline>
    <contour>
      <point x="212" y="700" type="line"/>
      <point x="173" y="700" type="line"/>
      <point x="157" y="625" type="line"/>
      <point x="196" y="625" type="line"/>
    </contour>
    <contour>
      <point x="62" y="0" type="curve"/>
      <point x="169" y="500" type="line"/>
      <point x="134" y="500" type="line"/>
      <point x="26" y="0" type="line"/>
      <point x="29" y="0" type="line"/>
      <point x="-41" y="-56"/>
      <point x="-83" y="-96"/>
      <point x="-83" y="-136" type="curve" smooth="yes"/>
      <point x="-83" y="-179"/>
      <point x="-58" y="-200"/>
      <point x="-19" y="-200" type="curve" smooth="yes"/>
      <point x="9" y="-200"/>
      <point x="47" y="-192"/>
      <point x="47" y="-192" type="curve"/>
      <point x="50" y="-159" type="line"/>
      <point x="50" y="-159"/>
      <point x="11" y="-166"/>
      <point x="-8" y="-166" type="curve" smooth="yes"/>
      <point x="-32" y="-166"/>
      <point x="-45" y="-150"/>
      <point x="-45" y="-128" type="curve" smooth="yes"/>
      <point x="-45" y="-95"/>
      <point x="-13" y="-72"/>
    </contour>
  </outline>
</glyph>
<glyph name="Idotaccent" format="2">
	<advance width="219"/>
	<unicode hex="0130"/>
	<note>
		Idotaccent
	</note>
	<outline>
		<contour>
			<point x="265" y="883" type="line"/>
			<point x="223" y="883" type="line"/>
			<point x="211" y="822" type="line"/>
			<point x="253" y="822" type="line"/>
		</contour>
		<contour>
			<point x="223" y="700" type="line"/>
			<point x="188" y="700" type="line"/>
			<point x="39" y="0" type="line"/>
			<point x="74" y="0" type="line"/>
		</contour>
	</outline>
</glyph>
<glyph name="IJ" format="2">
	<advance width="504"/>
	<unicode hex="0132"/>
	<note>
		IJ
	</note>
	<outline>
		<contour>
			<point x="223" y="700" type="line"/>
			<point x="188" y="700" type="line"/>
			<point x="39" y="0" type="line"/>
			<point x="74" y="0" type="line"/>
		</contour>
		<contour>
			<point x="386" y="114" type="curve" smooth="yes"/>
			<point x="511" y="700" type="line"/>
			<point x="476" y="700" type="line"/>
			<point x="353" y="124" type="line" smooth="yes"/>
			<point x="337" y="51"/>
			<point x="322" y="27"/>
			<point x="195" y="27" type="curve"/>
			<point x="188" y="-7" type="line"/>
			<point x="330" y="-7"/>
			<point x="365" y="16"/>
		</contour>
	</outline>
</glyph>
<glyph name="ij" format="2">
	<advance width="415"/>
	<unicode hex="0133"/>
	<note>
		ij
	</note>
	<outline>
		<contour>
			<point x="212" y="700" type="line"/>
			<point x="173" y="700" type="line"/>
			<point x="157" y="625" type="line"/>
			<point x="196" y="625" type="line"/>
		</contour>
		<contour>
			<point x="433" y="700" type="line"/>
			<point x="394" y="700" type="line"/>
			<point x="378" y="625" type="line"/>
			<point x="417" y="625" type="line"/>
		</contour>
		<contour>
			<point x="169" y="500" type="line"/>
			<point x="134" y="500" type="line"/>
			<point x="27" y="0" type="line"/>
			<point x="62" y="0" type="line"/>
		</contour>
		<contour>
			<point x="389" y="500" type="line"/>
			<point x="354" y="500" type="line"/>
			<point x="237" y="-46" type="line" smooth="yes"/>
			<point x="215" y="-150"/>
			<point x="192" y="-147"/>
			<point x="65" y="-211" type="curve"/>
			<point x="76" y="-240" type="line"/>
			<point x="227" y="-170"/>
			<point x="248" y="-159"/>
			<point x="272" y="-47" type="curve" smooth="yes"/>
		</contour>
	</outline>
</glyph>
<glyph name="Jcircumflex" format="2">
  <advance width="279"/>
  <unicode hex="0134"/>
  <note>
Jcircumflex
</note>
  <outline>
    <contour>
      <point x="201" y="793" type="line"/>
      <point x="312" y="878" type="line"/>
      <point x="387" y="793" type="line"/>
      <point x="426" y="793" type="line"/>
      <point x="331" y="908" type="line"/>
      <point x="297" y="908" type="line"/>
      <point x="154" y="793" type="line"/>
    </contour>
    <contour>
      <point x="161" y="114" type="curve" smooth="yes"/>
      <point x="286" y="700" type="line"/>
      <point x="251" y="700" type="line"/>
      <point x="128" y="124" type="line" smooth="yes"/>
      <point x="112" y="51"/>
      <point x="97" y="27"/>
      <point x="-30" y="27" type="curve"/>
      <point x="-37" y="-7" type="line"/>
      <point x="105" y="-7"/>
      <point x="140" y="16"/>
    </contour>
  </outline>
</glyph>
<glyph name="jcircumflex" format="2">
	<advance width="195"/>
	<unicode hex="0135"/>
	<note>
		jcircumflex
	</note>
	<outline>
		<contour>
			<point x="81" y="613" type="line"/>
			<point x="192" y="698" type="line"/>
			<point x="267" y="613" type="line"/>
			<point x="305" y="613" type="line"/>
			<point x="210" y="728" type="line"/>
			<point x="176" y="728" type="line"/>
			<point x="33" y="613" type="line"/>
		</contour>
		<contour>
			<point x="169" y="500" type="line"/>
			<point x="134" y="500" type="line"/>
			<point x="17" y="-46" type="line" smooth="yes"/>
			<point x="-5" y="-150"/>
			<point x="-28" y="-147"/>
			<point x="-155" y="-211" type="curve"/>
			<point x="-144" y="-240" type="line"/>
			<point x="7" y="-170"/>
			<point x="28" y="-159"/>
			<point x="52" y="-47" type="curve" smooth="yes"/>
		</contour>
	</outline>
</glyph>
<glyph name="Kcommaaccent" format="2">
	<advance width="536"/>
	<unicode hex="0136"/>
	<note>
		Kcommaaccent
	</note>
	<outline>
		<contour>
			<point x="144" y="329" type="line"/>
			<point x="271" y="329" type="line"/>
			<point x="441" y="0" type="line"/>
			<point x="480" y="0" type="line"/>
			<point x="299" y="348" type="line"/>
			<point x="590" y="700" type="line"/>
			<point x="547" y="700" type="line"/>
			<point x="270" y="363" type="line"/>
			<point x="151" y="363" type="line"/>
			<point x="223" y="700" type="line"/>
			<point x="188" y="700" type="line"/>
			<point x="39" y="0" type="line"/>
			<point x="74" y="0" type="line"/>
		</contour>
		<contour>
			<point x="248" y="-121" type="line"/>
			<point x="219" y="-99" type="line"/>
			<point x="136" y="-236" type="line"/>
			<point x="157" y="-251" type="line"/>
		</contour>
	</outline>
</glyph>
<glyph name="kcommaaccent" format="2">
  <advance width="431"/>
  <unicode hex="0137"/>
  <note>
kcommaaccent
</note>
  <outline>
    <contour>
      <point x="183" y="730" type="line"/>
      <point x="27" y="0" type="line"/>
      <point x="62" y="0" type="line"/>
      <point x="116" y="257" type="line"/>
      <point x="217" y="257" type="line"/>
      <point x="323" y="0" type="line"/>
      <point x="360" y="0" type="line"/>
      <point x="246" y="274" type="line"/>
      <point x="454" y="500" type="line"/>
      <point x="409" y="500" type="line"/>
      <point x="217" y="289" type="line"/>
      <point x="123" y="289" type="line"/>
      <point x="218" y="730" type="line"/>
    </contour>
    <contour>
      <point x="195" y="-121" type="line"/>
      <point x="166" y="-99" type="line"/>
      <point x="83" y="-236" type="line"/>
      <point x="104" y="-251" type="line"/>
    </contour>
  </outline>
</glyph>
<glyph name="Lacute" format="2">
	<advance width="445"/>
	<unicode hex="0139"/>
	<note>
		Lacute
	</note>
	<outline>
		<contour>
			<point x="315" y="912" type="line"/>
			<point x="144" y="816" type="line"/>
			<point x="160" y="789" type="line"/>
			<point x="334" y="881" type="line"/>
		</contour>
		<contour>
			<point x="188" y="700" type="line"/>
			<point x="39" y="0" type="line"/>
			<point x="385" y="0" type="line"/>
			<point x="392" y="34" type="line"/>
			<point x="81" y="34" type="line"/>
			<point x="223" y="700" type="line"/>
		</contour>
	</outline>
</glyph>
<glyph name="lacute" format="2">
  <advance width="245"/>
  <unicode hex="013A"/>
  <note>
lacute
</note>
  <outline>
    <contour>
      <point x="307" y="942" type="line"/>
      <point x="136" y="846" type="line"/>
      <point x="152" y="819" type="line"/>
      <point x="326" y="911" type="line"/>
    </contour>
    <contour>
      <point x="78" y="87" type="curve" smooth="yes"/>
      <point x="215" y="730" type="line"/>
      <point x="180" y="730" type="line"/>
      <point x="43" y="87" type="line" smooth="yes"/>
      <point x="29" y="23"/>
      <point x="49" y="-10"/>
      <point x="120" y="-10" type="curve" smooth="yes"/>
      <point x="155" y="-10"/>
      <point x="182" y="-4"/>
      <point x="182" y="-4" type="curve"/>
      <point x="185" y="26" type="line"/>
      <point x="185" y="26"/>
      <point x="158" y="23"/>
      <point x="130" y="23" type="curve" smooth="yes"/>
      <point x="79" y="23"/>
      <point x="68" y="42"/>
    </contour>
  </outline>
</glyph>
<glyph name="Lcommaaccent" format="2">
	<advance width="445"/>
	<unicode hex="013B"/>
	<note>
		Lcommaaccent
	</note>
	<outline>
		<contour>
			<point x="188" y="700" type="line"/>
			<point x="39" y="0" type="line"/>
			<point x="385" y="0" type="line"/>
			<point x="392" y="34" type="line"/>
			<point x="81" y="34" type="line"/>
			<point x="223" y="700" type="line"/>
		</contour>
		<contour>
			<point x="231" y="-121" type="line"/>
			<point x="202" y="-99" type="line"/>
			<point x="119" y="-236" type="line"/>
			<point x="140" y="-251" type="line"/>
		</contour>
	</outline>
</glyph>
<glyph name="Lcaron" format="2">
	<advance width="445"/>
	<unicode hex="013D"/>
	<note>
		Lcaron
	</note>
	<outline>
		<contour>
			<point x="188" y="700" type="line"/>
			<point x="39" y="0" type="line"/>
			<point x="385" y="0" type="line"/>
			<point x="392" y="34" type="line"/>
			<point x="81" y="34" type="line"/>
			<point x="223" y="700" type="line"/>
		</contour>
		<contour>
			<point x="293" y="571" type="curve"/>
			<point x="306" y="564" type="line"/>
			<point x="306" y="564"/>
			<point x="357" y="604"/>
			<point x="364" y="639" type="curve" smooth="yes"/>
			<point x="370" y="664"/>
			<point x="377" y="700"/>
			<point x="377" y="700" type="curve"/>
			<point x="343" y="700" type="line"/>
			<point x="343" y="700"/>
			<point x="336" y="660"/>
			<point x="331" y="638" type="curve" smooth="yes"/>
			<point x="328" y="622"/>
			<point x="293" y="571"/>
		</contour>
	</outline>
</glyph>
<glyph name="lcaron" format="2">
	<advance width="245"/>
	<unicode hex="013E"/>
	<note>
		lcaron
	</note>
	<outline>
		<contour>
			<point x="78" y="87" type="curve" smooth="yes"/>
			<point x="215" y="730" type="line"/>
			<point x="180" y="730" type="line"/>
			<point x="43" y="87" type="line" smooth="yes"/>
			<point x="29" y="23"/>
			<point x="49" y="-10"/>
			<point x="120" y="-10" type="curve" smooth="yes"/>
			<point x="155" y="-10"/>
			<point x="182" y="-4"/>
			<point x="182" y="-4" type="curve"/>
			<point x="185" y="26" type="line"/>
			<point x="185" y="26"/>
			<point x="158" y="23"/>
			<point x="130" y="23" type="curve" smooth="yes"/>
			<point x="79" y="23"/>
			<point x="68" y="42"/>
		</contour>
		<contour>
			<point x="255" y="601" type="curve"/>
			<point x="268" y="594" type="line"/>
			<point x="268" y="594"/>
			<point x="319" y="634"/>
			<point x="326" y="669" type="curve" smooth="yes"/>
			<point x="332" y="694"/>
			<point x="339" y="730"/>
			<point x="339" y="730" type="curve"/>
			<point x="305" y="730" type="line"/>
			<point x="305" y="730"/>
			<point x="298" y="690"/>
			<point x="293" y="668" type="curve" smooth="yes"/>
			<point x="290" y="652"/>
			<point x="255" y="601"/>
		</contour>
	</outline>
</glyph>
<glyph name="Ldot" format="2">
	<advance width="446"/>
	<unicode hex="013F"/>
	<note>
		Ldot
	</note>
	<outline>
		<contour>
			<point x="188" y="700" type="line"/>
			<point x="39" y="0" type="line"/>
			<point x="385" y="0" type="line"/>
			<point x="392" y="34" type="line"/>
			<point x="81" y="34" type="line"/>
			<point x="223" y="700" type="line"/>
		</contour>
		<contour>
			<point x="382" y="421" type="line"/>
			<point x="342" y="421" type="line"/>
			<point x="324" y="341" type="line"/>
			<point x="364" y="341" type="line"/>
		</contour>
	</outline>
</glyph>
<glyph name="Lslash" format="2">
	<advance width="479"/>
	<unicode hex="0141"/>
	<note>
		Lslash
	</note>
	<outline>
		<contour>
			<point x="141" y="321" type="line"/>
			<point x="73" y="0" type="line"/>
			<point x="419" y="0" type="line"/>
			<point x="426" y="34" type="line"/>
			<point x="115" y="34" type="line"/>
			<point x="179" y="335" type="line"/>
			<point x="355" y="414" type="line"/>
			<point x="347" y="445" type="line"/>
			<point x="187" y="372" type="line"/>
			<point x="257" y="700" type="line"/>
			<point x="222" y="700" type="line"/>
			<point x="149" y="359" type="line"/>
			<point x="32" y="306" type="line"/>
			<point x="42" y="276" type="line"/>
		</contour>
	</outline>
</glyph>
<glyph name="lslash" format="2">
  <advance width="276"/>
  <unicode hex="0142"/>
  <note>
lslash
</note>
  <outline>
    <contour>
      <point x="103" y="87" type="curve" smooth="yes"/>
      <point x="159" y="348" type="line"/>
      <point x="259" y="383" type="line"/>
      <point x="251" y="414" type="line"/>
      <point x="166" y="385" type="line"/>
      <point x="240" y="730" type="line"/>
      <point x="205" y="730" type="line"/>
      <point x="129" y="375" type="line"/>
      <point x="40" y="342" type="line"/>
      <point x="46" y="311" type="line"/>
      <point x="121" y="338" type="line"/>
      <point x="68" y="87" type="line" smooth="yes"/>
      <point x="54" y="23"/>
      <point x="74" y="-10"/>
      <point x="145" y="-10" type="curve" smooth="yes"/>
      <point x="180" y="-10"/>
      <point x="207" y="-4"/>
      <point x="207" y="-4" type="curve"/>
      <point x="210" y="26" type="line"/>
      <point x="210" y="26"/>
      <point x="183" y="23"/>
      <point x="155" y="23" type="curve" smooth="yes"/>
      <point x="104" y="23"/>
      <point x="93" y="42"/>
    </contour>
  </outline>
</glyph>
<glyph name="Nacute" format="2">
	<advance width="632"/>
	<unicode hex="0143"/>
	<note>
		Nacute
	</note>
	<outline>
		<contour>
			<point x="536" y="912" type="line"/>
			<point x="365" y="816" type="line"/>
			<point x="381" y="789" type="line"/>
			<point x="555" y="881" type="line"/>
		</contour>
		<contour>
			<point x="273" y="700" type="line"/>
			<point x="188" y="700" type="line"/>
			<point x="40" y="0" type="line"/>
			<point x="75" y="0" type="line"/>
			<point x="216" y="666" type="line"/>
			<point x="246" y="666" type="line"/>
			<point x="402" y="0" type="line"/>
			<point x="487" y="0" type="line"/>
			<point x="637" y="700" type="line"/>
			<point x="602" y="700" type="line"/>
			<point x="459" y="34" type="line"/>
			<point x="429" y="34" type="line"/>
		</contour>
	</outline>
</glyph>
<glyph name="nacute" format="2">
	<advance width="499"/>
	<unicode hex="0144"/>
	<note>
		nacute
	</note>
	<outline>
		<contour>
			<point x="442" y="732" type="line"/>
			<point x="232" y="636" type="line"/>
			<point x="244" y="609" type="line"/>
			<point x="456" y="701" type="line"/>
		</contour>
		<contour>
			<point x="134" y="500" type="line"/>
			<point x="27" y="0" type="line"/>
			<point x="62" y="0" type="line"/>
			<point x="133" y="330" type="line"/>
			<point x="133" y="330"/>
			<point x="232" y="477"/>
			<point x="331" y="477" type="curve" smooth="yes"/>
			<point x="377" y="477"/>
			<point x="410" y="444"/>
			<point x="410" y="383" type="curve" smooth="yes"/>
			<point x="410" y="348"/>
			<point x="399" y="295"/>
			<point x="391" y="258" type="curve" smooth="yes"/>
			<point x="337" y="0" type="line"/>
			<point x="372" y="0" type="line"/>
			<point x="426" y="260" type="line" smooth="yes"/>
			<point x="434" y="300"/>
			<point x="445" y="347"/>
			<point x="445" y="386" type="curve" smooth="yes"/>
			<point x="445" y="465"/>
			<point x="399" y="510"/>
			<point x="335" y="510" type="curve" smooth="yes"/>
			<point x="232" y="510"/>
			<point x="143" y="386"/>
			<point x="143" y="386" type="curve"/>
			<point x="167" y="500" type="line"/>
		</contour>
	</outline>
</glyph>
<glyph name="Ncommaaccent" format="2">
  <advance width="632"/>
  <unicode hex="0145"/>
  <note>
Ncommaaccent
</note>
  <outline>
    <contour>
      <point x="273" y="700" type="line"/>
      <point x="188" y="700" type="line"/>
      <point x="40" y="0" type="line"/>
      <point x="75" y="0" type="line"/>
      <point x="216" y="666" type="line"/>
      <point x="246" y="666" type="line"/>
      <point x="402" y="0" type="line"/>
      <point x="487" y="0" type="line"/>
      <point x="637" y="700" type="line"/>
      <point x="602" y="700" type="line"/>
      <point x="459" y="34" type="line"/>
      <point x="429" y="34" type="line"/>
    </contour>
    <contour>
      <point x="280" y="-121" type="line"/>
      <point x="251" y="-99" type="line"/>
      <point x="168" y="-236" type="line"/>
      <point x="189" y="-251" type="line"/>
    </contour>
  </outline>
</glyph>
<glyph name="Ncaron" format="2">
  <advance width="632"/>
  <unicode hex="0147"/>
  <note>
Ncaron
</note>
  <outline>
    <contour>
      <point x="560" y="908" type="line"/>
      <point x="449" y="823" type="line"/>
      <point x="374" y="908" type="line"/>
      <point x="335" y="908" type="line"/>
      <point x="430" y="793" type="line"/>
      <point x="464" y="793" type="line"/>
      <point x="607" y="908" type="line"/>
    </contour>
    <contour>
      <point x="273" y="700" type="line"/>
      <point x="188" y="700" type="line"/>
      <point x="40" y="0" type="line"/>
      <point x="75" y="0" type="line"/>
      <point x="216" y="666" type="line"/>
      <point x="246" y="666" type="line"/>
      <point x="402" y="0" type="line"/>
      <point x="487" y="0" type="line"/>
      <point x="637" y="700" type="line"/>
      <point x="602" y="700" type="line"/>
      <point x="459" y="34" type="line"/>
      <point x="429" y="34" type="line"/>
    </contour>
  </outline>
</glyph>
<glyph name="napostrophe" format="2">
  <advance width="573"/>
  <unicode hex="0149"/>
  <note>
napostrophe
</note>
  <outline>
    <contour>
      <point x="212" y="730" type="line"/>
      <point x="172" y="730" type="line"/>
      <point x="86" y="527" type="line"/>
      <point x="117" y="527" type="line"/>
    </contour>
    <contour>
      <point x="208" y="500" type="line"/>
      <point x="101" y="0" type="line"/>
      <point x="136" y="0" type="line"/>
      <point x="207" y="330" type="line"/>
      <point x="207" y="330"/>
      <point x="306" y="477"/>
      <point x="405" y="477" type="curve" smooth="yes"/>
      <point x="451" y="477"/>
      <point x="484" y="444"/>
      <point x="484" y="383" type="curve" smooth="yes"/>
      <point x="484" y="348"/>
      <point x="473" y="295"/>
      <point x="465" y="258" type="curve" smooth="yes"/>
      <point x="411" y="0" type="line"/>
      <point x="446" y="0" type="line"/>
      <point x="500" y="260" type="line" smooth="yes"/>
      <point x="508" y="300"/>
      <point x="519" y="347"/>
      <point x="519" y="386" type="curve" smooth="yes"/>
      <point x="519" y="465"/>
      <point x="473" y="510"/>
      <point x="409" y="510" type="curve" smooth="yes"/>
      <point x="306" y="510"/>
      <point x="217" y="386"/>
      <point x="217" y="386" type="curve"/>
      <point x="241" y="500" type="line"/>
    </contour>
  </outline>
</glyph>
<glyph name="Eng" format="2">
	<advance width="633"/>
	<unicode hex="014A"/>
	<note>
		Eng
	</note>
	<outline>
		<contour>
			<point x="273" y="700" type="line"/>
			<point x="188" y="700" type="line"/>
			<point x="39" y="0" type="line"/>
			<point x="75" y="0" type="line"/>
			<point x="216" y="666" type="line"/>
			<point x="246" y="666" type="line"/>
			<point x="402" y="0" type="line"/>
			<point x="451" y="0" type="line"/>
			<point x="450" y="-4" type="line" smooth="yes"/>
			<point x="417" y="-136"/>
			<point x="401" y="-139"/>
			<point x="284" y="-139" type="curve"/>
			<point x="277" y="-173" type="line"/>
			<point x="397" y="-173"/>
			<point x="451" y="-169"/>
			<point x="483" y="-19" type="curve" smooth="yes"/>
			<point x="637" y="700" type="line"/>
			<point x="602" y="700" type="line"/>
			<point x="459" y="34" type="line"/>
			<point x="429" y="34" type="line"/>
		</contour>
	</outline>
</glyph>
